<?xml version="1.0" encoding="utf-8"?>
<!-- Generator: Adobe Illustrator 26.0.3, SVG Export Plug-In . SVG Version: 6.00 Build 0)  -->
<!DOCTYPE svg PUBLIC "-//W3C//DTD SVG 1.1//EN" "http://www.w3.org/Graphics/SVG/1.1/DTD/svg11.dtd" [
	<!ENTITY ns_extend "http://ns.adobe.com/Extensibility/1.0/">
	<!ENTITY ns_ai "http://ns.adobe.com/AdobeIllustrator/10.0/">
	<!ENTITY ns_graphs "http://ns.adobe.com/Graphs/1.0/">
	<!ENTITY ns_vars "http://ns.adobe.com/Variables/1.0/">
	<!ENTITY ns_imrep "http://ns.adobe.com/ImageReplacement/1.0/">
	<!ENTITY ns_sfw "http://ns.adobe.com/SaveForWeb/1.0/">
	<!ENTITY ns_custom "http://ns.adobe.com/GenericCustomNamespace/1.0/">
	<!ENTITY ns_adobe_xpath "http://ns.adobe.com/XPath/1.0/">
]>
<svg version="1.1" id="Слой_1" xmlns:x="&ns_extend;" xmlns:i="&ns_ai;" xmlns:graph="&ns_graphs;"
	 xmlns="http://www.w3.org/2000/svg" xmlns:xlink="http://www.w3.org/1999/xlink" x="0px" y="0px" width="256.9px" height="351.6px"
	 viewBox="0 0 256.9 351.6" style="enable-background:new 0 0 256.9 351.6;" xml:space="preserve">
<style type="text/css">
	.st0{fill:#FFFFFF;}
	.st1{fill:#B6B1AE;}
	.st2{fill:#CAA77A;}
	.st3{fill:#FFDB1F;}
	.st4{fill:#FFDBAF;}
	.st5{fill:#9D7B51;}
	.st6{fill:none;stroke:#9D7B51;stroke-width:4.1072;stroke-linecap:round;stroke-linejoin:round;stroke-miterlimit:10;}
	.st7{opacity:0.23;fill:#3F2719;}
	.st8{fill:#3F2719;}
	.st9{fill:none;stroke:#2D1F04;stroke-width:2.7806;stroke-linecap:round;stroke-linejoin:round;stroke-miterlimit:10;}
	.st10{fill:none;stroke:#2D1F04;stroke-width:2.7806;stroke-linejoin:round;stroke-miterlimit:10;}
	.st11{fill:none;stroke:#2D1F04;stroke-width:8.0658;stroke-linecap:round;stroke-linejoin:round;stroke-miterlimit:10;}
	.st12{fill:none;stroke:#2D1F04;stroke-width:3.2369;stroke-linecap:round;stroke-linejoin:round;stroke-miterlimit:10;}
	.st13{fill:#251707;}
	.st14{fill:#2D1F04;}
	.st15{fill:none;stroke:#2D1F04;stroke-width:2.5153;stroke-linecap:round;stroke-linejoin:round;stroke-miterlimit:10;}
	.st16{clip-path:url(#SVGID_00000154417513865087158950000012098990106824445853_);}
</style>
<metadata>
	<sfw  xmlns="&ns_sfw;">
		<slices></slices>
		<sliceSourceBounds  bottomLeftOrigin="true" height="351.6" width="256.9" x="708" y="97.1"></sliceSourceBounds>
	</sfw>
</metadata>
<g>
	<path class="st0" d="M256.4,221c-0.1-6.2-0.2-12.5-0.4-18.7c-0.1-5.3,0.7-11.7-1.4-16.7c-0.6-1.8-1.5-3.3-2.6-4.6
		c-1.2-1.3-2.7-2.4-4.5-3.1c-2.7-1.5-5.7-2.3-8.9-2.3c-0.1,0-0.2,0-0.3,0c0,0-1.3,0-3.6,0.1c0-0.2-0.1-0.4-0.1-0.5
		c-2.9-14.8-9.5-31-21.2-41c0-0.5,0-1-0.1-1.5c-0.9-9.6-1-19.2-2.8-28.8c-1.6-8.4-3.9-16.7-7.1-24.7c-5.3-13.3-12.9-25.6-22.3-36.3
		c-9.4-10.7-20.7-20-33.9-25.3c-5.4-2.2-11-3.7-16.5-5.6c-5.4-1.9-10.4-4.7-16-6.1c-0.7-0.2-1.3-0.3-2-0.3c-0.8-0.2-1.6-0.3-2.5-0.3
		c-1.4,0-2.8,0.3-4,1c-0.6,0.3-1.2,0.7-1.7,1.1c-2-0.5-4.1-1.2-6.2-1.8c-1-0.3-2-0.6-2.9-0.9c-0.4-0.2-0.8-0.6-1.2-0.8
		c-0.4-0.3-0.8-0.5-1.2-0.8c-0.6-0.6-1.5-1.3-2.6-1.8c-1.2-0.6-2.7-1-4.1-1c-5,0-8.5,4.1-9.6,6.7c-0.2,0.5-0.3,0.9-0.5,1.4
		c-1.8,0.4-3.3,1-4.5,1.5c-1.2,0.2-2.4,0.4-3.5,0.7c-2.8,0.7-5.6,1.7-8.3,2.9c-2.8,1-4.9,3.3-5.7,6.1c-0.3,0.9-0.4,1.9-0.3,2.8
		C36.3,39,31.2,58.4,31.9,76.5c-0.5-0.2-1-0.3-1.5-0.4c-1.7-1.2-3.7-1.8-5.8-1.8c-0.2,0-0.5,0-0.7,0c-2.1,0.1-4.1,0.6-5.9,1.5
		c-1.8,0.9-3.5,2.2-4.9,3.7c-2.8,3.2-4.1,7.1-3.8,11.2c0.2,3.1,1.2,5.9,3,8.3c-0.3,0.8-0.6,1.6-0.8,2.5c-0.4,2-0.4,4,0,6.1
		c0.2,0.9,0.4,1.8,0.8,2.6c0,0.2,0,0.4,0,0.6c-0.3,0.4-0.6,0.8-0.8,1.2c-1.3,2.5-1.6,5.3-0.8,7.9c0.8,2.7,2.6,4.9,5.1,6.2
		c0.2,0.1,0.3,0.1,0.5,0.2c-0.5,0.7-1,1.5-1.3,2.3c-1,2.5-1,5.3,0,7.8c1.1,2.5,3,4.5,5.6,5.5c1.2,0.5,2.5,0.8,3.9,0.8
		c0,0,0.1,0,0.1,0c0.8,1.6,1.8,2.9,3,4.1c-0.6,1.8-0.8,3.7-0.6,5.7c0.2,2,0.7,3.9,1.5,5.6c-0.9,1.4-1.7,2.9-2.1,4.5
		c-0.3,1.3-0.5,2.7-0.4,4c-0.7,1.2-1.2,2.4-1.5,3.8c-0.2,0.7-0.3,1.4-0.4,2.1c-0.3,0.6-0.5,1.1-0.6,1.7c-0.4,1.4-0.4,2.8-0.2,4.2
		c-0.4,0.3-0.8,0.7-1.2,1c-1,1-1.7,2.1-2.2,3.4c-0.6,1.5-0.8,3-0.7,4.5c-1.1,1-2,2.3-2.6,3.7c-0.5,1.3-0.8,2.6-0.7,4
		c0,0,0,0.1,0,0.1c-1.2,1.3-2.1,2.9-2.7,4.6c-0.5,1.3-0.7,2.6-0.8,4c-0.8,1.1-1.4,2.3-1.9,3.6c-0.2,0.7-0.4,1.4-0.6,2.1
		c-0.3,0.5-0.6,1.1-0.8,1.7c-0.9,2.6-0.7,5.3,0.4,7.8c0.2,0.5,0.5,1,0.9,1.4c-1.2,1-2.3,2.1-3.1,3.5c-1.1,1.7-1.9,3.6-2.2,5.6
		c-0.2,0.9-0.2,1.8-0.2,2.7c-0.3,0.7-0.5,1.4-0.6,2.1c-0.3,1.8-0.1,3.7,0.5,5.3c-0.9,1.8-1.5,3.8-1.7,6c-0.3,4.2,1,8.1,3.7,11.3
		c0,0,0.1,0.1,0.1,0.1c-2.8,3.2-4.2,7.2-3.9,11.4c0.1,1.5,0.4,2.9,0.9,4.4c0.1,0.3,0.2,0.6,0.4,0.9c-0.1,0.3-0.2,0.5-0.2,0.8
		c-0.3,1.3-0.3,2.5-0.2,3.8c-0.9,0.6-1.6,1.4-2.3,2.3c-1.6,2.2-2.2,4.9-1.7,7.6c0.5,2.7,1.9,5.1,4.1,6.6c1.1,0.8,2.4,1.4,3.8,1.7
		c0.1,0.3,0.3,0.7,0.4,1c0,0.8,0.1,1.6,0.3,2.4c0.5,1.8,1.4,3.4,2.7,4.6c-0.1,2.1,0.2,4.2,1,6.2c0.8,2.1,2,3.9,3.5,5.4
		c-0.1,0.7-0.1,1.4,0,2.2c0.2,1.4,0.6,2.6,1.2,3.8c0.6,1.1,1.4,2,2.3,2.8c0.2,1.2,0.6,2.3,1.2,3.4c0.6,1.1,1.4,2,2.3,2.8
		c0.2,1.2,0.6,2.3,1.2,3.4c0.7,1.2,1.6,2.2,2.6,3.1c1.1,0.8,2.3,1.5,3.7,1.8c0.8,0.2,1.7,0.3,2.6,0.3c0.4,0,0.8,0,1.1-0.1
		c1.4-0.1,2.7-0.6,3.9-1.3c0.1,0,0.1-0.1,0.2-0.1c2.3,4.2,7,7.7,10.8,9.1c2.9,1,6.1,1,9.3,0.9c27.4-0.4,54.8-0.9,82.3-1.4
		c2,1.1,4.4,1.4,8.3,1.7c9.7,2.1,21,2.2,30.9,2.6c11.8,0.4,23.7,0,35.5-0.4c7.2-0.3,16.2-1.9,18.3-10.1c0,0,0-0.1,0-0.1
		c0.6-1.8,0.8-3.8,0.7-6c0-2.6-0.2-6-1.5-8.9c-0.3-0.7-0.7-1.5-1-2.3c-0.6-1.4-1.3-2.9-1.9-4.3l-1.5-38.1c1.9,0.2,4.5,0.4,7.2,0.4
		c5.4,0,13-0.6,17.2-5.9c2.7-3.4,3.6-7.4,3.9-11.5c0.1-1.6,0.1-3.3,0.1-4.9C256.8,246.5,256.7,233.7,256.4,221z M63,135.8
		C63,135.8,63,135.8,63,135.8c0,0-0.1,0-0.1-0.1C62.9,135.8,62.9,135.8,63,135.8z M58.8,32.9c-0.1,0-0.2,0-0.3,0c0,0-0.1,0-0.1,0
		C58.5,33,58.7,32.9,58.8,32.9z M61.1,339.5l-3.7,0.1L61.1,339.5c0.7,0,1.5,0,2.2,0C62.6,339.5,61.8,339.5,61.1,339.5z M63.4,144
		C63.4,144,63.4,144,63.4,144C63.4,144,63.4,144,63.4,144C63.4,144,63.4,144,63.4,144z M64.5,155.6c0,0,0.1,0,0.1,0c0,0,0,0,0.1,0
		C64.7,155.6,64.6,155.6,64.5,155.6z M64.8,154.7L64.8,154.7c0-0.1,0-0.1,0-0.3C64.8,154.5,64.8,154.6,64.8,154.7z M65,155.8
		c0,0,0.1,0,0.1,0c0,0,0,0,0,0C65.1,155.7,65,155.7,65,155.8z M71.8,24.1C71.8,24,71.9,24,71.8,24.1c0.1,0,0.1,0,0.1,0
		C71.9,24,71.8,24,71.8,24.1z M79.2,16.8c0.1,0,0.1,0,0.2,0c0.1,0,0.2,0,0.4,0C79.6,16.8,79.4,16.8,79.2,16.8z M86.4,9
		C86.4,9,86.4,9,86.4,9C86.4,9,86.4,9,86.4,9C86.4,9,86.4,9,86.4,9z M110.2,14.1C110.2,14.1,110.2,14.1,110.2,14.1
		C110.3,14.1,110.3,14.1,110.2,14.1C110.3,14.1,110.2,14.1,110.2,14.1z M112.3,14.4C112.3,14.4,112.3,14.4,112.3,14.4
		C112.3,14.4,112.3,14.4,112.3,14.4C112.3,14.4,112.3,14.4,112.3,14.4z M148.1,338.1C148.1,338,148.1,338,148.1,338.1
		C148.1,338,148.1,338,148.1,338.1c0,0.1,0.1,0.2,0.1,0.3C148.2,338.2,148.1,338.2,148.1,338.1z M154.2,340.3c-0.4,0-0.7,0-1.1,0
		C153.6,340.3,153.9,340.3,154.2,340.3C154.3,340.3,154.3,340.3,154.2,340.3z M173.5,324c-0.4-0.1-0.7-0.3-1.1-0.4
		C172.8,323.8,173.2,323.9,173.5,324C173.5,324,173.5,324,173.5,324z M186.5,342.7c-0.2,0-0.5,0-0.7,0c0.4,0,0.7,0,1,0
		C186.7,342.7,186.6,342.7,186.5,342.7z M205.7,342.4c0,0-0.1,0-0.1,0c0.1,0,0.3,0,0.4,0C205.9,342.4,205.8,342.4,205.7,342.4z
		 M219.4,341.6c-0.1,0-0.2,0-0.3,0c0.1,0,0.3,0,0.4,0C219.5,341.6,219.4,341.6,219.4,341.6z M235.7,272.5c-0.2,0-0.3,0-0.4,0
		c0.3,0,0.6,0,0.9,0C236,272.5,235.9,272.5,235.7,272.5z"/>
	<path class="st0" d="M33.7,53.7C33.7,53.7,33.6,53.7,33.7,53.7C33.6,53.7,33.6,53.7,33.7,53.7C33.7,53.7,33.7,53.7,33.7,53.7z"/>
</g>
<g>
	<g>
		<path class="st1" d="M174,323.3c-7.9,3.2-15.6,2.1-22.4,7.9c-1.2,1-4.9,4.3-4.4,6c0.9,2.9,7.1,2.1,9.4,2.2
			c8.6,0.2,17.5,1.3,26.1,1.5c1.6,0,9.7,0.9,9.9-1.2c0.6-5.5-10.8-9.6-13.5-12.4"/>
		<path class="st1" d="M81.7,321.7c-8.8-0.2-18.7,3.7-25.5,9.1c-0.7,0.5-6.1,5.6-5.5,6.4c1.4,2,8.1,0.5,10.1,0.7
			c8.6,0.9,17.8-0.7,26.6-0.5c1.5,0,7.2,1.1,8.1-0.7c1.3-2.5-5.6-6.7-6.9-7.4"/>
		<path class="st1" d="M71.3,301.3c-1-2.4-6.4,1.5-8.4,2.7c-1,0.6-7.5,0.7-7.1,1.8c2,6.6,7.5,13.6,13.2,16.6
			c0.5,0.3,11.2,0.9,11.3,0.3c0.2-1-3-4.7-3.5-5.6C73.9,312.6,73.2,306.2,71.3,301.3z"/>
		<path class="st1" d="M122.9,231.9c-0.1-0.2-0.3-0.4-0.4-0.7"/>
		<path class="st1" d="M117.8,196.8c-1.6,7.5-0.9,4.5-0.6,12.3c0.2,5,3.3,31.7,2.5,35.7c-0.8,4-6,6-4.1,13.3
			c1.7,6.6,18.6,16.2,24.3,19c8,3.9,25.7-9.9,34.6-9.8c6.5,0.1,17.8,1.9,23.5-0.4c3.8-1.5,4.6,3.6,8.7,4c6.1,0.6,14.8-0.2,20.9,0.4
			c3.8,0.4,14.5,1.3,17.3-2.1c1.9-2.4,0.9-10.2,0.7-12.9c-0.4-5.9,0.5-12.1,1.1-17.9c1.2-12.3-1.7-24.4-1.6-36.8
			c0-3.5,1.7-12.7-0.8-15.4c-2.5-2.9-16.5-1.2-20.5-1.4c-19.2-0.8-36.2-0.1-55.4-0.3c-12.3-0.1-26.4-1-38.6-0.5
			c-4.9,0.2-11.2-4.7-10.9,2.4"/>
		<path class="st2" d="M64.7,38.9c-2.5,0-9.2,12.8-10.6,15.5c-11.1,19.4-7,42,1.8,61.3c2.3,5,1.2,6.5,3.5,11.1
			c1.1,2.1,4.8,7.1,4.8,9.4c0,0.5,0,1.5,0,1.5s-0.7-3.7-1.5-5.3c-0.3-0.5-1.3-1.5-0.8-1.5c0.3,0,0.7,0.8,0.8,1
			c2.4,6.1-0.3,13.9,1.3,20.3c1.1,4.4,9.5,9.7,14.2,10.9c17.6,4.4,35.3-0.3,52.9-0.3c4.4,0,17.1,1.4,20.8-2.3
			c3.1-3.1,4.1-7.1,6.6-10.6c3.4-4.7,11.3-10.5,16.7-12.7c5.6-2.3,12.7-0.9,18.2,0.5c1.4,0.4,5.7,2.2,7.1,0.8
			c2.3-2.3,3.4-9,2.8-11.9c-1.5-7.7-1-19.1-2.5-26.6c-1-5.1-2.9-10-4.8-14.9c-7.5-19.5-18-35.3-34.7-47.5c-4.2-3-11.2-8.4-16-10.8
			c-4.6-2.3-9.8-2.2-14.4-4.6c-6.1-3-12.7-7-19.3-8.6c-1.6-0.4,0.7,2.5,0.5,2.8c-0.2,0.4-4.3,0.4-4.8,0.3c-5.5-1.1-11-1-16.2-3.3
			c-0.9-0.4-4-3.6-5.1-3.3c-3.1,1,1.5,9.6,1.5,9.6s-0.4-0.7-0.8-1c-1.5-1.2-4.9-2.1-6.8-2.5c-4.1-0.8-5.9,1.8-9.4,2.5
			c-0.5,0.1-4.6,1.2-4.6,1.3c0,0.9,6.6,1.9,6.6,2.8c0,0.8-1.4,0.5-1.8,0.5c-1.9,0.3-13,4.9-12.2,7.3c0.4,1.1,6.2,1.1,7.3,1.8
			c0.3,0.2,1,0.3,1,0.3s-4.6,0.7-6.8,1.3c-2.8,0.7-8.6,7.1-3.5,7.1"/>
		<path class="st2" d="M217.8,272.3c-1,0.3-4.3,9.4-4.7,12.9c-0.9,6.9,2.1,15.3,3,22.1c0.8,6.7,5,15.2,7.7,21.4
			c1,2.1,0.9,6.8,0.3,9.1c-1.1,4.3-26.5,4.2-29.9,2.8c0,0-7.9-9.8-10.4-11.7c-2.2-1.6-0.6-1.9-5.5-4c-3.1-1.3-6.9-1.3-9.7-4.2
			c-2.7-2.7-4.2-8.9-7.2-10.9c-2.9-2-5.2-0.5-14.7,1.5c-9.5,2-16.4,1.6-25.6-0.7c-1.6-0.4-1.3,2.7-0.5,6.2c0.9,3.9,2.5,8.3,3.1,9.2
			c0.5,0.7,4.9,5.8,3.7,7c-2.4,2.4-19.6,4.8-22.5,4.8c-3.2,0-6.2-1.4-9.4-0.8c-0.7,0.1-2.2,0-2.2,0s1.7,0.7,1.5,0.2
			c-0.3-1-2.3-2.6-3-3.5c-2.5-3.3-6.5-7.9-9.3-10.8c-2.4-2.4-3.1-4.6-4.6-7.6c-2.2-4.5-3.7-10-5-14.9c-0.3-1.1-0.6,1-1.2,0
			c-2.5-3.7-11.6,10-16.9,4.7c-2.5-2.5-6.1-7.9-6.7-10.9c-1.5-7.4-2-16.1-2-23.9c0-1.3-0.5-7.6,0.2-8.2c1.6-1.2,4.8-0.5,6.7-0.5
			c6.3,0,11.6-0.5,17.9,1.2c4.2,1.1,7.6,3.8,11.9,4.2c6.8,0.7,13.6-1.1,20.4-0.5c6.5,0.5,12.1,1.6,17.7,0.5c1.3-0.3,8.3,7.3,9.2,6.4
			c1-1-1.8-13.8,0.3-14.3c3.7-0.9,6.7,2.7,10.2,3.4c8.6,1.7,18.2,2.3,26.1-2.5c3.5-2.1,7.1-5.3,8.5-8.7c1.5-3.8,1.3-7,2.7-10.9
			c1.8-4.9-0.4-12.1-1.4-17.1c-0.6-3.2-3.5-11.7-1.9-15c2.8-5.6,20.8-14.7,26.9-16.2c5.5-1.3,11.8-2.4,17.4-1
			c6.9,1.7,7.8,7.5,9,12.3c4,16,3.2,32.4-4.3,49.1c-2,4.4-3.1,8-7,10.9c-0.9,0.7-5.2,5.9-5.4,6.3c-0.4,0.7,5.3,0.4,5.5,0.5
			c4.5,1.5,0.6,3.5-0.8,8.1"/>
		<path class="st3" d="M64.1,155.3c-0.2-2.6-6.1,4.6-4.3,7c0.8,1,2.1,1.7,2.7,2.7c0.4,0.5-0.5,1.2-0.7,1.5
			c-3.2,4.3-5.3,9.1-7.2,13.9c-2.1,5.2-3.4,9.8-4.2,15.4c-0.5,3.5,2.3,7.1,1.5,10.2c-2.1,8.4-7.8,8.5-10.2,25.1
			c-0.9,5.8-3.5,12.7-3.5,18.7c0,1-0.5,5,0.5,5.7c13.1,9.6,32.3,10.7,50,10.7c3.6,0,7,2.9,10.5,2c5.2-1.3,10.4-0.9,15.6-2.2
			c0.7-0.2,4.3,0.7,4.3,0c0-0.2-4-4.9-4.3-6c-1.9-7.6,1.2-10.3,5-15.9c1.4-2.1-0.4-9.4-0.7-11.7c-1.7-10.1-0.6-18.6-2.1-28.8
			c-0.3-1.8-1.2-12.2,1-12.8c2.1-0.5-0.4-5.5,1.7-6.1c8.2-2.1,17.4,0.2,25.9-1.3c1.4-0.2,12.2-1.4,13.5-0.1c1.1,1.1,2.2,5,2.9,6.7
			c1.5,3.6,2.7,7.6,4.4,11.1c1.6,3.2-0.1,13.3,6.3,8.8c32.1-22.1,54.4-10.2,54.4-10.6c-0.1-16.7-3.5-37.6-12.4-49.4
			c-4-5.3-9.5-12.4-16.7-14.2c-4.1-1-8.6-5-13.2-3.7c-8.7,2.5-20.3,6.3-25.8,13.8c-1.8,2.4-4.5,8.5-7,10.2c-1.1,0.7-2.6,1.2-4,1.4
			c-6.9,1.4-14,1.1-20.9,2.5c-14.8,3-26.5,1.7-41.3-1.2c-2.4-0.5-8.1,0.2-10.4-0.2c-2.9-0.5-5.3-0.5-8.2-1.2
			C63.9,156.5,64.1,155.6,64.1,155.3z"/>
		<path class="st4" d="M52.7,78.2c2.1-8.6,7.4-18.4,15.2-19.8c9.1-1.7,16.6,5.6,25.4,5.3c1.6-0.1,4.8-1,5.8-2.5c0.9-1.3,0-3.2,0-3.2
			c1.4,0.4,2.8,2.4,4.5,2.9c6.6,1.9,13.4-3.9,19.4-5.7c19.9-6,35.4-3.9,46,15.3c2.4,4.3,6,14.2,3.6,25.2
			c-3.6,16.1-5.5,22.8-22.9,34.8c-20.7,14.3-63.6,21.4-85-5.6C54.5,112.3,48.7,94.4,52.7,78.2z"/>
		<path class="st5" d="M92.7,85.6c-7.2-3.6-13.1,14.6-12.5,19.9c2,18,28.3,17,40.4,10.9c17.6-8.8-3.9-37.1-16.5-32.1"/>
		<path class="st5" d="M52.7,78.3c-3.9,7.1,0.5,28.5,3.5,30.7c2.3,1.7,18.1-10.2,22.6-17.8c1.2-2,7.3-14.9,5-17.2
			c-1.3-1.3-18.3,1.1-20.9,1.6C59.3,76.4,54.3,75.3,52.7,78.3z"/>
		<path class="st5" d="M118.7,75c0.9,29.3,43.8,44.9,48.9,37.6c3.2-4.7,9.6-26.6,1.2-41.4c-0.8-1.4-10.2,1.7-11.7,1.9
			C144.5,75.1,118.3,62.2,118.7,75z"/>
		<line x1="70.8" y1="273.1" x2="70.7" y2="279.1"/>
		<line class="st6" x1="70.8" y1="273.1" x2="70.7" y2="279.1"/>
		<line x1="77.3" y1="276.7" x2="77.2" y2="282.6"/>
		<line class="st6" x1="77.3" y1="276.7" x2="77.2" y2="282.6"/>
		<line x1="83.4" y1="280.6" x2="83.4" y2="286.6"/>
		<line class="st6" x1="83.4" y1="280.6" x2="83.4" y2="286.6"/>
		<line x1="200.2" y1="210.7" x2="200.2" y2="216.7"/>
		<line class="st6" x1="200.2" y1="210.7" x2="200.2" y2="216.7"/>
		<line x1="207.3" y1="212.8" x2="207.2" y2="218.8"/>
		<line class="st6" x1="207.3" y1="212.8" x2="207.2" y2="218.8"/>
		<line x1="73.7" y1="142.6" x2="73.7" y2="148.5"/>
		<line class="st6" x1="73.7" y1="142.6" x2="73.7" y2="148.5"/>
		<line x1="79.6" y1="145.6" x2="79.6" y2="151.6"/>
		<line class="st6" x1="79.6" y1="145.6" x2="79.6" y2="151.6"/>
		<path class="st0" d="M132.1,76.2c0,2.7,0.5,4.5,1.4,5.7c2.7,3.5,8.8,1.6,14.9,0.5c6.6-1.1,8.1-5.2,9.3-7.7"/>
		<path class="st0" d="M53.6,74.7c-5.6,14.6,17.6,13.1,21.9,2"/>
		<path class="st7" d="M51.7,40.7c4.3,0,7.9-1.2,12.1-2.1c1.2-0.3,3.6-1.5,3.6-0.4c0,0.3-0.5,0.2-0.7,0.4c-3.6,2.1-6.5,5.2-8.5,8.9
			c-0.7,1.3-2.6,4.8-2.1,3.9C72.3,22,190.5,11,183.6,130.3c-0.1,1.1-1.4,2.9-0.4,3.2c2.1,0.7,5.5-1.3,8.2-0.4
			c1.2,0.4,9.8,5.2,10.7,4.6c1.5-1,0.4-6.7,0.7-8.5c6-40.2-40.4-94.1-44.4-96.3c-15.3-8.5-46.6-18-47.3-18.1c-0.1,0-2.9,1.7-4.3,1.4
			c-5.1-0.9-10.9-2.8-16-4.3c-0.8-0.2-5.5-3.9-5.7-3.6c-0.6,1.2-0.9,7.6-0.4,8.5c0.4,0.7,2.9-0.4,2.1-0.4c-6.6,0-14.9,2.1-22,3.6
			c-0.3,0.1-0.7,0.1-0.7,0.4c0,2,9.2,0.7,9.2,2.1c0,1-12.8,4.6-14.6,6c-0.5,0.4-2.6,2-2.1,2.5c1.7,1.7,5.9-0.4,8.2,0.7"/>
		<path class="st7" d="M200.5,277.5c-11.8,4.5,7.2,55,4.4,54.7c-32.9-2.6-53,4.8-53,6c0,1.1,5.7,0.8,6.8,1.1
			c6.6,1.7,23.1,2.9,29.9,2.5c12.5-0.8,16.3-1.1,28.8-1.1c1.6,0,3.4,0.1,4.7-0.8c5.2-3.5-4.8-20-5.4-25.2c-1-8.3-2.9-22.8-1.8-30.9
			c0.4-2.6,4.7-9.4,4.2-11.9C218.1,266.8,202,276.9,200.5,277.5z"/>
		<path class="st7" d="M170.1,138.5c-0.7,0.3-1.5,0.6-2.1,1.1c-1.1,0.7,2.6-0.4,3.9-0.4c3,0,58.2,25.5,40,103.4
			c-5.6,24.1-29.3,34.2-45.8,34.5c-14.9,0.3-29-4.8-35-8.7c-0.2-0.1,0.1,5.6,0.3,5.7c1.4,0.5,14.2,7.7,27.8,9.2
			c4.2,0.5,8.1-0.8,12.3-0.5c11.4,0.8,14.5,0,25.3-3.3c3.9-1.2,8-5.6,11.3-7.6c6.7-4.1,12-10.1,15.6-19.3c2-5.3,4.3-10.5,5.1-15.7
			c2-12.9,1.8-24.6-1.3-36.9c-1.6-6.2,2.8,5.1,1.5-3.5C222.5,154.1,207.3,121.5,170.1,138.5z"/>
		<path class="st8" d="M104.7,309.5c0,0.2,0,0.5,0,0.7"/>
		<path class="st7" d="M74.9,296.7c-1.7-1.6-2.3,7.2-2.3,8c0.5,6.8,3.5,12.6,7.6,18c0.2,0.2-0.8-1.6-0.9-1.4
			c-0.3,0.8-4.7,2.6-5.5,2.8c-2.5,0.5-26,9.3-22.8,14.2c0.1,0.1,24.3-0.4,26.3-0.4c13.2,0,23.4,0,36.6,0c1.9,0,11.5-2.8,12.6-4.4
			c1.5-2.2-3.3-10.1-4-12c-0.4-1-2.3-10.5-2.5-10.6c-4.2-2.8-13.4-1.7-18.1-2.9C94.2,306.1,80.6,302.2,74.9,296.7z"/>
		<path class="st7" d="M47.8,260.9c1.3,3.5,0.9,9,2,11.3c1.8,3.7,1.4-1.4,4.5,1.4c1.6,1.5,1.8,13.3,5,12.3c3.6-1.1,14,10.1,15.6,9.6
			c0.5-0.2-1.3,2.8-0.7,2.5c0.7-0.4-1.2-0.1-1,0.7c0.2,1.7-0.8,5.3-0.3,7c0.4,1.8,7.3,15.9,6.8,16c-6.8,1.7-12.4-0.5-14.3-2.5
			c-11.1-11.1-19.7-29.6-18.2-46.7C47.3,270.4,47.1,259,47.8,260.9z"/>
		<path class="st7" d="M45.5,219.3c-1.4,3,4.6-7.1,6.6-8.4c4.3-2.7,10.8-2.8,15.6-2.8c12.4,0,22.6,11.7,35.9,11.7
			c3.4,0,13.3-1.9,10.3-7.8c-1.6-3.3-9.4-2.5-12.4-2.5c-12.7,0-24.2-1.5-36.6-3.6c-3-0.5-10.1-0.5-12.6-5c-0.6-1.2-2.8,8.4-3.3,9.2
			C46,214.5,47.9,214.1,45.5,219.3z"/>
		<path class="st8" d="M248,174.8"/>
		<path class="st9" d="M248,174.8"/>
		<path class="st7" d="M171.4,305.8c-1-1.2,12.4-10.9,9-9.8c-82.8,26.5-116.3-11-117.2-9.8c-0.3,0.4,4.6,4.3,4.9,4.7
			c5.3,5.8,10.4,8.8,17.5,12.4C124.3,322.5,172.7,307.3,171.4,305.8z"/>
		<path class="st9" d="M66.3,37.6c-4.8,3.2-7.7,8.5-10.9,13.1c-15.9,22.5-7.5,51.1,3.8,73.7c1,2,2.4,4.3,2.7,6.5c0.2,1.1-0.5,3,0,4
			c0.2,0.4,1.2-1.1,1.3-0.6c0.3,2.1,0,4.5-0.2,6.5c-0.1,0.8-1,2.9-0.4,2.3c0.2-0.2,0.7-1.9,1.5-1.7c0.4,0.1,0,11.3-0.2,12.4"/>
		<path class="st9" d="M64.8,38.3c-2.4,1.2-3.9,1.2-6.3,1.9c-1.2,0.3-2.2,0.8-3.4,1.1c-1.1,0.2-2.3,0.3-3.4,0.6
			c-0.5,0.1-1.5,0.9-1.5,0.4c0-1.6,12.7-8.7,15.2-9.5c0.4-0.1,0.9-0.1,1.1-0.4c0.2-0.5-1-0.5-1.5-0.6c-2.4-0.6-8.1,1.3-10.1-0.2
			c-0.5-0.4,3.8-3,4-3.2c2.6-1.5,5.3-3.4,8.2-4.2c1.7-0.5,5.3,0.7,5.3-1.1c0-2.1-9.6-1.4-10.3-2.1c-0.1-0.1,0.3-0.1,0.4-0.2
			c2.2-1.1,4.6-2,6.9-2.5c4.4-1,12.1-2.1,16.4-0.6"/>
		<path class="st9" d="M86.5,18.7c-1.2-2.5-3.5-6.6-2.3-9.5c0.1-0.2,1-1.2,1.3-1.1c0.9,0.4,1.5,2,2.5,2.5c4.2,2.2,8.8,3.8,13.5,4.8
			c2.7,0.6,5.5,0.9,8.2,1.5c0.6,0.1,1.9,0.2,1.9,0.2s-3.7-3.3-2.3-4c0.2-0.1,10.8,3.8,11.8,4.2c7.6,2.9,15.2,4.7,22.4,8.2"/>
		<path class="st9" d="M48.1,261.9c-0.2,7.4,3.7,14.7,3.7,14.7s1.6-4.8,2.4-3.5c0.9,1.5,4.4,14.5,6.7,13.8c0.1,0,0-3.5,0.2-3.3
			c0.8,0.4,5.5,6.7,7.1,7.9c5.7,4.3,12.5,7.9,19.1,10.8c24.5,10.7,60.9,15,85.3,2.8"/>
		<path class="st9" d="M72.6,294.7c-2.3,7.1,3.2,22.2,8.8,27.7"/>
		<path class="st9" d="M120.3,311.8c0.2,5,2.2,15.7,6.3,19.7"/>
		<path class="st9" d="M80.5,322.2c-12.9-0.4-27.7,11.7-28.7,12.8"/>
		<path class="st9" d="M93.2,337.9c5.4,0,11.9-0.4,17.3-0.6c3.2-0.1,17.5-0.6,16.7-4.9"/>
		<path class="st9" d="M160.9,309.9c2.7,6.1,6.9,11.4,13.4,13.6"/>
		<path class="st9" d="M218.1,272.3c-7.5,15.1-2.4,35.6,2.5,50.6c1.4,4.4,7.9,15.2,0.3,17.2"/>
		<path class="st9" d="M173.5,323c-18.2,3.2-25.3,9.6-29.6,15"/>
		<path class="st9" d="M144.1,338.3c1.9,1.6,75.4,3.9,77.1,1.7"/>
		<path class="st9" d="M121.8,244.4c-2.3,9.5,12.8,18.3,20.9,19.6c23.4,3.7,38.1-7.6,34.6-33.8c-0.8-5.8-1.7-15.3-4.8-20.4"/>
		<path class="st9" d="M121.3,242.8c-10.9,12.8-7,20.4,5.8,28.4"/>
		<path class="st9" d="M124.5,269.6c5.4,4.2,60.3,34.5,94.4-8c13.3-16.6,12.9-36.4,8.2-62.1"/>
		<path class="st9" d="M131.4,20.7c52.8,17.5,72,73.5,72,110.8"/>
		<path class="st9" d="M47.4,261.7c0,19.6-1.6,33.1,10.5,49.9c3,4.2,9.4,11.6,15.3,11.6"/>
		<path class="st9" d="M54.9,304.9c7.4,1.2,11-2.8,17.1-5.8"/>
		<path class="st9" d="M62.7,304.2c0,5.4,10.3,16.4,16.3,16.4"/>
		<path class="st9" d="M130.2,259.5c-2,4.9-0.3,8.3-0.3,12.7"/>
		<path class="st9" d="M116,251.4c0,7.7,6.8,12.4,12.7,15.3"/>
		<path class="st9" d="M81.9,322.6c5.4,3.6,9.9,7.8,12.7,13.6"/>
		<path class="st9" d="M174.2,323.2c8.1,3.3,15.2,9.3,19.1,17.1"/>
		<path d="M50.5,338.3c5.1,1.2,47.2-1,49.6-0.6"/>
		<path class="st10" d="M50.5,338.3c5.1,1.2,47.2-1,49.6-0.6"/>
		<polyline points="52.2,334.5 51.6,334.8 50.6,336.2 50.2,337.3 50.5,338.3 		"/>
		<polyline class="st10" points="52.2,334.5 51.6,334.8 50.6,336.2 50.2,337.3 50.5,338.3 		"/>
		<path class="st9" d="M50.9,338.2c5-4.1,27.4-12.5,35.8-11"/>
		<path class="st9" d="M145.9,338.1c7.7-3.9,17.2-6.7,26.5-7.8c4.1-0.5,8.1-0.7,11.9-0.5"/>
		<path class="st9" d="M64.3,155.6c41.2,11.8,83.1,3.4,87.7,1.1"/>
		<path class="st9" d="M64.3,155.7c0.5-2.7-2.9,2.1-3.5,3.5c-0.9,2,1.1,3.8,1,4.8c-0.1,1.2-2,4-2.5,5.3c-3.7,10-12.6,22.8-7.1,33.6"
			/>
		<path class="st9" d="M38.6,256.9c17.6,10.4,56.2,12.7,81.6,9.7"/>
		<path class="st9" d="M37.9,256.4c-1.9-12,2.6-27.3,7-38.4c1.8-4.6,5.2-9.1,6.7-13.8"/>
		<path class="st9" d="M203.2,130.3c0.2,1.1-0.1,2.7-0.2,4.2"/>
		<path class="st9" d="M224.9,199c5.7,1.9,3.1-5.7,2.7-8.6"/>
		<path class="st9" d="M210.4,143.6c1.9,2.7,3.7,5.6,5.4,8.4c5.6,9.5,11,31.9,12.5,43.7"/>
		<path class="st9" d="M172.7,210.1c-7.2,1-6.8-2.6-6.5-8.5"/>
		<path class="st9" d="M150.3,173.7c4.9,4.5,10.5,10.9,12.7,17.4c1.1,3.3,1.8,7.9,3.3,11"/>
		<path class="st9" d="M159.3,184.2c-0.5-3.8-1-8.6-2.6-11.9"/>
		<path class="st9" d="M193.9,133.6c-26.6-6.1-43.4,23.1-42,24.2"/>
		<path class="st9" d="M211.3,145c-5-6.4-9.1-8.8-17.2-11.3"/>
		<path class="st9" d="M203.4,132.1c0.2,1.4,0,2.7,0.2,4.1"/>
		<line class="st11" x1="116.1" y1="72.8" x2="172.6" y2="71.8"/>
		<polyline class="st11" points="89.5,73.9 71.3,74.2 40.6,74.7 		"/>
		<path class="st12" d="M130,76.7c4.2,12.6,26.1,8.6,26.5-1.6"/>
		<path class="st12" d="M52.9,78.6c-1.8,9,23,9.7,23-1.6"/>
		<path class="st13" d="M88.4,85.6c-0.1-2.7,5.2-5.2,11.9-5.5c6.7-0.3,12.3,1.6,12.4,4.3c0.1,2.7-5.2,5.2-11.9,5.5
			C94.1,90.3,88.5,88.3,88.4,85.6z"/>
		<path class="st12" d="M145.7,74.7c0.2-0.2,0.5-0.3,0.7-0.5"/>
		<path class="st12" d="M100.6,90.8c0,10.1,5.7-1.8,13.7,2.2"/>
		<path class="st9" d="M167.2,201.9c9.8-9.1,26.9-16.6,43.1-13.8"/>
		<path class="st9" d="M133.6,168.9c-11.7,4.1-57.1,3.8-71.4-5.6"/>
		<path class="st9" d="M70.7,157.7c-0.6,1.7-1.2,3-1.2,4.9"/>
		<path class="st9" d="M81.2,159.8c-0.8,1.6-0.9,3.6-0.9,5.4"/>
		<line class="st9" x1="93.8" y1="161.4" x2="93.1" y2="165.6"/>
		<polyline class="st9" points="102.6,162.6 102.6,163.3 102.6,163.8 102.6,164.5 102.6,164.9 102.6,165.4 102.6,165.9 		"/>
		<path class="st9" d="M175,196.9c0.5,1.6,1.2,2.7,2.1,4.2"/>
		<line class="st9" x1="183.8" y1="192.7" x2="185.5" y2="196.4"/>
		<line class="st9" x1="192.5" y1="189.7" x2="193.2" y2="193.6"/>
		<polyline class="st9" points="97.7,162.8 97.7,163.3 97.7,163.8 97.7,164.2 97.7,164.7 97.7,165.2 		"/>
		<polyline class="st9" points="132.5,161.4 132.5,161.9 132.5,162.4 132.5,163.3 132.5,163.8 		"/>
		<polyline class="st9" points="136,161.4 136,162.1 136,162.8 136,163.3 		"/>
		<path class="st14" d="M64.3,77.3c0-2.2,1.8-4,4-4c2.2,0,4,1.8,4,4c0,2.2-1.8,4-4,4C66.1,81.3,64.3,79.5,64.3,77.3z"/>
		<path class="st14" d="M145.1,75c0-2.2,1.8-4,4-4c2.2,0,4,1.8,4,4c0,2.2-1.8,4-4,4C146.9,79,145.1,77.2,145.1,75z"/>
		<path class="st15" d="M118.7,246l-1.2-55.5c0-3.9,3.7-7,8.2-7c0,0,15.4,0.4,33.6,0.7"/>
		<path class="st15" d="M227.8,183.9c6.3-0.1,9.9-0.2,9.9-0.2c4.5,0,8.2,3.1,8.2,7l1.1,72.7c0,3.9-3.7,7-8.2,7l-28.5,0.1"/>
		<path class="st14" d="M139.6,79.4c-0.3,0-0.6-0.1-0.9-0.1"/>
		<g>
			<defs>
				<rect id="SVGID_1_" x="31.2" y="185.5" width="87.4" height="60.5"/>
			</defs>
			<clipPath id="SVGID_00000098924960877075390170000011688579939955351724_">
				<use xlink:href="#SVGID_1_"  style="overflow:visible;"/>
			</clipPath>
			<g style="clip-path:url(#SVGID_00000098924960877075390170000011688579939955351724_);">
				<g>
					<path class="st14" d="M69.8,194.8c7.2,0.2,13.3,0.3,19.1,0.6c4.7,0.3,5.7,3.7,4.7,6.9c-1.4,4.4-5,7.4-10,8.8
						c-0.3,0.1-0.5,0.1-1.1,0.2c3.8,2.9,2.2,8.6,5.1,13.8c-3.7-0.2-7-0.5-10.5-0.7c-1.7-3.3-2.5-6.6-2.8-9.7c-0.2-1.7-0.7-3-3.6-2.5
						c-2.1,3.7-3.7,7.5-3.5,11.8c-3.3-0.1-6.4-0.2-9.7-0.2C58.1,212.9,66.8,205.1,69.8,194.8z M77.4,201c-0.9,1.9-1.9,3.7-3.2,5.8
						c2.1-0.1,4,0,6-0.2c1.8-0.2,3.2-1.2,4-2.6c0.8-1.5,0.4-2.7-1.2-2.9C81.3,200.9,79.4,201,77.4,201z"/>
					<path class="st14" d="M120.4,204c-3.2,0.2-6.1,0.3-9,0.5c0.4-2.6-0.7-3.9-3-4c-1.5-0.1-2.9,0.4-4,2.2c-0.4,1.5,0.3,2,1.3,2.3
						c1.9,0.6,3.8,1.2,5.7,1.8c1.1,0.4,2.1,0.8,3.1,1.4c6.3,3.4,2.9,12.2-3.2,16.2c-2,1.3-4.4,2.1-6.5,2.4c-3.5,0.5-6.9,0.2-10.2-1
						c-4.3-1.5-6.8-5.6-4.9-10.5c2.8,0,5.5,0,8.5-0.1c0,0.6-0.1,1.2-0.1,1.7c0.1,3,2.9,4.5,6.1,3.5c1.4-0.5,2.6-1.4,3.1-2.8
						c0.4-1.3,0-2.3-1-2.8c-0.9-0.5-1.8-0.8-2.7-1.1c-1.9-0.7-3.8-1.3-5.5-2.2c-3.1-1.8-3.5-4.6-2-7.9c1.7-3.7,4.6-6.7,8.5-7.8
						c3.7-1.1,7.4-1.1,11.2,0.2C119.7,196.9,121.4,199.4,120.4,204z"/>
				</g>
			</g>
		</g>
	</g>
	<g>
		<path d="M28.7,324.1c-0.3-0.5-0.2-1,0.2-1.5l5.1-5.6l-7.6,1.5c-0.2,0-0.4,0-0.6-0.1c-0.2-0.1-0.4-0.3-0.5-0.5
			c-0.1-0.1-0.1-0.3-0.2-0.5c0-0.2,0-0.3,0-0.5c0-0.2,0.1-0.3,0.2-0.4c0.1-0.1,0.2-0.2,0.4-0.3c0.1-0.1,0.3-0.1,0.5-0.1l11-2.1
			c0.2-0.1,0.5,0,0.7,0.1s0.4,0.3,0.6,0.6c0.1,0.2,0.2,0.5,0.2,0.7c0,0.3-0.1,0.5-0.3,0.6l-5.1,5.7l7.5-1.5c0.2,0,0.5,0,0.7,0.1
			c0.2,0.1,0.4,0.3,0.5,0.5c0.1,0.2,0.2,0.5,0.2,0.7s-0.1,0.5-0.3,0.6l-7.5,8.3c-0.1,0.1-0.2,0.2-0.4,0.3c-0.1,0.1-0.3,0.1-0.5,0.1
			c-0.2,0-0.3,0-0.5,0c-0.2,0-0.3-0.1-0.4-0.2s-0.2-0.2-0.3-0.4c-0.1-0.2-0.2-0.5-0.2-0.7c0-0.2,0.1-0.4,0.2-0.6l5.2-5.8l-7.4,1.4
			C29.4,324.8,28.9,324.6,28.7,324.1z"/>
		<path d="M24.7,299.1c1.7-0.7,3.4-0.6,5,0.1c1.7,0.8,2.8,2,3.5,3.6c0.6,1.7,0.6,3.4-0.1,5c-0.7,1.7-2,2.8-3.6,3.5
			c-1.7,0.6-3.4,0.6-5-0.1c-1.7-0.7-2.8-2-3.5-3.6c-0.6-1.7-0.6-3.4,0.1-5c0.4-0.8,0.9-1.5,1.5-2.1
			C23.1,299.9,23.9,299.5,24.7,299.1z M23.2,306.7c0.2,0.5,0.5,1,0.9,1.4c0.4,0.4,0.8,0.7,1.3,0.9c0.5,0.2,1,0.3,1.5,0.3
			s1.1-0.1,1.6-0.3c0.5-0.2,1-0.5,1.4-0.9s0.7-0.8,0.9-1.3c0.2-0.5,0.3-1,0.4-1.5c0-0.5-0.1-1.1-0.3-1.6c-0.2-0.5-0.5-1-0.9-1.4
			c-0.4-0.4-0.8-0.7-1.3-0.9c-0.5-0.2-1-0.3-1.5-0.4c-0.5,0-1.1,0.1-1.6,0.3c-0.5,0.2-1,0.5-1.4,0.9c-0.4,0.4-0.7,0.8-0.9,1.3
			c-0.2,0.5-0.3,1-0.4,1.5C22.9,305.7,23,306.2,23.2,306.7z"/>
		<path d="M18.4,296.2l0.2-0.1c-0.6-0.4-1.1-1-1.5-1.6s-0.7-1.3-0.9-2c-0.1-0.3-0.2-0.7-0.2-1.1s-0.1-0.8,0-1.1
			c0-0.4,0.1-0.7,0.3-0.9s0.4-0.4,0.7-0.5c0.2,0,0.3-0.1,0.5,0c0.2,0,0.3,0.1,0.4,0.2c0.1,0.1,0.3,0.2,0.4,0.3
			c0.1,0.1,0.2,0.3,0.2,0.4c0,0.1,0,0.3,0,0.5c-0.1,0.5,0,1.1,0.1,1.6c0.1,0.6,0.4,1,0.7,1.5s0.7,0.8,1.2,1c0.5,0.3,1,0.4,1.5,0.5
			c0.5,0.1,1.1,0,1.6-0.1l5.2-1.4c0.3-0.1,0.6,0,0.9,0.1c0.3,0.2,0.5,0.4,0.6,0.7c0.1,0.3,0,0.6-0.1,0.9s-0.4,0.5-0.7,0.6L19,298.5
			c-0.3,0.1-0.6,0-0.9-0.1c-0.3-0.2-0.5-0.4-0.6-0.8c-0.1-0.3,0-0.6,0.1-0.9C17.8,296.4,18,296.2,18.4,296.2z"/>
		<path d="M26.5,285.1l-16.1,2.7c-0.3,0.1-0.6,0-0.9-0.2c-0.3-0.2-0.4-0.5-0.5-0.8c-0.1-0.3,0-0.6,0.2-0.9c0.2-0.3,0.5-0.4,0.8-0.5
			l9-1.5l-5.7-6.2c-0.2-0.2-0.3-0.4-0.3-0.6c0-0.2,0-0.3,0-0.5c0-0.2,0.1-0.3,0.2-0.4s0.2-0.2,0.3-0.3c0.1-0.1,0.3-0.1,0.4-0.2
			c0.4-0.1,0.8,0,1,0.3l4,4.3l4.8-5.9c0.2-0.3,0.5-0.4,0.8-0.5c0.2,0,0.3,0,0.5,0c0.2,0,0.3,0.1,0.4,0.2s0.2,0.2,0.3,0.3
			s0.1,0.3,0.2,0.5c0.1,0.3,0,0.6-0.2,0.9l-5.1,6.3l1.2,1.3l4.2-0.7c0.3-0.1,0.6,0,0.9,0.2c0.3,0.2,0.4,0.5,0.5,0.8
			c0.1,0.3,0,0.6-0.2,0.9S26.8,285.1,26.5,285.1z"/>
		<path d="M19.3,270.4c-0.2,0.8-0.5,1.3-0.8,1.6l0,0c-0.6,0.6-1.2,1-2.1,1c-0.6,0-1.1-0.1-1.6-0.4s-0.9-0.7-1.3-1.1
			c-0.4-0.5-0.7-1-0.9-1.7s-0.4-1.3-0.4-1.9c-0.1-1.9,0.5-3.7,2-5.2c0.2-0.2,0.4-0.3,0.7-0.3c0.4,0,0.6,0.1,0.9,0.3s0.4,0.5,0.4,0.8
			c0,0.2,0,0.5-0.2,0.7s-0.3,0.4-0.4,0.5c-0.7,0.9-1.1,1.8-1,3c0.1,1.1,0.5,2,1.2,2.6c0.1,0.1,0.3,0.2,0.5,0.2
			c0.2,0,0.4-0.1,0.4-0.3l1.4-5.6c0.2-0.8,0.5-1.3,0.8-1.6v0c0.6-0.6,1.2-1,2.1-1c0.6,0,1.1,0.1,1.6,0.4c0.5,0.3,0.9,0.7,1.3,1.1
			s0.7,1,0.9,1.7c0.2,0.6,0.4,1.2,0.4,1.9c0.1,2-0.5,3.7-2,5.2c-0.2,0.2-0.5,0.3-0.7,0.3c-0.4,0-0.6-0.1-0.9-0.3
			c-0.2-0.2-0.4-0.5-0.4-0.8c0-0.3,0-0.5,0.2-0.7c0.1-0.2,0.3-0.4,0.4-0.5c0.7-0.9,1.1-1.8,1-3c-0.1-1.1-0.5-2-1.2-2.6
			c-0.1-0.1-0.3-0.2-0.5-0.1c-0.2,0-0.4,0.1-0.4,0.3L19.3,270.4z"/>
		<path d="M19.3,240.4c1.8,0.1,3.3,0.9,4.5,2.3c1.2,1.4,1.7,3,1.6,4.8c-0.1,1.8-0.9,3.3-2.3,4.5c-1.4,1.2-3,1.7-4.8,1.6
			s-3.3-0.9-4.5-2.3c-1.2-1.4-1.7-3-1.6-4.8c0.1-1.8,0.9-3.3,2.3-4.5c0.7-0.6,1.4-1,2.2-1.3C17.5,240.4,18.4,240.3,19.3,240.4z
			 M14.7,246.6c0,0.6,0,1.1,0.2,1.6c0.2,0.5,0.4,1,0.8,1.4c0.3,0.4,0.8,0.7,1.2,1c0.5,0.3,1,0.4,1.6,0.4c0.6,0,1.1,0,1.6-0.2
			c0.5-0.2,1-0.4,1.4-0.8c0.4-0.3,0.7-0.7,1-1.2c0.3-0.5,0.4-1,0.4-1.6c0-0.6,0-1.1-0.2-1.6c-0.2-0.5-0.4-1-0.8-1.4
			c-0.3-0.4-0.8-0.7-1.2-1c-0.5-0.2-1-0.4-1.6-0.4c-0.6,0-1.1,0-1.6,0.2c-0.5,0.2-1,0.4-1.4,0.8c-0.4,0.3-0.7,0.8-1,1.2
			C14.9,245.5,14.7,246.1,14.7,246.6z"/>
		<path d="M14.7,235c-0.6-1.2-0.8-2.4-0.6-3.8c0.1-0.8,0.4-1.5,0.9-2.2c0.4-0.7,1-1.2,1.6-1.7c0.6-0.5,1.4-0.8,2.1-1
			c0.8-0.2,1.6-0.2,2.4-0.1l5.7,1c0.3,0.1,0.6,0.2,0.8,0.5s0.3,0.6,0.2,0.9c-0.1,0.3-0.2,0.6-0.5,0.8s-0.6,0.3-0.9,0.2l-5.7-1
			c-0.5-0.1-1-0.1-1.4,0c-0.5,0.1-0.9,0.3-1.3,0.6c-0.4,0.3-0.7,0.6-1,1c-0.3,0.4-0.4,0.9-0.5,1.3c-0.1,0.5-0.1,1,0,1.5
			c0.1,0.5,0.3,0.9,0.6,1.3c0.3,0.4,0.6,0.7,1,1c0.4,0.3,0.9,0.4,1.3,0.5l5.7,1c0.3,0.1,0.6,0.2,0.8,0.5s0.3,0.6,0.2,0.9
			c-0.1,0.3-0.2,0.6-0.5,0.8s-0.6,0.3-0.9,0.2l-10.5-1.8c-0.3-0.1-0.6-0.2-0.8-0.5c-0.2-0.3-0.3-0.6-0.2-0.9
			c0.1-0.3,0.2-0.6,0.5-0.8C14.1,235,14.4,234.9,14.7,235z"/>
		<path d="M34.7,201.9c0.3,0.1,0.6,0.3,0.7,0.6c0.1,0.3,0.2,0.6,0.1,0.9c-0.1,0.3-0.3,0.6-0.6,0.7c-0.3,0.1-0.6,0.2-0.9,0l-6.3-2.2
			c-0.4-0.1-0.7-0.2-1.1-0.1c-0.4,0-0.7,0.1-1,0.3c-0.3,0.2-0.6,0.4-0.9,0.6c-0.3,0.3-0.4,0.6-0.6,1c-0.1,0.4-0.2,0.7-0.1,1.1
			c0,0.4,0.1,0.7,0.3,1c0.2,0.3,0.4,0.6,0.6,0.9s0.6,0.4,0.9,0.6l6.3,2.2c0.3,0.1,0.6,0.3,0.7,0.6s0.2,0.6,0.1,0.9
			c-0.1,0.3-0.3,0.6-0.6,0.7c-0.3,0.1-0.6,0.2-0.9,0l-6.3-2.2c-0.4-0.1-0.7-0.2-1.1-0.1s-0.7,0.1-1,0.3c-0.3,0.2-0.6,0.4-0.9,0.6
			c-0.3,0.3-0.4,0.6-0.6,0.9c-0.1,0.4-0.2,0.7-0.2,1.1c0,0.4,0.1,0.7,0.3,1s0.4,0.6,0.6,0.9s0.6,0.4,0.9,0.6l6.3,2.2
			c0.3,0.1,0.6,0.3,0.7,0.6c0.1,0.3,0.2,0.6,0.1,0.9c-0.1,0.3-0.3,0.6-0.6,0.7s-0.6,0.2-0.9,0l-10.1-3.5c-0.3-0.1-0.5-0.3-0.7-0.6
			s-0.2-0.6-0.1-0.9c0.1-0.3,0.2-0.5,0.5-0.6c0.2-0.1,0.5-0.2,0.7-0.2c-0.2-1-0.2-2,0.2-3c0.3-0.7,0.6-1.4,1.2-1.9
			c0.5-0.5,1.2-1,1.9-1.2c-0.8-1.4-1-2.9-0.4-4.4c0.2-0.7,0.6-1.3,1.1-1.8s1-0.9,1.6-1.2c0.6-0.3,1.2-0.5,1.9-0.5
			c0.7-0.1,1.4,0,2,0.3L34.7,201.9z"/>
		<path d="M37.2,196.1l-11,0.2c-0.2,0-0.4,0-0.6-0.1c-0.2-0.1-0.3-0.1-0.4-0.3c-0.1-0.1-0.2-0.2-0.3-0.4s-0.1-0.3-0.1-0.5
			s0-0.3,0.1-0.5c0.1-0.2,0.2-0.4,0.4-0.6c0.2-0.1,0.5-0.2,0.7-0.2l8.5-0.1l-6.1-6c-0.2-0.2-0.3-0.4-0.4-0.6c-0.1-0.2,0-0.5,0.1-0.8
			c0.1-0.2,0.2-0.3,0.3-0.4c0.1-0.1,0.2-0.2,0.4-0.3c0.1-0.1,0.3-0.1,0.5-0.1c0.2,0,0.3,0,0.5,0.1c0.2,0.1,0.3,0.2,0.5,0.3
			l12.5,12.3c0.2,0.2,0.3,0.4,0.4,0.7s0,0.5,0,0.7c-0.1,0.3-0.3,0.6-0.7,0.7c-0.3,0.1-0.6,0.1-0.9,0c-0.2-0.1-0.3-0.2-0.5-0.3
			L37.2,196.1z"/>
		<path d="M48.1,162.9c0.3,0.1,0.6,0.3,0.8,0.6c0.2,0.3,0.2,0.6,0.1,0.9c-0.1,0.3-0.3,0.6-0.6,0.8c-0.3,0.2-0.6,0.2-0.9,0.1
			l-6.5-1.6c-0.4-0.1-0.7-0.1-1.1-0.1s-0.7,0.2-1,0.4c-0.3,0.2-0.6,0.4-0.8,0.7c-0.2,0.3-0.4,0.6-0.5,1c-0.1,0.4-0.1,0.7,0,1.1
			c0.1,0.4,0.2,0.7,0.4,1c0.2,0.3,0.4,0.6,0.7,0.8c0.3,0.2,0.6,0.4,1,0.5l6.5,1.6c0.3,0.1,0.6,0.3,0.8,0.6c0.2,0.3,0.2,0.6,0.1,0.9
			c-0.1,0.3-0.3,0.6-0.6,0.8c-0.3,0.2-0.6,0.2-0.9,0.1l-6.5-1.6c-0.4-0.1-0.7-0.1-1.1-0.1c-0.4,0.1-0.7,0.2-1,0.4
			c-0.3,0.2-0.6,0.4-0.8,0.7c-0.2,0.3-0.4,0.6-0.5,1s-0.1,0.7-0.1,1.1c0.1,0.4,0.2,0.7,0.4,1c0.2,0.3,0.4,0.6,0.7,0.8s0.6,0.4,1,0.5
			l6.5,1.6c0.3,0.1,0.6,0.3,0.8,0.6c0.2,0.3,0.2,0.6,0.1,0.9c-0.1,0.3-0.3,0.6-0.6,0.8c-0.3,0.2-0.6,0.2-0.9,0.1l-10.3-2.6
			c-0.3-0.1-0.6-0.3-0.7-0.6c-0.2-0.3-0.2-0.6-0.1-0.9c0.1-0.3,0.2-0.5,0.4-0.6c0.2-0.2,0.4-0.3,0.7-0.3c-0.3-0.9-0.4-1.9-0.1-3
			c0.2-0.8,0.5-1.4,1-2s1.1-1.1,1.8-1.4c-0.9-1.4-1.2-2.8-0.8-4.3c0.2-0.7,0.5-1.3,0.9-1.9c0.4-0.5,0.9-1,1.5-1.3
			c0.6-0.3,1.2-0.6,1.9-0.7s1.4-0.1,2.1,0.1L48.1,162.9z"/>
		<path d="M47.6,146.9l-0.2,0c0.5,0.5,0.9,1.2,1.2,1.8c0.3,0.7,0.5,1.4,0.5,2.2c0.1,1.8-0.4,3.4-1.6,4.8c-1.2,1.4-2.7,2.1-4.5,2.3
			c-1.8,0.1-3.4-0.4-4.8-1.6c-1.4-1.2-2.1-2.7-2.3-4.5c-0.1-1.8,0.4-3.4,1.6-4.8c1.2-1.4,2.7-2.1,4.5-2.3l5.3-0.4
			c0.3,0,0.6,0.1,0.9,0.3c0.3,0.2,0.4,0.5,0.4,0.8c0,0.3-0.1,0.6-0.3,0.9S47.9,146.9,47.6,146.9z M38.5,151.7c0,0.6,0.2,1.1,0.5,1.6
			c0.3,0.5,0.6,0.9,1,1.2c0.4,0.3,0.9,0.6,1.4,0.8c0.5,0.2,1.1,0.2,1.6,0.2s1.1-0.2,1.6-0.4c0.5-0.3,0.9-0.6,1.2-1
			c0.3-0.4,0.6-0.9,0.8-1.4c0.2-0.5,0.2-1.1,0.2-1.6c0-0.6-0.2-1.1-0.5-1.6c-0.3-0.5-0.6-0.9-1-1.2c-0.4-0.3-0.9-0.6-1.4-0.8
			c-0.5-0.2-1-0.2-1.6-0.2c-0.6,0-1.1,0.2-1.6,0.4c-0.5,0.3-0.9,0.6-1.2,1c-0.3,0.4-0.6,0.9-0.8,1.4
			C38.5,150.6,38.4,151.2,38.5,151.7z"/>
		<path d="M39.7,131.4c-0.1-0.3-0.1-0.6,0-0.9c0.1-0.3,0.3-0.5,0.7-0.7c0.3-0.1,0.6-0.1,1,0c1.5,0.7,2.5,1.8,3.2,3.3
			c0.7,1.7,0.7,3.3,0.1,5c-0.7,1.7-1.8,2.9-3.5,3.6c-1.7,0.7-3.3,0.7-5,0.1c-1.7-0.7-2.9-1.8-3.6-3.5c-0.7-1.5-0.7-3-0.2-4.6
			c0.1-0.4,0.3-0.6,0.7-0.8c0.3-0.1,0.6-0.1,0.9,0s0.5,0.3,0.7,0.7c0.1,0.3,0.1,0.6,0.1,0.8c-0.2,0.5-0.2,1-0.2,1.5s0.1,0.9,0.3,1.4
			c0.2,0.5,0.5,1,0.9,1.3c0.4,0.4,0.8,0.7,1.3,0.9c0.5,0.2,1,0.3,1.5,0.3c0.5,0,1.1-0.1,1.6-0.3c0.5-0.2,1-0.5,1.3-0.9
			c0.4-0.4,0.7-0.8,0.9-1.3c0.2-0.5,0.3-1,0.3-1.6c0-0.5-0.1-1.1-0.3-1.6c-0.2-0.5-0.5-0.9-0.8-1.2c-0.3-0.3-0.7-0.6-1.2-0.8
			C40,131.8,39.9,131.6,39.7,131.4z"/>
		<path d="M39.1,125.1c0.3-0.1,0.6-0.1,0.9,0c0.3,0.1,0.5,0.3,0.7,0.7c0.1,0.3,0.1,0.6,0,0.9s-0.3,0.5-0.7,0.7l-15,6.3
			c-0.3,0.1-0.6,0.1-0.9,0c-0.3-0.1-0.5-0.3-0.7-0.7s-0.1-0.6,0-0.9s0.3-0.5,0.7-0.7l5.2-2.2c-1.1-0.6-2-1.6-2.5-2.9
			c-0.3-0.8-0.5-1.5-0.5-2.3c0-0.8,0.2-1.6,0.4-2.3s0.7-1.4,1.3-2c0.6-0.6,1.2-1.1,2-1.4l5.3-2.2c0.3-0.1,0.6-0.1,0.9,0
			c0.3,0.1,0.5,0.3,0.7,0.7s0.1,0.6,0,0.9c-0.1,0.3-0.3,0.5-0.7,0.7l-5.3,2.2c-0.5,0.2-0.9,0.5-1.2,0.8s-0.6,0.7-0.8,1.2
			s-0.3,0.9-0.3,1.4c0,0.5,0.1,1,0.3,1.4c0.2,0.5,0.5,0.9,0.8,1.2c0.3,0.3,0.7,0.6,1.2,0.8c0.4,0.2,0.9,0.3,1.4,0.3
			c0.5,0,1-0.1,1.4-0.3L39.1,125.1z"/>
		<path d="M20.4,115.6c0.4-0.1,0.7-0.1,1.1,0.1s0.6,0.5,0.7,0.9c0.1,0.4,0.1,0.7-0.1,1.1c-0.2,0.4-0.5,0.6-0.9,0.7s-0.7,0.1-1.1-0.1
			c-0.4-0.2-0.6-0.5-0.7-0.9c-0.1-0.4-0.1-0.7,0.1-1.1C19.8,115.9,20.1,115.7,20.4,115.6z M34.8,113.9l-10.2,3.1
			c-0.3,0.1-0.6,0.1-0.9-0.1c-0.3-0.2-0.5-0.4-0.6-0.7s-0.1-0.6,0.1-0.9c0.2-0.3,0.4-0.5,0.7-0.6l10.2-3.1c0.3-0.1,0.6-0.1,0.9,0.1
			c0.3,0.2,0.5,0.4,0.6,0.7s0.1,0.6-0.1,0.9S35.2,113.8,34.8,113.9z"/>
		<path d="M22.4,109.2c-1-0.9-1.6-2-1.9-3.4c-0.2-0.8-0.2-1.6,0-2.4c0.2-0.8,0.5-1.5,0.9-2.2c0.4-0.7,1-1.2,1.6-1.7
			c0.7-0.5,1.4-0.8,2.2-1l5.7-1.1c0.3-0.1,0.6,0,0.9,0.2c0.3,0.2,0.5,0.4,0.5,0.8c0.1,0.3,0,0.6-0.2,0.9c-0.2,0.3-0.4,0.5-0.8,0.5
			l-5.7,1.1c-0.5,0.1-0.9,0.3-1.3,0.6c-0.4,0.3-0.7,0.6-1,1c-0.3,0.4-0.4,0.8-0.5,1.3c-0.1,0.5-0.1,1,0,1.4c0.1,0.5,0.3,0.9,0.6,1.3
			c0.3,0.4,0.6,0.7,1,1c0.4,0.3,0.8,0.4,1.3,0.5c0.5,0.1,1,0.1,1.4,0l5.7-1.1c0.3-0.1,0.6,0,0.9,0.2c0.3,0.2,0.5,0.4,0.5,0.8
			c0.1,0.3,0,0.6-0.2,0.9c-0.2,0.3-0.4,0.5-0.8,0.5l-10.5,2.1c-0.3,0.1-0.6,0-0.9-0.2s-0.5-0.4-0.5-0.8c-0.1-0.3,0-0.6,0.2-0.9
			C21.8,109.5,22.1,109.3,22.4,109.2z"/>
		<path d="M27.6,86.3c0-0.4,0.1-0.6,0.3-0.9c0.2-0.2,0.5-0.4,0.8-0.4c0.3,0,0.6,0.1,0.9,0.3c1.1,1.1,1.8,2.5,1.9,4.2
			c0.1,1.8-0.4,3.4-1.6,4.8c-1.2,1.4-2.7,2.1-4.5,2.2c-1.8,0.1-3.4-0.4-4.8-1.6c-1.4-1.2-2.1-2.7-2.2-4.5c-0.1-1.8,0.4-3.4,1.6-4.8
			c0.6-0.7,1.3-1.2,2-1.6c0.8-0.4,1.6-0.6,2.5-0.6c0.4,0,0.6,0.1,0.9,0.3c0.2,0.2,0.4,0.5,0.4,0.8l0.6,9.3c0.4-0.2,0.8-0.4,1.1-0.7
			c0.3-0.3,0.6-0.6,0.9-1c0.2-0.4,0.4-0.8,0.5-1.2c0.1-0.4,0.2-0.9,0.1-1.3c0-0.5-0.1-1-0.3-1.4s-0.4-0.8-0.8-1.1
			C27.8,86.8,27.6,86.6,27.6,86.3z M23.5,86c-0.4,0.2-0.8,0.4-1.1,0.7c-0.3,0.3-0.6,0.6-0.9,1s-0.4,0.8-0.5,1.2
			c-0.1,0.4-0.2,0.9-0.1,1.3c0,0.4,0.1,0.9,0.3,1.3s0.4,0.8,0.7,1.1c0.3,0.3,0.6,0.6,1,0.9c0.4,0.2,0.8,0.4,1.2,0.5L23.5,86z"/>
	</g>
</g>
</svg>
