<?xml version="1.0" encoding="utf-8"?>
<!-- Generator: Adobe Illustrator 26.0.3, SVG Export Plug-In . SVG Version: 6.00 Build 0)  -->
<!DOCTYPE svg PUBLIC "-//W3C//DTD SVG 1.1//EN" "http://www.w3.org/Graphics/SVG/1.1/DTD/svg11.dtd" [
	<!ENTITY ns_extend "http://ns.adobe.com/Extensibility/1.0/">
	<!ENTITY ns_ai "http://ns.adobe.com/AdobeIllustrator/10.0/">
	<!ENTITY ns_graphs "http://ns.adobe.com/Graphs/1.0/">
	<!ENTITY ns_vars "http://ns.adobe.com/Variables/1.0/">
	<!ENTITY ns_imrep "http://ns.adobe.com/ImageReplacement/1.0/">
	<!ENTITY ns_sfw "http://ns.adobe.com/SaveForWeb/1.0/">
	<!ENTITY ns_custom "http://ns.adobe.com/GenericCustomNamespace/1.0/">
	<!ENTITY ns_adobe_xpath "http://ns.adobe.com/XPath/1.0/">
]>
<svg version="1.1" id="Слой_1" xmlns:x="&ns_extend;" xmlns:i="&ns_ai;" xmlns:graph="&ns_graphs;"
	 xmlns="http://www.w3.org/2000/svg" xmlns:xlink="http://www.w3.org/1999/xlink" x="0px" y="0px" width="366px" height="426.4px"
	 viewBox="0 0 366 426.4" style="enable-background:new 0 0 366 426.4;" xml:space="preserve">
<style type="text/css">
	.st0{fill:#FFFFFF;}
	.st1{fill:#4185E6;}
	.st2{fill:#CAA77A;}
	.st3{opacity:0.23;fill:#3F2719;}
	.st4{fill:#9D7B51;}
	.st5{fill:#2D1F04;}
	.st6{fill:#B6B1AE;}
	.st7{fill:#FFDB1F;}
	.st8{fill:#FFDBAF;}
	.st9{fill:none;stroke:#9D7B51;stroke-width:3.87;stroke-linecap:round;stroke-linejoin:round;stroke-miterlimit:10;}
	.st10{fill:#3F2719;}
	.st11{fill:none;stroke:#2D1F04;stroke-width:2.62;stroke-linecap:round;stroke-linejoin:round;stroke-miterlimit:10;}
	.st12{fill:none;stroke:#2D1F04;stroke-width:2.62;stroke-linejoin:round;stroke-miterlimit:10;}
	.st13{fill:none;stroke:#2D1F04;stroke-width:7.6;stroke-linecap:round;stroke-linejoin:round;stroke-miterlimit:10;}
	.st14{fill:#251707;}
	.st15{fill:#BDB0A4;}
	.st16{fill:none;stroke:#2D1F04;stroke-width:3.05;stroke-linecap:round;stroke-linejoin:round;stroke-miterlimit:10;}
	.st17{fill:none;stroke:#2D1F04;stroke-width:2.6;stroke-linecap:round;stroke-linejoin:round;stroke-miterlimit:10;}
	
		.st18{opacity:0.2662;fill:none;stroke:#3F2719;stroke-width:1.14;stroke-linecap:round;stroke-linejoin:round;stroke-miterlimit:10;}
	.st19{opacity:0.1123;fill:#272727;}
	.st20{clip-path:url(#SVGID_00000075159399761153636930000009704010071635235715_);}
	.st21{stroke:#000000;stroke-width:0.5;stroke-miterlimit:10;}
</style>
<metadata>
	<sfw  xmlns="&ns_sfw;">
		<slices></slices>
		<sliceSourceBounds  bottomLeftOrigin="true" height="426.4" width="366" x="1175.3" y="95.5"></sliceSourceBounds>
	</sfw>
</metadata>
<g>
	<path class="st0" d="M363.4,203.9c-2.3-2.4-7.1-5.3-12.8-17.4c-2.9-6.1-5.4-13.6-7.7-22.4c-0.9-3.8-1.8-7.8-2.7-11.6l-0.9-3.9
		c-2.9-14.4-4.9-29.7-6.7-43.1c-3.2-23.6-5.2-37.3-9.3-44.8c-11.2-20.5-35.8-22.9-53.3-22.9c-7.7,0-15.4,0.5-22.9,0.9
		c-6.8,0.4-13.3,0.8-19.1,0.8c-2.5,0-4.7-0.1-6.7-0.2c-7.4-0.6-11-1.8-12.7-2.8c-0.2-0.3-0.4-0.5-0.6-0.8c-0.3-0.7-0.9-2.2-1.3-3.4
		c-0.6-1.5-1.3-3.4-2.1-5.3c-0.3-1.1-0.6-2.4-1.1-3.7c-1.1-4.4-3.2-10.5-9.4-15.1c-5.2-3.8-13.3-5.6-25.6-5.6
		c-15.8,0-35.4,2.9-49.8,5l-2.8,0.4c-2.2,0.3-4.4,0.6-6.6,0.9c-1.3,0.2-2.5,0.3-3.5,0.4c-1.8,0.2-4,0.6-6.7,1.2
		c-7.2,1.2-13.7,2.6-19.3,3.9c-0.6-0.1-1.3-0.2-2-0.2c-2.9,0-5.9,1.1-8.3,2.3l-4.2-10c-1.4-3.4-4.7-5.5-8.3-5.5c-0.3,0-0.6,0-1,0.1
		c-0.4,0-0.8,0.1-1.2,0.2c-1.1-0.7-2.2-1-3.3-1.2c-0.1,0-0.2-0.1-0.3-0.1c-0.7-0.2-1.3-0.2-2-0.2c-1.9,0-3.7,0.6-5.3,1.7
		c-3.1,1.6-5.9,4.1-7.2,5.2c-2.8,2.6-5.9,6-6.3,10.2c-0.3,1.4-0.2,2.9,0.3,4.4c-3.2-4.1-8-6.5-13.2-6.5c-2.5,0-5,0.5-7.4,1.6
		C1.4,20.5-2.4,30,1.6,39c0.5,1.2,1.1,2.3,1.8,3.4c0.1,0.7,0.3,1.4,0.6,2.1c1,2.2,2.4,3.8,3.6,4.8c-0.2,1.5,0.1,3.1,0.7,4.5l0.8,1.9
		c0.2,0.4,0.3,0.7,0.5,1c0.1,0.4,0.2,0.8,0.4,1.2l0.9,2c0.7,1.5,1.7,2.8,3,3.7c-0.2,1.6,0,3.2,0.7,4.7l0.9,2
		c0.2,0.4,0.4,0.8,0.6,1.2c0.3,0.9,0.7,2.3,1.5,4c0.8,1.9,1.8,3.5,2.8,4.8c0.1,1,0.3,2,0.7,2.9l0.9,2c0.7,1.5,1.7,2.8,3,3.7
		c-0.2,1.6,0,3.2,0.7,4.7l0.9,2c0.5,1.1,1.1,2,1.9,2.8c0,0.2,0,0.4,0,0.6c0.1,1.3,0.4,2.7,1.1,4.2c0.7,1.7,2.1,3.8,4.4,5.4
		c-0.3,1.7-0.2,3.6,0.6,5.3l0.8,1.9c0.5,1.1,1.1,2,1.9,2.8c0,1.1,0.3,2.2,0.7,3.3l0.9,2.1c0.1,0.3,0.3,0.6,0.5,0.9
		c0.1,0.3,0.2,0.7,0.4,1l0.8,1.9c0.5,1.2,1.3,2.3,2.2,3.1c0,1.3,0.2,2.5,0.7,3.7l0.9,2c0.7,1.5,1.7,2.8,3,3.7
		c-0.2,1.6,0,3.2,0.7,4.7l0.9,2c0.2,0.4,0.3,0.7,0.5,1c0.1,0.4,0.2,0.7,0.4,1.1l0.9,2c0.6,1.3,1.4,2.4,2.4,3.3
		c-0.1,1.4,0.2,2.7,0.7,4l0.8,1.8c0.2,0.6,0.6,1.1,0.9,1.6c0.1,0.6,0.3,1.2,0.6,1.8l0.8,1.9c0.6,1.3,1.4,2.4,2.4,3.2
		c-0.1,1.3,0.2,2.7,0.7,3.9l0.8,1.9c0.2,0.6,0.5,1.1,0.9,1.5c0.1,0.6,0.3,1.2,0.6,1.8l3.6,8.3c0.1,0.3,0.3,0.6,0.5,0.9
		c0.1,0.9,0.4,1.7,0.7,2.5c1.7,3.8,5.4,6.3,9.5,6.3c1.5,0,2.9-0.3,4.3-0.9c1.2-0.5,2.2-1.2,3-2l10.3-4.2c2.3-0.9,4-2.7,5-4.9
		c0.5-1.2,0.7-2.5,0.7-3.9c6.6,15.1,13.1,30,19.3,43.9c-0.8,0.7-1.6,1.4-2.5,2.2c-1.3,1.2-2.6,2.4-4,3.8
		c-15.2,13.9-17,18.9-17.5,22.5c0,0.1,0,0.2,0,0.3c-0.3,1.2-0.3,2.5-0.1,3.7c-0.1,0.3-0.2,0.5-0.4,0.8c-2.6,3.5-7.8,10.8-11.7,20.6
		c-2.4,5-4,9.5-4.8,13.3c-1.1,3.3-1.6,6.3-1.6,9c0,4,0.9,8.6,2.7,13.4c0.1,0.2,0.1,0.4,0.2,0.5c2.9,10.4,9.5,19,19.6,25.8
		c3.2,2.1,6.8,3.9,10.8,5.2c-1.7,1.2-3.3,2.5-4.8,4.1c-6.1-2.6-12.9-4-19.7-4l-0.6,0c-0.9,0-2.8,0.2-4.7,0.5c-0.3,0-0.6,0-0.9,0
		c-0.8,0-1.7,0.1-2.5,0.4l-1.6,0.5c-0.7,0.2-1.4,0.5-2,0.9l-1,0.6c-1.9,1.1-3.4,2.9-4,5.1L68,354c-0.9,2.9-0.3,6.1,1.6,8.4
		c2.3,2.8,9.2,7.9,27.3,20.9l2.7,1.9l3.9,3c0.9,1.1,2,1.9,3.2,2.5l12.1,9.2c0.8,0.6,1.7,1.1,3,1.8c4.9,3.1,8.7,4.5,12.1,4.5
		c1.2,0,2.4-0.2,3.5-0.5c0.6-0.1,1.1-0.2,1.6-0.4c2.2-0.8,4.4-2.3,7.1-5l16.3-12.7c9.8,4.2,20.5,6.6,32,7.2
		c2.3,5.2,3.8,8.6,4.9,10.7c-0.2,1.9,0.2,3.4,0.6,4.2c1.3,3.5,4.4,5.8,8.2,6.3c0.9,0.1,1.8,0.2,2.7,0.2c9.9,0,19.4-7.2,21.8-12.3
		c1.6-3.4,1.2-7.2-1.1-10c-0.2-0.2-0.4-0.5-0.6-0.7c-0.1-0.2-0.2-0.4-0.2-0.5c4.4-0.4,8.9-1,13.8-1.7c0.1,0,0.2,0,0.3,0
		c1.9,2.4,4.3,4.3,6.2,5.6c0.3,0.3,0.7,0.5,1,0.7c-0.4,0.7-0.8,1.4-1.2,2.2c-2,2.5-4.8,6.7-3.5,11.7c0.1,0.4,0.2,0.8,0.4,1.1
		c0,0.1,0.1,0.2,0.1,0.3c0.7,2.4,2.3,4.4,4.7,5.6c0,0,0.1,0,0.2,0.1c0.4,0.2,0.8,0.4,1.2,0.5c1,0.4,2.2,0.6,3.2,0.6
		c1.4,0,2.6-0.2,7.4-1.6c7-1.2,17.4-3.7,26.2-6.3c13.4-3.9,18.7-6.5,21.2-9.4c2.3-2,6.6-6.7,11.9-18.6c1-1.8,2.3-4,2.7-6.6
		c0.7-2.9,0.2-6.5-2.9-9.7c-0.4-0.5-0.8-1-1.3-1.5l-13.6-20.7c0.9-1.5,1.6-3.3,2.6-5.7l1.1-2.7c1.3-2.5,2.2-4.7,2.7-6.7
		c5.3-13.8,7.4-24.7,4.1-42.2c-0.5-2.5-1.1-5.2-1.8-7.8c-1.6-7.6-4.1-14.6-7.2-20.8c0.1-0.2,0.2-0.4,0.3-0.6
		c0.7-1.6,1.9-5.8-1.8-10.1c-0.3-1-0.7-1.9-1.3-2.7l-0.1-0.1c-3.3-7.2-10.9-18.4-21.9-27.2c-1.4-1.4-2.8-2.7-4.4-3.8
		c0-0.1,0-0.5,0-0.5c0.1-1.5,0.1-2.9-0.1-4.1c0.3-3.3,0.3-6.7,0.1-10.1c4.2,1,8.1,2.5,11.8,4c1.7,0.9,3.4,1.8,5.1,2.8
		C309,213,321.8,220,344.9,220c3.6,0,7.5-0.2,11.4-0.5c0.5,0,1-0.1,1.4-0.2c0.1,0,0.2,0,0.3,0c3.7-0.4,6.7-3,7.7-6.6
		C366.6,209.5,365.7,206.2,363.4,203.9z"/>
	<g>
		<g>
			<path class="st1" d="M66.7,28.2c-1.5,0,3.5-1.2,4.3-1.7c2.4-1.6,7.6-4.4,8.3-2.3c0.7,2.1,19-4.8,27.7-5.7
				c16.1-1.7,69.2-12.3,82-2.9c11.5,8.4,1.7,26.2,18.7,30.9c27.5,7.6,78-6.1,100.5,10.3c5,3.7,9.1,12.4,9.9,17.8
				c5.4,36.9,6.7,58.3,13.1,88.5c2.8,13.4,9.1,24.1,15.2,35.5c1.4,2.6,9.3,7.7,9,10.5c-0.1,0.6-0.9,0.4-1.2,0.4
				c-11.1,0.9-22.8,0-33.4-3.6c-14.9-5-28.8-13.9-43.9-18.1c-10.9-3-23.3-0.7-34.6-2.5c-16.8-2.7-30.7-10-46-17.1
				c-6.7-3.1-21.7-9.3-28.9-5.5c-19.2,10.3-20.4,33.3-45.8,11.8c-6.5-5.5-9.3-13.9-13.4-21.1c-16.8-29.6-28.6-59.7-40.2-91.5
				c-3.3-9.1-3.6-30.8-10.5-37.3"/>
			<path class="st2" d="M296.7,344c-0.8,6.5,4.4,15.4,9.8,21.7c5.5,6.3,8.3,3.3,10.9,9.1c0.9,2-11.9,18.6-12.4,20.9
				c-1,4-45.6,15.1-48.9,13.8c0,0,8.3-10.9,12.6-17.2c1.4-2.1-6.1,0-10.8-2c-2.9-1.2-9.1-7.3-7.3-8c2.1-0.8-15.9-0.5-18.8,0.4
				c-2.9,0.9-4.9,0.3-13.8,2.2c-8.9,1.9-38.3-0.5-56.2-7.6c-0.7-0.3-15.8,3.6-26.2,19c-3.4,5.1-24.4-14.5-25-13.9
				c-2.2,2.3,0.7-23.1-2.2-22.6c-0.7,0.1,17.2-13.7,16.6-14.7c-2.3-3.5,14.5,15,11.9,16.3c-2.9,1.6-5.3-9.3-5.9-12.1
				c-1.4-7-2.6,9.2-2.6,1.8c0-1.2-3.9-12.4-3.2-12.9c1.5-1.1,2.6-0.2,4.4-0.2c6,0,10.9-0.4,16.9,1.2c3.9,1.1,7.1,3.6,11.3,4
				c6.4,0.6,12.8-1,19.2-0.5c6.2,0.5-0.9-11.4,4.4-12.5c1.2-0.2,7.5,2.1,8.2,1.4c0.9-0.9,7.1,2.9,9.2,2.4c3.5-0.9,12.1,0.3,15.3,0.9
				c8.1,1.6,15.4,0,22.9-4.5c3.3-2,6.2-1.3,7.5-4.5c1.4-3.5,1.5-4,2.8-7.7c1.7-4.6-0.3-11.4-1.3-16.1c-0.6-3-3.3-11-1.8-14.1
				c2.7-5.3,18.7-25.7,24.4-27c5.2-1.2,17.3-21.3,22.6-19.9c2.6,0.7,11.7,15.9,5.9,15c-0.3-0.1,8.9,14.1,12.7,33.5
				c3.8,19.8-0.4,29.4-6.9,45.5c-2.5,6.3-2.5,6.7-6.2,9.4c-0.9,0.7-5.2,4.1-5.4,4.5c-0.3,0.7-0.3,0.9-2.9,2.5
				c-2.6,1.5-2.4,0.8-3.8,3"/>
			<path class="st2" d="M125.1,137.3c-5.2,2.3,0.4,3.3-1,5.8c-10.4,18.2,0.1,39.2,8.4,57.4c2.1,4.7,1.2,6.1,3.3,10.5
				c1,2,4.5,6.7,4.5,8.8c0,0.5,0,1.4,0,1.4s-0.7-3.5-1.4-5c-0.2-0.5-1.2-1.4-0.7-1.4c0.3,0,0.6,0.8,0.7,1c2.3,5.8-0.3,13.1,1.2,19.1
				c1,4.2,9,9.2,13.4,10.3c16.6,4.1,33.3-0.2,49.9-0.2c4.2,0,16.1,1.3,19.6-2.1c2.9-2.9,3.8-6.7,6.2-10c3.2-4.5,10.6-9.9,15.8-11.9
				c5.3-2.1,12-0.8,17.2,0.5c1.3,0.3,5.4,2,6.7,0.7c2.2-2.2,3.2-8.5,2.6-11.2c-1.5-7.3-1.8-15.4-3.2-22.5c-1-4.8-3.4-10.3-5.1-14.9
				c-7.1-18.3-15.5-35-31.3-46.4c-3.9-2.9-7.8-7.9-12.3-10.1c-4.4-2.2-3.2-5.3-15.1-8.4c-11.9-3.1-18.6-10-24.7-11.6
				c-1.6-0.4-2.6,3.4-2.7,3.7c-0.2,0.4-5.6-7-6.1-7.1c-5.1-1-1,8-5.9,5.8c-0.8-0.4,1.9-10.4,1-10.1c-2.9,1-14.1,14.5-14.1,14.5
				s1.9,0-1.4,0.6c-0.4,0.1-3.9-6.8-4.2-3.7c-0.3,3.1,0.2,6.7,0.2,7.6c0,0.7,1.8,0,0,0.3c-1.8,0.3-15.9,3.3-15.1,5.6
				c0.3,1,4.2,2.6,5.3,3.2c0.3,0.2-9.5,10.1-12,20.9"/>
			<path class="st3" d="M183.9,346.7c-0.9,0.9,20.5,32.1,16,32.3c-29.6,1.9-59.9-18.5-60.4-17.8c-0.3,0.4,4.3,4,4.7,4.4
				c5,5.5,2,3.6,16.6,11.1c29.3,15.1,59.7,7.3,72.4,5.6c1-0.5,13.1-0.2,16.7-1.9c13.6-6.5,20.5-11.6,29.5-7.6
				c17.1,7.6-3.8,13.1-26,12.9c-1.6,0,6.9,7.3,15.1,7.1c1.5,0-17.6,16.8-11.3,16.4c11.8-0.7,33-11.9,44.8-11.9
				c1.5,0,13.8-15.1,15.1-22.4c1.1-5.8-18.8-9.9-20.3-30.7c-0.2-2.4-12.1,12.3-11.7,9.8c0-0.2-15.6,7.6-16.7,8.7
				c-0.2,0.2-0.4,0.5-0.5,0.8c-34.4,12.9-68.8-4.8-83.3-16.7C184.1,346.7,184,346.6,183.9,346.7z"/>
			<polyline class="st4" points="293.7,65.8 292.9,65.5 292.5,65.2 292.5,66.9 			"/>
			<path class="st5" d="M209.6,95c0-0.1,0.1-0.1,0.2-0.1c0.1,0,0.2,0,0.2,0.1s-0.1,0.1-0.2,0.1C209.7,95.1,209.6,95.1,209.6,95z"/>
			<path class="st6" d="M275.2,386.8c-6.5,5.1-10,6.5-14.8,13.6c-0.8,1.2-3.4,5.3-2.5,6.7c1.7,2.4,7.3-0.1,9.5-0.7
				c8.2-2.2,16.9-3.8,25.1-6c1.6-0.4,9.4-1.9,9-3.9c-1-5.1-10.8-7.4-14.1-9.2"/>
			<path class="st6" d="M109.3,362.2c-6.5-5.2-16.1-7.9-24.3-7.8c-0.8,0-7.7,0.7-7.8,1.6c-0.1,2.3,5.8,5,7.2,6.3
				c5.9,5.6,13.7,9.7,20.2,14.8c1.1,0.9,4.8,4.9,6.4,4.1c2.4-1.1-0.4-8.2-1-9.5"/>
			<path class="st6" d="M195.7,310c-0.1-0.2-0.3-0.4-0.4-0.6"/>
			<path class="st7" d="M140.3,237.9c-0.2-2.5-3.8,1.9-2.1,4.2c0.7,1-5.8,9.1,0.6,5c4.2-2.7,2.5-1.3,2.3-1c-3,4-7.8-21.5-11.6-18.5
				c-7.1,5.8-24.6,21.1-25.4,26.4c-0.3,2.2,16.7,12.2,22.5,26.8c2,5,2.5,2.4,2.2,3.4c-2,7.9-7.6,9.5-9.9,25.2
				c-0.8,5.5-3.3,12-3.3,17.6c0,0.9-0.4,4.7,0.5,5.4c12.4,9.1,30.4,10.1,47.1,10.1c3.4,0,6.6,2.7,9.9,1.9c4.9-1.2,9.8-0.9,14.7-2.1
				c0.6-0.2,4,0.6,4,0c0-0.2-3.8-4.6-4-5.6c-1.8-7.1-1.6-2.8,5.6-1.4c30.9,5.9,47.2-8.4,51.3-10c4.8-1.8,9.8-14.8,9.6-23.1
				c-0.2-8.1-1.7-11.7-3.3-17.6c12.4-16.4,26.1-29.4,46-29.2c7.4,0.1,3.9-0.3,2.9-2.8c-4.9-11.9-25.3-32.1-32.1-33.8
				c-3.9-1-12.1-5.2-16.4-3.9c-8.2,2.3-16.5,7.4-21.8,14.4c-1.7,2.2-4.3,8-6.6,9.6c-1,0.7-2.4,1.1-3.7,1.4
				c-6.5,1.3-13.2,1.1-19.7,2.3c-14,2.8-24.9,1.6-38.9-1.2c-2.3-0.5-7.6,0.1-9.8-0.2c-2.7-0.4-5-0.5-7.7-1.2
				C140.1,239,140.3,238.2,140.3,237.9z"/>
			<path class="st8" d="M124,148.7c2-8.1,7-17.3,14.3-18.7c8.6-1.6,16.5-8.1,51-8.2c34.4-0.1,12.8,2.3,18,2.4
				c10.8,0.2,19.6,5.1,26.3,17.3c2.2,4.1,15,37.9-16.1,57.9c-19.9,12.8-62,18.8-82.2-6.7C125.7,180.8,120.2,163.9,124,148.7z"/>
			<path class="st4" d="M161.5,146.8c-6.8-3.4-13.2,13.6-12.6,18.6c1.9,16.9,23.5,22.3,37.3,12.3c16.2-11.8-4.4-36.2-16.3-31.5"/>
			<path class="st4" d="M121.1,152.3c-3.7,6.7,0.4,15.9,1.3,22.8c0.3,2.7,41.1-13.1,26.3-49.2c-0.6-1.6-22,16.5-24.4,17
				C120.8,143.6,122.6,149.5,121.1,152.3z"/>
			<path class="st4" d="M188.7,122.6c-11.8,55.9,47.9,52.1,47.9,52.1s5.2-21.8-4.6-35.5c-0.9-1.3-20.7-14.5-22.2-14.3
				C198.1,126.9,191.2,110.8,188.7,122.6z"/>
			<path class="st4" d="M285.7,89.2c-0.2-0.3-0.5-0.6-0.7-0.9"/>
			<line x1="146.6" y1="348.9" x2="146.5" y2="354.5"/>
			<line class="st9" x1="146.6" y1="348.9" x2="146.5" y2="354.5"/>
			<line x1="152.7" y1="352.2" x2="152.7" y2="357.9"/>
			<line class="st9" x1="152.7" y1="352.2" x2="152.7" y2="357.9"/>
			<line x1="158.5" y1="355.9" x2="158.4" y2="361.5"/>
			<line class="st9" x1="158.5" y1="355.9" x2="158.4" y2="361.5"/>
			<line x1="268.6" y1="290" x2="268.5" y2="295.7"/>
			<line class="st9" x1="268.6" y1="290" x2="268.5" y2="295.7"/>
			<line x1="275.2" y1="292" x2="275.1" y2="297.7"/>
			<line class="st9" x1="275.2" y1="292" x2="275.1" y2="297.7"/>
			<line x1="217.2" y1="221.2" x2="217.1" y2="226.8"/>
			<line class="st9" x1="217.2" y1="221.2" x2="217.1" y2="226.8"/>
			<path class="st7" d="M94.4,95.7c0,0,101.4-28.1,108,0.6c2.7,11.9,8,16.8,8,16.8l20.1,9.8c0,0,8,1.2,32.2-1.9
				c45-5.7,62.1,6.5,65.6,20.2c4.3,16.8,8.1,42.3,16.2,52.4c8.1,10.1,9.9,16.7,9.9,16.7s-17.8,1.6-28.1-1.9
				c-10.3-3.5-33.2-17.7-41.9-18.3c-8.7-0.6-15.3-1.1-15.3-1.1s-8.6-36.6-34.3-61.6C222,114.9,194,105.2,194,105.2l-14.9-8.6
				c0,0,0,3.3-2.8,3c-0.9-0.1-6.1-6.2-6.1-6.2l-5.4,7.1c0,0,3.9-11.3,0.4-11.1c-7.5,0.5-13.8,16.1-13.8,16.1l-5.2-6l-0.3,9
				c0,0-13.6,5-14.3,6l5.3,2.4c0,0-11.6,12.7-13.1,20.8c-1.5,8.1-3.4,20.7-3.4,20.7s-9-20-9.9-22.3C109.6,133.9,94.2,95.6,94.4,95.7
				z"/>
			<line x1="211.5" y1="224.1" x2="211.4" y2="229.8"/>
			<line class="st9" x1="211.5" y1="224.1" x2="211.4" y2="229.8"/>
			<path class="st3" d="M201.1,107.1c27,11.4,58.2,52.3,51.9,107.1c-0.1,1-1.3,2.7-0.3,3c2,0.7,5.2-1.3,7.7-0.3
				c1.1,0.4,9.2,4.9,10,4.4c1.4-1,0.4-6.3,0.7-8c5.7-37.9-25.8-73.4-36.9-85c-2.4-2.5-11.9-10.4-15.6-12.5"/>
			<path class="st3" d="M131.2,113.9c-0.1,0.1-0.2,0.1-0.3,0.2c0,0-0.1,0.1-0.1,0.2"/>
			<path class="st10" d="M178.6,383.1c0,0.2,0,0.4,0,0.7"/>
			<path class="st3" d="M130.7,349.1c-0.1-0.9-1.1,2.9-2.1,2.1c-1.4-1.3-3-6.9-3.3-6.5c-3.5,5.4-14.9,8.3-16,15.5
				c-1.1,7.2,0.5,4.2,0.4,4c-0.7-1.9-7-4.3-7.7-4.7c-2.2-1.1-24.8-7.9-25.2-2.4c0,0.1,18.4,13.6,19.9,14.8
				c9.9,7.6,17.5,13.4,27.4,21c1.4,1.1,10.2,4.5,11.9,3.9c2.3-0.8,8.8-8.2,9.3-10.1c0.3-1,14.5-9.9,14.4-10.2
				c-1.5-4.5-19.8-12.5-22.6-16.1C132.6,354.5,131.8,356.5,130.7,349.1z"/>
			<path class="st3" d="M122.8,298.2c-1.3,2.9,4.3-6.7,6.2-7.9c4.1-2.6,10.2-2.7,14.7-2.7c11.7,0,34.2,10.4,46.7,12.1
				c22.7,3,42.4-5.4,40.1-8.8c-2-2.8-35.9,5.7-48.7,1.2c-11.3-3.9-29.1-4.6-40.8-6.6c-2.8-0.5-9.6-0.5-11.9-4.8
				c-0.6-1.1-2.7,7.9-3.1,8.6C123.2,293.7,125.1,293.2,122.8,298.2z"/>
			<path class="st11" d="M135.7,118.6c-28.1,28.6-10.7,68.8,0,90.1c0.9,1.9,2.3,4,2.6,6.1c0.2,1.1-0.5,2.8,0,3.8
				c0.2,0.4,1.1-1,1.2-0.6c0.2,2,0,4.2-0.2,6.1c-0.1,0.7-0.9,2.7-0.4,2.2c0.2-0.2,0.7-1.8,1.4-1.6c0.4,0.1,0,10.6-0.2,11.7"/>
			<path class="st11" d="M125.2,338.3c-0.1,6.9,3.5,13.9,3.5,13.9s1.5-4.5,2.2-3.3c0.8,1.4,4.1,13.7,6.3,13c0.1,0,0-3.3,0.2-3.1
				c0.8,0.4,5.2,6.3,6.7,7.4c5.4,4.1,11.8,7.5,18,10.2c23.1,10.1,49.5,10.7,86.9,4.8"/>
			<path class="st11" d="M125.6,345c-5.8,4-14.3,10.6-16.9,17.6"/>
			<path class="st11" d="M162,376.4c-9.3,1.1-21.6,15.4-24.6,19.2"/>
			<path class="st11" d="M64.9,28.9C88,18,174.2,8.8,185.5,15c20.5,11.2-0.5,30.7,35.3,33.4c29.1,2.2,79.1-11.7,94.7,16.7
				c10.3,18.8,9,120.6,41.6,145.2c-41.8,4.6-57.1-20.8-86.8-20.4"/>
			<path class="st11" d="M108.2,361.9c-9.5-7.7-27.4-7.1-28.8-6.8"/>
			<path class="st11" d="M108.7,380.9c4,3.1,9.2,6.5,13.2,9.4c2.5,1.8,13.6,9,15.5,5.3"/>
			<path class="st11" d="M249.2,375.7c5.5,18.5,10.6,14.4,19.3,16.9"/>
			<path class="st11" d="M296.7,343.3c-0.2,24.2,22.6,28,20.8,31.6"/>
			<path class="st11" d="M275.1,387.3c-5.5,4.1-17.3,16.3-18.8,22.7"/>
			<path class="st11" d="M256.8,410.2c1,0.4,34-10.1,45.9-13.3c6.9-1.8,14.2-20.9,14.8-22.3"/>
			<path class="st11" d="M194.5,105c57.8,19.2,77.1,75.3,77.1,110.5"/>
			<path class="st11" d="M108.9,363c2,5.8,2.9,11.5,1.8,17.5"/>
			<path class="st11" d="M275.5,387.1c12.6-2.4,21.1,3.6,26.9,9.5"/>
			<path d="M76.5,356.7c3.1,3.8,35.9,26.2,37.5,27.9"/>
			<path class="st12" d="M76.5,356.7c3.1,3.8,35.9,26.2,37.5,27.9"/>
			<polyline points="79.9,354.9 79.3,354.8 77.8,355.2 76.8,355.8 76.5,356.7 			"/>
			<polyline class="st12" points="79.9,354.9 79.3,354.8 77.8,355.2 76.8,355.8 76.5,356.7 			"/>
			<path class="st11" d="M76.8,356.9c6.1-0.2,27.7,6.4,33.1,12.2"/>
			<path class="st11" d="M256.9,409.4c4.9-6.8,26.6-19.6,30-21.2"/>
			<path class="st11" d="M140.4,238.2c38.8,11.2,78.3,3.2,82.6,1"/>
			<path class="st11" d="M140.4,238.2c0.4-2.5-2.7,2-3.3,3.3c-0.9,1.9,1,3.5,1,4.5c-0.1,1.1-1.9,3.7-2.4,5
				c-3.5,9.4-11.9,21.5-6.7,31.6"/>
			<path class="st11" d="M116.2,333.6c16.6,9.8,40.1,10.3,64.3,10.3"/>
			<path class="st11" d="M115.6,333.2c-1.8-11.3,2.4-25.7,6.6-36.2c1.7-4.4,4.9-8.6,6.3-13"/>
			<path class="st11" d="M271.4,214.3c0.1,1.1-0.1,2.5-0.2,3.9"/>
			<path class="st11" d="M271.6,216c0.2,1.3,0,2.6,0.2,3.9"/>
			<path class="st13" d="M184.8,120.1c34.8-0.3,48,18.4,48,18.4"/>
			<path class="st13" d="M156,123.2c-25,3.8-37,24.8-37,24.8"/>
			<path class="st14" d="M156.6,147.2c-0.1-2.3,4.1-4.4,9.3-4.7c5.2-0.3,9.6,1.4,9.7,3.6c0.1,2.3-4.1,4.4-9.3,4.7
				C161,151.1,156.7,149.5,156.6,147.2z"/>
			<path class="st11" d="M205.8,250.7c-11,3.9-53.8,3.6-67.2-5.3"/>
			<path class="st11" d="M146.5,240.1c-0.5,1.6-1.1,2.8-1.1,4.6"/>
			<path class="st11" d="M156.4,242.1c-0.7,1.5-0.9,3.4-0.9,5.1"/>
			<line class="st11" x1="168.3" y1="243.6" x2="167.6" y2="247.6"/>
			<polyline class="st11" points="176.6,244.7 176.6,245.4 176.6,245.8 176.6,246.5 176.6,246.9 176.6,247.4 176.6,247.8 			"/>
			<line class="st11" x1="271.3" y1="256" x2="273.4" y2="259.2"/>
			<polyline class="st11" points="172,245 172,245.4 172,245.8 172,246.3 172,246.7 172,247.2 			"/>
			<polyline class="st11" points="204.7,243.6 204.7,244.1 204.7,244.5 204.7,245.4 204.7,245.8 			"/>
			<polyline class="st11" points="208,243.6 208,244.3 208,245 208,245.4 			"/>
			<path class="st5" d="M211.4,166.3c-0.3,0-0.6-0.1-0.9-0.1"/>
			<path class="st11" d="M136.6,117c-1.1-1.1-6.4-1.3-6.4-1.3c0-4.2,15.6-7,16.1-7.7c0.3-0.5-3.1-3.8,0.3-8.4
				c0.5-0.6,3.7,6.6,4.4,4.9c4.6-10.4,16.5-16.2,16.3-15.9c-2.6,2.3-2.5,7.5-2.5,11.7c0,0.1,5.3-8.1,5.8-7.1c0.2,0.3,4.1,7,5.8,7.4
				c1.3,0.3,1.5-4.5,2.6-4.1c1.6,0.5,1.9,2.6,15.5,8.5"/>
			<path class="st2" d="M228.9,332.9c-2.4-0.4-7.2,0.9-9.7,1.4c-5.5,1.2-11.8,2.2-17.1,0.4c-6.1-2.1-12.5-3.4-18.7-5.2
				c-0.5-0.2-1.2-1.4-1.7-1c0,0-1.7,1.5-1.7,1.9c0,1.3-0.5,2.8-0.6,4.1c-0.1,1.4-1.3,4.3-0.4,5.5c1,1.4,1.7,3.7,3,4.7
				c7.3,5.6,15.1,10.7,22.9,15c0.4,0.2,2-2.5,2-2.5c1.3-2.3,2.2-4.9,3.3-7.2c1.4-3,11.3-16.6,15-15.9"/>
			<path class="st2" d="M105.8,257c-1-0.8-3.8,6.7-4.6,8.1c-3,5.4-7.2,10.2-9.3,16.2c-1.9,5.6-6.4,12.9-6.3,18.9
				c0.1,8.2,5.4,19.4,10.6,25.5c1.7,2,7,6.5,9.5,7.4c4.6,1.7,6.5,2.5,11.2,4.1c7.2,2.5,19.9,2.2,27,0.4c7.9-2,17.5-5.4,24.1-9.9
				c5.1-3.5,8.7-7.7,12.3-13.1c3.2-4.8-5-9.4-9.1-10.8c-6.2-2.1-15.2,1.6-21,3.3c-5.4,1.5-10.9,0.3-15.9-1.5c-8.2-3-9.6-14-9.3-21.1
				c0.1-2.3,2.5-5,1.7-7.1C120.5,263,108.1,258.9,105.8,257z"/>
			<path class="st3" d="M97,313.6c20.8,29,81.2-5.3,81.8-22.9c0-1.2,4.9,10.2,4.9,10.2s-1.3,8-1.4,8.4c-0.4,1.5-1.2,2.8-1.9,4.2
				c-1.7,3.2-4.4,6.3-6.9,8.8c-2.4,2.3-3.1,2.3-5.4,4.7c-3.1,3.2-8.7,7.2-12.7,8.8c-4.3,1.7-12.4,2.7-17.3,3
				c-28,2-54-11.7-51.3-43.3c0.8-9.4,11.1-26.8,17.9-34.3C107,258.5,77.1,285.9,97,313.6z"/>
			<path class="st6" d="M168.4,328.1c-0.6-0.9,1.6-1.4,2.3-2.1c0.8-0.8,2.6-2.8,3.8-2.5c0.4,0.1,0.1,0.1,0.4,0.4
				c0.5,0.5,7.4,5.4,7.4,5.4c0.3,1.1-2.4,5.1-2.7,6.5c-0.1,0.2-0.9,4.3-1.2,4.2C173.6,338.3,170.7,331.7,168.4,328.1z"/>
			<path class="st3" d="M239,219.7c-0.7,0.3-4.9,2.3-4.5,3.1c0.4,0.8,27.9,10.8,44.4,36.4l2.2-0.9c0,0,22.2,28.7,10.2,61.6
				c-5,13.8-32.5,48.5-83.1,15.2c-8.9,1.8-25-3.3-34.8-11.2c-0.8-0.6-4.9,4.6-4.9,4.6c1.3,0.4,15.3,27.8,52,37.4
				c3.8,1,11.3,1.6,15.3,1.9c10.7,0.7,5.8,2.3,16-0.8c3.7-1.1,16.5-3.6,19.6-5.5c6.3-3.8,15.7-7.5,23.7-16.7
				c3.5-4,10.2-12.7,11-17.6c1.9-12.1,4-25.6,2.7-37.5c-2.1-20.1-6.4-19.7-11.7-34.1c2.2-0.6,2.6-4.7,2.6-4.7s-10.8-14.8-20.2-25.3
				C270.8,216.1,255.8,212.1,239,219.7z"/>
			<path class="st6" d="M170.8,303.9c0.8-0.2,2.5,0.5,3.2,0.7c1.6,0.5,3.2,1.2,4.5,2.1c0.8,0.6,2.9,4.7,3.8,4.8c0.3,0,1-5.8,1.1-6.3
				c0.5-4-0.4-14.5-4.8-16.2c-0.6-0.2-0.5,7.4-1.1,9c-0.7,1.8-2.5,3.4-4.1,4.4c-0.5,0.3-1.2,0.6-1.6,1
				C171.4,303.6,170.5,304,170.8,303.9z"/>
			<path class="st3" d="M127,345c18.2,0.1,41.4-16.7,40.8-16.7c-0.8,0-9.4,5.5-10.6,6.3c-3.6,2.6-11.4,4.2-15.8,4.6
				c-2.5,0.2-13.6-0.5-15.1,0.6c-0.5,0.4,1.3,9.8,2.2,10.5C129.7,351.1,126.2,345,127,345z"/>
			<path class="st15" d="M184.2,347.9c0.1-1.1,1.8,4.9,2.1,5.6c1.4,3.5,3.2,6.7,4.5,10.2c1.2,3.1,2.6,6,3.9,9c1.2,2.9,2.5,5.7,4,8.4
				c2.9,5.5,5.9,11.2,8.3,16.9c0.2,0.6,2.3,5.3,2.6,5.3c1.1,0.2,5.1-0.6,6.1-1.3c1-0.8,5.4-4.1,5.9-5.3c0.5-1.3-4.9-11.8-5.6-13.6
				c-3.1-7.2-5.9-16.5-11.4-22c-2.1-2.1-5.6-2.6-7.9-4.7C194.6,354.6,183.9,350.7,184.2,347.9z"/>
			<path class="st15" d="M174.1,322.8c0.6-4.6,6.9-7.3,8.3-12.1c0.1-0.2,0.4-1.7,0.8-1.7c0.8-0.1,2.1,4.5,2.4,5.1
				c0.7,1.5,8.3,17.4,8.1,17.6c-0.4,0.7-3.7-0.4-4.3-0.5C185.8,330.8,173.6,326.6,174.1,322.8z"/>
			<path class="st15" d="M39.6,18.8c0,0,9.2-12.2,10.9-8.8c1.7,3.4,3.1,8,3.1,8l3.4-6.5l120.2,281.8c0,0-6.3,20.4-13.2,7.8
				C152.4,279.8,39.6,18.8,39.6,18.8z"/>
			<path class="st11" d="M130.1,226.9c-2.5,1.9-4.9,3.9-7.3,6.1c-8,7.3-14.7,15.6-17.7,19.6c-1.8,2.4-1.7,4.2,2,6"/>
			<path class="st11" d="M127.2,276.2c-12.6,30.3,21.4,40.6,36.1,25.7"/>
			<path class="st11" d="M156.3,306.7c9.5-3.2,16.9-5,24.4,3.8"/>
			<path class="st11" d="M174.5,288.4c5.4,1.8,2.9,19.8-11.1,13.9"/>
			<path class="st11" d="M177.8,289.8c5.5,4.4,4.2,11.2,1.3,17.2"/>
			<path class="st11" d="M173.7,323.5c27.1,21,98.4,16.6,77-39.3"/>
			<path class="st11" d="M168,328.3c1.4,1.7,13.7,26.1,47.8,36.3c37.1,11,68-5.9,81.8-22.5c17.9-21.5,15.7-65.3-0.9-87"/>
			<path class="st11" d="M181.9,328.8c-2,1-4.5,13.1-2.4,14.2"/>
			<path class="st11" d="M183.9,347.4c0,0,2.7,6.3,6.3,14.8c7.5,17.6,19.1,44.5,19.5,43.4c2.2-7.2,13.3-8.9,14-6.6
				c-3.3-7.5-18.1-38.2-18.1-38.2"/>
			<path class="st11" d="M183.2,309.1c-0.1-0.1,4.2,8.6,7.5,15.4c2.1,4.2,3.8,7.7,3.8,7.7"/>
			<path class="st11" d="M39.7,18.4c-0.3-2.2,7.9-9.2,10.3-9.2c2.3,0,1.6,9.3,3.3,9.6c2.3,0.4,3.9-8.5,3.9-8.5l119.2,283.7"/>
			<line class="st11" x1="39.3" y1="19" x2="163" y2="302"/>
			<path class="st11" d="M297.4,255c1.4-0.2,3.2-1.2,1.4-5.1c-6.4-14.6-34-47.3-61.7-29.3c-13.3,8.6-14.1,22.5-10,35.4
				c3.6,11.3,10.9,21.8,16.7,26.9c3.6,3.2,4.6,3.4,6.3,1.6"/>
			<path class="st11" d="M105.8,258.6c-2.9,1.5-40,48.4-1.7,73.9c17.6,11.7,54.9,9.9,74.7-16c6.8-9,7.9-28-3-28"/>
			<path class="st11" d="M297.7,248.3c-23.6-1.5-40.5,17.7-40.5,17.7"/>
			<path class="st16" d="M157.7,153c3,5.6,16.3,5.2,20.1-1.2"/>
			<path class="st16" d="M165.5,150.5c0,0-1,3.9,1.2,5.8"/>
			<path class="st17" d="M195,143.2c4.9-3.6,17-4.2,24.1,0.5"/>
			<path class="st17" d="M127.6,151c6.3-7.3,17.1-4.8,18.9-3.9"/>
			<path class="st3" d="M173.3,303.5c-0.2-0.1-0.3-0.2-0.5-0.2"/>
			<path class="st3" d="M171.2,303.9c3.4-2.6,5.4-5,6-9.1c0.2-1.2-0.6-4.8,0-5.6c0.2-0.2,1.7,0.4,1.9,0.5c4.5,2.2,5.6,12.9,3.8,17
				c-0.4,0.9-0.6,3.7-1.6,4.1c-2.1,0.8-5.2-3.8-6.6-4.7C173.6,305.3,170.9,304.1,171.2,303.9z"/>
			<path class="st6" d="M237.1,426.4c0-0.1,0-0.2,0-0.4"/>
			<path class="st6" d="M267.8,415.7c0-0.1-0.1-0.2-0.1-0.3"/>
			<path class="st6" d="M262.1,393.1c-0.1-0.1-0.1-0.1-0.2-0.2"/>
			<path class="st3" d="M53.3,19.1L49.5,9l-2.4,2.3l125.6,288.5c2.1,3.9,5.2-6,5.2-6L63.8,26.6l-6.4-15.1L53.3,19.1z"/>
			<path class="st3" d="M174.1,322.8c-1.9,4.9,14.8,8,14.8,8l5.7,1.5l-11.2-21.8C183.4,310.5,175.3,319.8,174.1,322.8z"/>
			<polygon class="st3" points="184.9,350.1 198.5,364.2 215,401.3 222,397.5 204.9,361.3 			"/>
			<path class="st18" d="M45.8,13.4c-4,5.6,26.7,84.4,38,80.5C86.7,92.9,50.2,7.2,45.8,13.4z"/>
			<path class="st18" d="M116.4,165.1c-4,5.6,22.2,80.4,33.5,76.5C152.8,240.7,120.7,159,116.4,165.1z"/>
			<path class="st18" d="M104.2,135c-6,8.3,41.5,142.1,58.4,136.3C166.9,269.9,110.7,125.9,104.2,135z"/>
			<path class="st18" d="M128.4,188.4c-4.6-1.7,8,37.2,17.8,42.3C150.2,232.7,132.9,190.1,128.4,188.4z"/>
			<path class="st18" d="M133.2,194.2c-3.6-3.3,3.2,26.6,13.1,31.6C150.3,227.9,136.9,197.6,133.2,194.2z"/>
			<path class="st18" d="M198.6,361.7c-4.6-1.7,8,37.2,17.8,42.3C220.5,406,203.2,363.4,198.6,361.7z"/>
			<path class="st18" d="M51.9,30.8c-2.4,3.4,16.9,53,23.8,50.6C77.5,80.9,54.6,27.1,51.9,30.8z"/>
			<path class="st18" d="M112.1,142.2c0,0-13.2-38.2-20.6-36.4c-13.1,3.2,59.3,181.1,77.1,188.3c10.4,4.2,0-19.1,0-19.1"/>
			<path class="st5" d="M209.3,407c-5.3-0.7,11.7-11.8,15.2-7.5C225.2,400.3,217.3,408.1,209.3,407z"/>
			<path class="st19" d="M183.7,14.9c7.1-0.8,15,83.4,23.2,94.4c6.1,8.2,46.6,24.3,62.2,79.4c33.3,0.3,37.5,26.2,86.3,21.9
				c-28.1-18-30.7-119-39.7-143.5c-8.1-22.2-50.1-18.9-69.5-18.9c-14.6,0-13.9,3.3-29.9,0.6c-11.2-1.9-9.6,1-15.9-8.4
				C198.8,37.9,190.3,8.9,183.7,14.9z"/>
			<polyline class="st11" points="204.7,243.6 204.7,244.1 204.7,244.5 204.7,245.4 204.7,245.8 			"/>
			<polyline class="st11" points="208,243.6 208,244.3 208,245 208,245.4 			"/>
		</g>
		<g>
			<defs>
				<path id="SVGID_1_" d="M139.9,249l21.7,52.7l-46.1-0.3L139.9,249z M157.5,248.1l0.4,0.9l27.3,64.5l32.7-18l-5.8-37.5
					L157.5,248.1z"/>
			</defs>
			<clipPath id="SVGID_00000013164219803781342050000004990754595088321966_">
				<use xlink:href="#SVGID_1_"  style="overflow:visible;"/>
			</clipPath>
			<g style="clip-path:url(#SVGID_00000013164219803781342050000004990754595088321966_);">
				<g>
					<path class="st5" d="M156.8,263.4c6.8,0.2,12.5,0.3,18,0.6c4.5,0.3,5.4,3.5,4.4,6.5c-1.3,4.2-4.7,7-9.4,8.3
						c-0.3,0.1-0.5,0.1-1,0.2c3.5,2.7,2,8.1,4.8,13c-3.5-0.2-6.6-0.4-9.9-0.6c-1.6-3.1-2.3-6.2-2.6-9.1c-0.2-1.6-0.6-2.8-3.4-2.4
						c-1.9,3.5-3.5,7.1-3.3,11.1c-3.1-0.1-6-0.2-9.1-0.2C145.7,280.4,153.9,273.1,156.8,263.4z M163.9,269.3c-0.9,1.8-1.8,3.5-3,5.5
						c2-0.1,3.8,0,5.7-0.2c1.7-0.2,3-1.1,3.7-2.5c0.8-1.4,0.4-2.5-1.2-2.7C167.5,269.2,165.8,269.3,163.9,269.3z"/>
					<path class="st5" d="M204.4,272c-3.1,0.2-5.8,0.3-8.5,0.4c0.4-2.4-0.7-3.7-2.9-3.8c-1.4-0.1-2.7,0.4-3.8,2
						c-0.4,1.4,0.3,1.9,1.2,2.2c1.7,0.6,3.6,1.1,5.4,1.7c1,0.3,2,0.8,2.9,1.3c6,3.2,2.7,11.5-3,15.2c-1.9,1.2-4.1,2-6.1,2.3
						c-3.3,0.5-6.5,0.2-9.6-0.9c-4.1-1.4-6.4-5.3-4.6-9.9c2.6,0,5.2,0,8-0.1c0,0.6-0.1,1.1-0.1,1.6c0.1,2.8,2.7,4.3,5.7,3.3
						c1.4-0.4,2.5-1.3,2.9-2.7c0.4-1.2,0-2.2-1-2.7c-0.8-0.4-1.7-0.7-2.6-1.1c-1.8-0.7-3.6-1.2-5.1-2.1c-2.9-1.7-3.3-4.4-1.9-7.5
						c1.6-3.5,4.3-6.3,8-7.4c3.5-1,7-1,10.5,0.1C203.7,265.4,205.3,267.8,204.4,272z"/>
				</g>
			</g>
		</g>
	</g>
</g>
<g>
	<g>
		<path class="st21" d="M12.2,39c-0.7-0.6-1.6-1.8-2.4-3.6c-1.8-4.2-0.6-8.5,4.3-10.6c4.6-2,9.2-0.3,11.2,4.3
			c0.8,1.8,0.9,3.2,0.9,3.8l-1.8,0.2c0-0.9-0.2-2-0.7-3.3c-1.5-3.5-4.7-4.8-8.6-3.1c-3.6,1.6-5.1,4.7-3.5,8.3c0.5,1.2,1.3,2.2,2,2.9
			L12.2,39z"/>
		<path class="st21" d="M32.2,45.6l-14.8,6.5l-0.8-1.9l13.2-5.8l-2.1-4.9l-4.5,2c-3.2,1.4-6.9,2.8-9.2,1.4c-0.6-0.4-1.3-1.1-1.7-2
			l1.4-0.9c0.4,0.5,1,1,1.5,1.2c1.7,0.7,4.6-0.5,7-1.5l6.2-2.7L32.2,45.6z"/>
		<path class="st21" d="M24.5,55.8l-5.3,0.5l-0.9-2l17-1.4l1,2.3L23.7,66.7l-0.9-2l4-3.6L24.5,55.8z M28.1,60l3.6-3.3
			c0.8-0.8,1.6-1.4,2.4-2l0,0c-1,0.2-2,0.3-3,0.4l-4.9,0.4L28.1,60z"/>
		<path class="st21" d="M39.3,62.5c0.5,0.8,1.2,2,1.8,3.4c0.8,1.9,1,3.3,0.7,4.5c-0.2,1-0.9,1.9-2.1,2.4c-1.4,0.6-3.1,0.2-4.4-1.1
			l0,0c0.3,1.6-0.2,3.7-2.4,4.7c-1.3,0.6-2.5,0.5-3.5,0c-1.4-0.6-2.6-2.1-3.6-4.5c-0.6-1.3-0.9-2.4-1.1-3L39.3,62.5z M27,70.2
			c0.1,0.4,0.3,1,0.6,1.6c0.9,2,2.4,3.5,4.5,2.5c2-0.9,2.1-3,1.2-5.1l-0.7-1.6L27,70.2z M34.1,67.1l0.8,1.7c0.9,2,2.5,2.8,3.9,2.1
			c1.7-0.8,1.8-2.4,1-4.3c-0.4-0.9-0.7-1.4-0.9-1.6L34.1,67.1z"/>
		<path class="st21" d="M35.6,81.2l-5.3,0.5l-0.9-2l17-1.4l1,2.3L34.8,92.1l-0.9-2l4-3.6L35.6,81.2z M39.2,85.4l3.6-3.3
			c0.8-0.8,1.6-1.4,2.4-2l0,0c-1,0.2-2,0.3-3,0.4l-4.9,0.4L39.2,85.4z"/>
		<path class="st21" d="M52.8,93.1l-5,5.7c-0.7,0.8-1.4,1.5-2.1,2.2l0,0c0.9-0.1,1.9-0.2,3.1-0.2l7.3-0.4l0.9,2l-9,0.2
			c-2.3,0-5,0.1-6.8-0.3c-1.6-0.4-2.7-1.2-3.3-2.6c-0.2-0.5-0.3-0.9-0.3-1.1l1.6-0.5c0,0.2,0.1,0.4,0.2,0.7c0.7,1.5,2.6,1.8,3.8,1.8
			c0.4,0,0.6-0.1,0.9-0.5l7.8-9.3L52.8,93.1z"/>
		<path class="st21" d="M58.4,105.8l-6.6,2.9l0.3,0.6l8.8,2.2l1,2.3l-9.2-2.6c0.7,2.6-0.3,4.2-2,5.8c-1.3,1.2-2.5,2.2-3.5,3.5
			l-0.9-2.1c0.8-1,1.9-2,2.9-2.9c1.7-1.5,2.6-3.1,1.5-5.6l-0.3-0.6l-6.8,3l-0.8-1.9l14.8-6.5L58.4,105.8z"/>
		<path class="st21" d="M62.6,116c0.6,0.9,1.2,2,1.9,3.5c0.8,1.9,1,3.5,0.6,4.7c-0.3,1.1-1.2,2.1-2.5,2.7c-1.3,0.6-2.6,0.7-3.7,0.2
			c-1.5-0.5-2.8-2-3.6-3.8c-0.2-0.6-0.5-1.1-0.5-1.6l-5.9,2.6l-0.8-1.9L62.6,116z M56.3,121c0.1,0.5,0.3,1,0.5,1.7
			c1,2.3,2.7,3.2,4.8,2.3c2-0.9,2.3-2.7,1.4-4.8c-0.4-0.8-0.7-1.4-0.9-1.7L56.3,121z"/>
		<path class="st21" d="M58,132.6l-5.3,0.5l-0.9-2l17-1.4l1,2.3l-12.6,11.5l-0.9-2l4-3.6L58,132.6z M61.6,136.8l3.6-3.3
			c0.8-0.8,1.6-1.4,2.4-2l0,0c-1,0.2-2,0.3-3,0.4l-4.9,0.4L61.6,136.8z"/>
		<path class="st21" d="M73.8,141l-6.2,2.7c-2.4,1-4.3,1.8-6.3,2.6l0,0.1c1.9,0.1,3.9,0.3,6.1,0.6l9.7,1.5l0.8,1.9L63,156.8
			l-0.8-1.8l6.3-2.8c2.4-1,4.2-1.8,6.1-2.5l0-0.1c-1.9,0-4.1-0.3-6.2-0.6l-9.4-1.4l-0.9-2l14.8-6.5L73.8,141z"/>
		<path class="st21" d="M80.1,155.6l-6.2,2.7l3.1,7.2l6.2-2.7l0.8,1.9l-14.8,6.5l-0.8-1.9l7-3l-3.1-7.2l-7,3l-0.8-1.9l14.8-6.5
			L80.1,155.6z"/>
		<path class="st21" d="M81,179.1l-2.5-5.8l-5.3,2.3l2.8,6.4l-1.6,0.7l-3.6-8.3l14.8-6.5l3.5,8l-1.6,0.7l-2.7-6.1l-4.7,2l2.5,5.8
			L81,179.1z"/>
		<path class="st21" d="M76.4,184.4c0.8-0.3,1.6,0,1.9,0.7c0.3,0.8,0,1.5-0.8,1.9c-0.8,0.3-1.6,0.1-1.9-0.7
			C75.2,185.5,75.6,184.7,76.4,184.4z M79.7,183.6l10.4-4.9l0.9,2.1l-10.7,4.3L79.7,183.6z"/>
	</g>
</g>
</svg>
