<?xml version="1.0" encoding="utf-8"?>
<!-- Generator: Adobe Illustrator 26.0.3, SVG Export Plug-In . SVG Version: 6.00 Build 0)  -->
<!DOCTYPE svg PUBLIC "-//W3C//DTD SVG 1.1//EN" "http://www.w3.org/Graphics/SVG/1.1/DTD/svg11.dtd" [
	<!ENTITY ns_extend "http://ns.adobe.com/Extensibility/1.0/">
	<!ENTITY ns_ai "http://ns.adobe.com/AdobeIllustrator/10.0/">
	<!ENTITY ns_graphs "http://ns.adobe.com/Graphs/1.0/">
	<!ENTITY ns_vars "http://ns.adobe.com/Variables/1.0/">
	<!ENTITY ns_imrep "http://ns.adobe.com/ImageReplacement/1.0/">
	<!ENTITY ns_sfw "http://ns.adobe.com/SaveForWeb/1.0/">
	<!ENTITY ns_custom "http://ns.adobe.com/GenericCustomNamespace/1.0/">
	<!ENTITY ns_adobe_xpath "http://ns.adobe.com/XPath/1.0/">
]>
<svg version="1.1" id="Слой_1" xmlns:x="&ns_extend;" xmlns:i="&ns_ai;" xmlns:graph="&ns_graphs;"
	 xmlns="http://www.w3.org/2000/svg" xmlns:xlink="http://www.w3.org/1999/xlink" x="0px" y="0px" width="412.2px" height="344.5px"
	 viewBox="0 0 412.2 344.5" style="enable-background:new 0 0 412.2 344.5;" xml:space="preserve">
<style type="text/css">
	.st0{fill:#FFFFFF;}
	.st1{opacity:0.23;fill:#3F2719;}
	.st2{fill:none;stroke:#2D1F04;stroke-width:8.0658;stroke-linecap:round;stroke-linejoin:round;stroke-miterlimit:10;}
	.st3{fill:none;stroke:#2D1F04;stroke-width:2.62;stroke-linecap:round;stroke-linejoin:round;stroke-miterlimit:10;}
	.st4{fill:#2D1F04;}
	.st5{fill:#FF8A8A;}
	.st6{fill:#CAA77A;}
	.st7{fill:#D2D2D2;}
	.st8{fill:#FFDBAF;}
	.st9{fill:#9D7B51;}
	.st10{fill:#A6A6A6;}
	.st11{fill:#251707;}
	.st12{fill:#FFDB1F;}
	.st13{opacity:0.35;}
	.st14{opacity:0.26;}
	.st15{opacity:0.15;}
	.st16{opacity:0.24;}
	.st17{fill:none;stroke:#9D7B51;stroke-width:3.87;stroke-linecap:round;stroke-linejoin:round;stroke-miterlimit:10;}
	.st18{opacity:0.32;fill:#FFFFFF;}
	.st19{fill:none;stroke:#2D1F04;stroke-width:2.37;stroke-linecap:round;stroke-linejoin:round;stroke-miterlimit:10;}
	.st20{fill:#B2B2B2;}
	.st21{fill:none;stroke:#2D1F04;stroke-width:2.6;stroke-linecap:round;stroke-linejoin:round;stroke-miterlimit:10;}
	.st22{fill:none;stroke:#2D1F04;stroke-width:3.2369;stroke-linecap:round;stroke-linejoin:round;stroke-miterlimit:10;}
	.st23{fill:none;stroke:#2D1F04;stroke-width:2;stroke-linecap:round;stroke-linejoin:round;stroke-miterlimit:10;}
	.st24{fill:none;stroke:#2D1F04;stroke-width:2.79;stroke-linecap:round;stroke-linejoin:round;stroke-miterlimit:10;}
	.st25{fill:#3A3A3A;}
	.st26{fill:#7FC6E2;}
</style>
<metadata>
	<sfw  xmlns="&ns_sfw;">
		<slices></slices>
		<sliceSourceBounds  bottomLeftOrigin="true" height="344.5" width="412.2" x="754.5" y="-711.8"></sliceSourceBounds>
	</sfw>
</metadata>
<path class="st0" d="M298,11.4c-1.1,0-2.1,0-3.2,0l-0.5,0c-0.8,0-1.7,0.1-2.5,0.1l-1.2,0.1c-0.2,0-0.3,0-0.5,0l-1.5,0.1l-1.2,0.1
	c-0.6,0.1-1.2,0.1-1.9,0.2c-0.4,0-0.8,0.1-1.3,0.1c-0.6,0.1-1.2,0.1-1.8,0.2c-0.4,0.1-0.8,0.1-1.2,0.2c-0.6,0.1-1.2,0.2-1.8,0.3
	l-1.1,0.2c-0.7,0.1-1.4,0.3-2.1,0.4l-0.8,0.2c-2.4,0.5-4.9,1.1-7.4,1.8l-0.3,0.1c-1.5,0.4-3,0.8-4.4,1.3l-0.3,0.1
	c-3,1-5.9,2-8.8,3.2c0,0-0.1,0-0.1,0.1c-1.2,0.5-2.4,1-3.7,1.6c-1.8,0.3-3.7,0.4-5.7,0.4c-1.8,0-3.5-0.1-5.2-0.3
	c-0.5-1.3-1.3-2.4-2.3-3.4c-0.1-0.1-0.1-0.1-0.2-0.2c-1-1-2.3-1.7-3.6-2.2c-0.2-0.1-0.4-0.1-0.6-0.2c-0.3-0.1-0.5-0.1-0.8-0.2
	c-1-0.2-1.8-0.2-3.1-0.2c-3.9,0-14.2,0.4-15.3,0.5c-3.5,0.2-6.2,0.2-8.4,0.2l-4.5,0c-3.2,0-6.9,0.1-12,0.5
	c-6.7,0.6-13.4,1.7-19.9,3.4c-6.1,1.6-11.9,3.6-17.7,6.1c-0.1-0.3-0.3-0.7-0.5-1.1l-0.5-1.1c-0.6-1.2-1.2-2.2-2-3.1
	c0.1-0.5,0.2-1.1,0.2-1.7c0.1-1.9-0.3-3.7-1.1-5.3c-0.2-0.8-0.6-1.7-1-2.5c0-0.1-0.1-0.2-0.2-0.4c-0.3-0.6-0.6-1.2-0.9-1.9
	c0,0-1.2-2.5-1.3-2.6c-0.1-0.2-0.2-0.4-0.3-0.6l-0.3-0.6c-1.4-2.6-3.8-4.4-6.6-5.1c-0.7-0.2-1.5-0.2-2.2-0.2c-2.1,0-4.2,0.7-6,2
	l-0.3,0.3c-0.9,0.7-1.9,1.5-3,2.3l-6.2,4.7c-0.9,0.7-1.8,1.4-2.5,1.9c-0.8,0.6-1.7,1.3-2.6,2c-0.7,0.5-1.3,1.2-1.8,1.8
	c-1.3,0.3-2.2,0.7-2.7,0.9c-0.1,0.1-0.3,0.2-0.5,0.3c-0.4,0.2-0.8,0.4-1.3,0.7l-0.8,0.5c-0.2,0.1-0.5,0.3-0.7,0.4
	c-0.2,0.1-0.5,0.3-0.7,0.4c-0.2,0.1-0.5,0.3-0.7,0.4c-0.3,0.2-0.7,0.4-1.1,0.6c-0.5,0.3-1,0.6-1.4,0.8c-0.7,0.4-1.4,0.8-2.2,1.5
	c-1.1,1-2,2.2-2.6,3.5c-0.3,0.2-0.5,0.3-0.8,0.5c-0.7,0.5-1.4,1-1.9,1.3c-0.5,0.4-1.1,0.8-1.7,1.3c-0.5,0.4-1.1,0.8-1.6,1.2
	c-0.6,0.4-1,0.8-1.4,1.1c-0.7,0.5-1.1,0.9-1.3,1l-0.3,0.3C86.5,33.1,85.4,35,85,37c-0.6,0.3-1.1,0.7-1.6,1.2l-0.3,0.2
	c-0.3,0.3-0.8,0.8-1.5,1.5l-1.9,1.8c-0.7,0.6-1.3,1.2-1.8,1.7c-0.8,0.8-1.1,1.1-1.4,1.5l-0.2,0.3c-2,2.3-2.7,5.2-2.3,8
	c-2,0.5-3.8,1.6-5.2,3.2c0,0-1.2,1.4-1.6,1.9c-0.5,0.5-1.1,1.3-1.8,2.2c-0.4,0.4-0.8,0.9-1.1,1.4c-0.2,0.2-0.3,0.4-0.4,0.5
	c-0.4,0.4-0.7,0.8-0.9,1.1c-0.3,0.4-0.5,0.7-0.6,0.8l-0.2,0.3c-1.5,2.1-2,4.7-1.7,7.1c-2.4,1.8-4.5,4.1-6.4,7.2c0,0,0,0.1-0.1,0.1
	c-0.3,0.4-0.6,1-0.9,1.7c-0.3,0.5-0.5,1-0.8,1.6c-0.3,0.6-0.5,1.1-0.8,1.6c-0.3,0.7-0.6,1.3-0.8,1.9c-1,2.7-1.8,5.6-2.5,8.8
	c-0.2,0.8-0.3,1.3-0.3,1.8c-1.7,1.2-3,2.9-3.8,5l-0.2,0.4c-0.1,0.2-0.2,0.5-0.3,0.8c-0.1,0.3-0.3,0.7-0.5,1.2
	c-0.1,0.3-0.2,0.6-0.4,0.9l-1,2.5c-0.2,0.5-0.4,0.9-0.6,1.4c-0.1,0.2-0.2,0.5-0.3,0.6c-0.2,0.4-0.3,0.7-0.4,1
	c-0.1,0.2-0.2,0.4-0.2,0.6l-0.2,0.5c-0.8,1.9-1,4-0.6,6c-1.8,1.6-3.1,3.8-3.4,6.2l-0.1,0.4c-0.2,1.2-0.3,2.4-0.5,3.7l-1,7.7
	c-0.2,1.2-0.3,2.2-0.4,3.1c-0.1,1-0.3,2.1-0.4,3.3c-0.1,1.2,0,2.4,0.2,3.5c-0.2,0.2-0.4,0.5-0.6,0.8c-1.8,2.5-3.1,5.6-3.9,9.3
	c0,0,0,0.1,0,0.1c-0.1,0.6-0.2,1.2-0.3,1.9c-0.1,0.6-0.1,1.1-0.2,1.8c-0.1,0.6-0.1,1.2-0.2,1.8c-0.1,0.8-0.1,1.4-0.1,2
	c0,2.9,0.2,5.9,0.6,9.1c0.1,1,0.2,1.5,0.4,2.1c0,0.1,0,0.1,0.1,0.2c1.2,4.4,5.2,7.5,9.7,7.5c0,0,0,0,0,0c0.5,0,0.9,0,1.4-0.1
	c0.1,0,3.7,0,3.7,0l0.8,0c0.7,0,1.2,0,1.7,0c0,0,0.8,0,1,0c0.3,0,0.7,0,1.3,0c0,0,4.1,0,4.8,0c0.8,0,1.4,0,2,0
	c0.7,0.2,1.4,0.3,2,0.3c0.2,0,0.3,0,0.4,0c0.1,0,0.3,0,0.4,0.1c-10,3.1-19.5,8.3-27.4,15.1c-0.3,0.2-0.6,0.5-1,0.8
	c-0.6,0.5-1.2,1-1.8,1.5c0,0-0.1,0.1-0.1,0.1c-1.1,0.9-2,1.8-2.9,2.7c-0.1,0.1-0.2,0.2-0.2,0.2c-1.2,1.3-2.3,2.6-3.1,3.8
	c-2.4,3.5-3,6.7-2.9,9.3C8.8,227.2-8.7,250.6,5.1,271.2c3.1,4.7,7.6,8.4,13.1,11c7,3.3,15.8,4.8,27.6,4.8c7.9,0,16.6-0.7,24.7-1.5
	c1.7,0,6.4,0.2,6.4,0.2l2.4,0.2l1.5,0.2l1.2,0.1l1.4,0.2c0,0,2.5,0.4,2.6,0.4c0.3,0.3,0.7,0.7,1,1c9.4,7.9,23.5,19.8,35.8,30.2
	c2.2,3.8,6.1,9.6,12.6,10.6c10.3,8.7,12.5,10.5,13.2,11c4.2,3.4,9.5,5,16.1,5c2.9,0,5.8-0.3,8.4-0.6l28.2-1l155.1-5.6
	c7.3-0.1,14.3-3.5,18.7-9.3c3.1-4,4.7-8.7,4.7-13.6l4.8-114.1c17.9-20.7,27.7-47.1,27.7-74.6C412.2,62.6,361,11.4,298,11.4z"/>
<g>
	<g>
		<g>
			<path class="st0" d="M402.5,125.5c0,57.6-46.7,104.2-104.2,104.2c-35,0-66-17.3-84.9-43.7c-12.2-17.1-19.3-38-19.3-60.5
				c0-49.6,34.6-91.1,81-101.6c7.4-1.7,15.2-2.6,23.2-2.6C355.8,21.3,402.5,68,402.5,125.5z"/>
			<path class="st1" d="M309.9,74.2c-0.3,2.4-0.9,4.7-1.7,6.9c0.2,1.6,0.2,3.2,0.2,4.7c0,8.4-3.8,16.3-10.2,21.7
				c-2.7,36.9-23.9,61.3-34.7,73.8c-6.7,7.7-16.9,11.2-26.9,9.2c-7.7-1.5-15.6-3.1-23.2-4.6c-12.2-17.1-19.3-38-19.3-60.5
				c0-49.6,34.6-91.1,81-101.6c5.7-1.1,10-1.9,16-2.4c0,0.3-0.2,3.5-0.2,3.8c9.3,7.7,11.8,11.4,12.8,13c0,0,0.1,0.1,0.1,0.2
				c1.7,2.5,6.3,10.7,4.6,21C309.9,64,310.5,68.9,309.9,74.2z"/>
			<circle class="st2" cx="298.2" cy="125.5" r="104.2"/>
			<circle class="st3" cx="298.2" cy="125.5" r="94.7"/>
			<circle class="st4" cx="298.2" cy="125.5" r="5.2"/>
			<path class="st5" d="M373.4,125.5h-75.1l62.9-41.1C368.9,96.2,373.4,110.3,373.4,125.5z"/>
			<g>
				<path d="M291.3,50.5V40.2c-1.9,1.5-3.2,2.2-3.9,2.2c-0.3,0-0.6-0.1-0.8-0.4c-0.2-0.3-0.4-0.5-0.4-0.9c0-0.4,0.1-0.7,0.4-0.9
					c0.2-0.2,0.7-0.4,1.3-0.7c0.9-0.4,1.6-0.9,2.2-1.4c0.5-0.5,1-1,1.5-1.6c0.4-0.6,0.7-1,0.8-1.1c0.1-0.1,0.4-0.2,0.7-0.2
					c0.4,0,0.7,0.2,1,0.5c0.2,0.3,0.4,0.7,0.4,1.3v13c0,1.5-0.5,2.3-1.6,2.3c-0.5,0-0.8-0.2-1.1-0.5
					C291.4,51.6,291.3,51.1,291.3,50.5z"/>
				<path d="M302.5,49.4h5.9c0.6,0,1,0.1,1.3,0.4c0.3,0.2,0.5,0.6,0.5,1c0,0.4-0.1,0.7-0.4,0.9c-0.2,0.3-0.6,0.4-1.1,0.4h-8.3
					c-0.6,0-1-0.2-1.3-0.5c-0.3-0.3-0.5-0.7-0.5-1.1c0-0.3,0.1-0.6,0.3-1.1s0.4-0.8,0.7-1.1c1-1,1.9-1.9,2.7-2.7
					c0.8-0.7,1.4-1.2,1.7-1.5c0.6-0.4,1.1-0.9,1.5-1.3c0.4-0.4,0.7-0.9,0.9-1.4c0.2-0.5,0.3-0.9,0.3-1.4c0-0.5-0.1-0.9-0.3-1.3
					c-0.2-0.4-0.5-0.7-0.9-0.9c-0.4-0.2-0.8-0.3-1.3-0.3c-1,0-1.8,0.4-2.3,1.3c-0.1,0.1-0.2,0.4-0.4,0.9s-0.4,0.9-0.6,1.2
					c-0.2,0.3-0.5,0.4-1,0.4c-0.4,0-0.7-0.1-0.9-0.4c-0.2-0.2-0.4-0.6-0.4-1c0-0.5,0.1-1.1,0.4-1.6s0.6-1.1,1-1.5s1.1-0.8,1.8-1.1
					c0.7-0.3,1.6-0.4,2.5-0.4c1.2,0,2.1,0.2,3,0.5c0.5,0.2,1,0.6,1.4,1s0.7,0.9,0.9,1.5c0.2,0.6,0.3,1.1,0.3,1.7
					c0,0.9-0.2,1.8-0.7,2.6c-0.5,0.8-0.9,1.4-1.4,1.8c-0.5,0.4-1.3,1.1-2.4,2c-1.1,0.9-1.9,1.7-2.3,2.2
					C302.9,48.9,302.7,49.1,302.5,49.4z"/>
			</g>
			<g>
				<path d="M381.5,123.7c0.7,0,1.3-0.2,1.8-0.6s0.8-1,0.8-1.8c0-0.6-0.2-1.1-0.6-1.5c-0.4-0.4-0.9-0.6-1.6-0.6
					c-0.5,0-0.8,0.1-1.1,0.2s-0.5,0.3-0.7,0.5c-0.2,0.2-0.3,0.5-0.5,0.8c-0.2,0.3-0.3,0.6-0.4,0.9c-0.1,0.2-0.2,0.3-0.4,0.4
					c-0.2,0.1-0.4,0.1-0.7,0.1c-0.3,0-0.6-0.1-0.8-0.4c-0.3-0.2-0.4-0.6-0.4-1c0-0.4,0.1-0.8,0.4-1.2c0.2-0.4,0.6-0.8,1-1.2
					c0.5-0.4,1-0.7,1.7-0.9c0.7-0.2,1.4-0.4,2.3-0.4c0.7,0,1.4,0.1,2,0.3s1.1,0.5,1.6,0.9c0.4,0.4,0.8,0.8,1,1.3
					c0.2,0.5,0.3,1,0.3,1.6c0,0.8-0.2,1.4-0.5,1.9c-0.3,0.5-0.8,1.1-1.4,1.6c0.6,0.3,1.1,0.7,1.5,1.1c0.4,0.4,0.7,0.9,0.9,1.4
					s0.3,1,0.3,1.6c0,0.7-0.1,1.4-0.4,2c-0.3,0.6-0.7,1.2-1.2,1.7c-0.5,0.5-1.2,0.9-1.9,1.2c-0.7,0.3-1.6,0.4-2.4,0.4
					c-0.9,0-1.7-0.2-2.4-0.5c-0.7-0.3-1.3-0.7-1.8-1.2c-0.5-0.5-0.8-1-1.1-1.5c-0.2-0.5-0.4-1-0.4-1.3c0-0.4,0.1-0.8,0.4-1.1
					s0.6-0.4,1.1-0.4c0.2,0,0.4,0.1,0.6,0.2c0.2,0.1,0.3,0.3,0.4,0.4c0.4,1.1,0.8,1.8,1.3,2.3c0.5,0.5,1.1,0.8,1.9,0.8
					c0.5,0,0.9-0.1,1.4-0.3s0.8-0.6,1.1-1c0.3-0.5,0.4-1,0.4-1.6c0-0.9-0.2-1.6-0.7-2.1c-0.5-0.5-1.2-0.8-2-0.8c-0.2,0-0.4,0-0.7,0
					s-0.5,0-0.6,0c-0.4,0-0.7-0.1-1-0.3c-0.2-0.2-0.3-0.5-0.3-0.9c0-0.4,0.1-0.7,0.4-0.9c0.3-0.2,0.7-0.3,1.2-0.3H381.5z"/>
			</g>
			<g>
				<path d="M295.4,206.6c0.5-0.6,1.1-1.1,1.7-1.4c0.6-0.3,1.3-0.4,2-0.4c0.7,0,1.4,0.1,2,0.4c0.6,0.3,1.1,0.6,1.6,1.1
					c0.5,0.5,0.8,1.1,1.1,1.8c0.2,0.7,0.4,1.4,0.4,2.1c0,1.1-0.2,2-0.7,2.9s-1.2,1.5-2,2c-0.9,0.5-1.9,0.7-3,0.7
					c-1.3,0-2.4-0.3-3.3-0.9s-1.6-1.5-2.1-2.7s-0.7-2.7-0.7-4.4c0-1.4,0.1-2.7,0.4-3.8c0.3-1.1,0.7-2.1,1.3-2.8s1.2-1.3,2-1.7
					c0.8-0.4,1.7-0.6,2.7-0.6c1,0,1.8,0.2,2.6,0.6c0.7,0.4,1.3,0.8,1.7,1.4c0.4,0.6,0.6,1.1,0.6,1.6c0,0.3-0.1,0.6-0.4,0.8
					c-0.2,0.3-0.5,0.4-0.9,0.4c-0.3,0-0.6-0.1-0.9-0.3s-0.5-0.5-0.6-0.8c-0.2-0.5-0.5-0.8-0.8-1.1s-0.8-0.4-1.3-0.4
					c-0.4,0-0.8,0.1-1.2,0.3s-0.7,0.5-1,0.9C295.9,203.1,295.5,204.6,295.4,206.6z M298.5,213.7c0.8,0,1.4-0.3,1.9-0.9
					c0.5-0.6,0.7-1.4,0.7-2.5c0-0.7-0.1-1.3-0.4-1.8c-0.2-0.5-0.6-0.9-1-1.1s-0.9-0.4-1.3-0.4c-0.5,0-0.9,0.1-1.3,0.4
					c-0.4,0.2-0.8,0.6-1,1.1s-0.4,1-0.4,1.7c0,1,0.3,1.9,0.8,2.6C297,213.3,297.7,213.7,298.5,213.7z"/>
			</g>
			<path class="st4" d="M298.2,125.5c7.1-2.7,15.9-3.1,24.7-3.1c4.4,0,8.7-2.7,12.9-2c4.2,0.7,8.2,3.7,11.7,5.1
				c-3.6,1.4-7.5,4.4-11.7,5.1c-4.2,0.7-8.5-2-12.9-2C314.1,128.6,305.3,128.3,298.2,125.5L298.2,125.5z"/>
			<path class="st4" d="M368,80.5c-13.7,9.6-21.2,18-32.8,25.7c-11.7,7.6-23.7,14.5-36.9,19.4c9.7-10.2,20.9-18.4,32.5-26.1
				c11.7-7.5,22.7-10.8,36.9-19.4L368,80.5z"/>
		</g>
	</g>
	<path class="st6" d="M290.6,84c0.1,0.6-11.5-4.6-17.2-11.4c4.6,5.9,6.9,14.2,8.9,21.2c8.9,31.8-3.9,56.3-13.5,73.3
		c-42.5,0.2-89.8,0.5-89.8,0.5c-7.6,0-13.7,5.9-13.7,13.1l-2.1,45c-19.3-3-34.8-8.5-45.2-13.2C106.6,191.1,87,186,68.5,189.6
		c4.7-63.8,22-93.2,39.7-116.4c18.5-24.3,45.7-43.6,81.5-46.6c10.2-0.9,14.2-0.1,24.6-0.7c1.3-0.1,15.8-0.7,16.1-0.4
		c1.4,1.4-4.4,3.9-4.4,3.9s21.1,6.3,35.5-0.6c0.3-0.1-1.8,8.8-4.3,11.4c5.8,0,25,10.4,27.2,12.6c0.1,0.1,0.7,0.9,0.5,1
		c-1.2,0.6-13-2.1-13.5-2.2C271.9,52,288.7,62,289.3,69c0.2,3-14.4-3.7-14.4-3C274.9,66.5,288.3,72.4,290.6,84z"/>
	<path class="st7" d="M172.5,333.8c-6.6,0.7-13,1.4-17.6-2.2c-3.2-2.6-42.3-35.5-61.4-51.6c-3.7-3.1-1.6-9.2,3.2-9.4l64.6-2.8
		l-2.5,52.9c0,4,1.9,7.6,4.8,10.1C166,332.6,169.1,333.8,172.5,333.8z"/>
	<path class="st1" d="M290.6,84c0.1,0.7-11.5-4.6-17.2-11.4c4.6,5.9,6.9,14.2,8.9,21.2c1.1,3.9,1.8,7.6,2.3,11.3
		c-12-25.5-37.2-46.7-69.7-53c-36.3-6.9-71.7,2.8-96.9,43.6c-20.4,33.1-22.1,67.8-18.5,97.7c-9.6-5-20.5-5.8-31.1-3.8
		c4.7-63.8,22-93.2,39.7-116.4c18.6-24.3,45.7-43.6,81.5-46.6c10.2-0.9,14.2-0.1,24.6-0.7c1.3-0.1,15.8-0.7,16.1-0.4
		c1.4,1.4-4.4,3.9-4.4,3.9s21.1,6.3,35.5-0.6c0.3-0.1-1.8,8.8-4.3,11.4c5.8,0,25,10.4,27.2,12.6c0.1,0.1,0.6,0.9,0.5,1
		c-1.2,0.6-13-2.1-13.5-2.2C271.9,52,288.7,62,289.3,69c0.2,3-14.4-3.7-14.4-3C274.9,66.5,288.3,72.4,290.6,84z"/>
	<path class="st8" d="M116.8,126.7c-0.2-12.2,4.2-37.4,23.2-52.1c9.7-6.6,36,2.2,58.1,1.9c5.2,2.3,6.9,1.5,12.6,1.4
		c5.2-0.1,15.3-1.8,21.7,1.3c-7,0.4-5,4.8-3,7.5c5.1,6.6,21.6,12,34.3,20.8c14.5,10.1,11.3,25.2,8.3,37.8
		c-10.8,44.9-49,51.3-74.2,50.9C159.5,195.6,117.5,171.6,116.8,126.7z"/>
	<path class="st9" d="M197.7,115.6c-15.5-1.9-34.4,14-31.2,26.4s21.8,20.4,32,21.7c37.4,4.9,30.9-30.5,24.4-36.8
		c-1.5-1.4-4.2-4.5-6.4-4.8"/>
	<path class="st9" d="M186,103.2c-27.7,35.1-69.2,25.5-69.2,23.5C117,99.8,128.2,84,140,74.6c15.7-5.5,36.3,1.6,58.1,1.9
		C200.6,78.3,197.8,88.2,186,103.2z"/>
	<path class="st9" d="M234.2,93.6c-11.3,24.2-13.2,64.9,28.8,73.2c7.1-11.9,12.5-28,11.7-44.6c-1.1-4.9-5.5-10.6-13.5-16.3
		C251.5,99,242.6,95.1,234.2,93.6z"/>
	<path class="st0" d="M292.3,62.8c0.8,0.1,0.4,0.1,1.2-0.2"/>
	<path class="st0" d="M51.1,213.7c0.1-0.2,0.2-0.5,0.4-0.7"/>
	<path class="st10" d="M260.3,202.2c0-0.2,0-0.2,0.2-0.1"/>
	<path class="st3" d="M68.5,189.6c4.7-63.8,22-93.2,39.7-116.4c18.6-24.3,45.7-43.6,81.5-46.6c10.2-0.9,14.2-0.1,24.6-0.7
		c1.3-0.1,15.8-0.7,16.1-0.4c1.4,1.4-4.4,4-4.4,4s21.1,6.3,35.5-0.6c0.3-0.1-1.8,8.9-4.3,11.4c5.8,0,25,10.4,27.2,12.6
		c0.1,0.1,0.6,0.9,0.5,1c-1.2,0.6-13.5-2.2-13.5-2.2s17.4,10.2,17.9,17.3c0.2,3-14.4-3.7-14.4-3c0,0.5,13.4,6.4,15.8,18
		c0.1,0.6-11.5-4.6-17.2-11.4c4.6,5.9,6.9,14.2,8.9,21.2c14.2,50.8-26.8,82.9-22,95.7"/>
	<path class="st11" d="M222.8,124.7c0.9-3.4-5.1-7.9-13.4-10.2c-8.3-2.2-15.8-1.3-16.7,2c-0.9,3.4,5.1,7.9,13.4,10.2
		C214.4,129,221.9,128.1,222.8,124.7z"/>
	<path class="st1" d="M172.5,333.8c-1.7,0.2-3.4,0.4-5,0.5l-74.4-62.1c0.9-0.9,2.1-1.6,3.7-1.7l64.6-2.8l-2.5,52.9
		c0,4,1.9,7.6,4.8,10C166,332.6,169.1,333.8,172.5,333.8z"/>
	<path class="st12" d="M163.3,225.5l-0.4,8l-1.6,34.1l-4.7,0.2c0-0.1-0.1-0.2-0.1-0.2c-0.1-0.1-0.1-0.2-0.1-0.3
		c-0.2-0.5-0.4-1-0.7-1.4c-0.3-0.7-0.6-1.3-1-1.9c-0.4-0.9-0.9-1.7-1.4-2.6c-0.2-0.4-0.5-0.8-0.7-1.2c0-0.1-0.1-0.2-0.2-0.3
		c-0.3-0.5-0.5-0.9-0.8-1.3c-0.3-0.4-0.6-0.9-0.9-1.3c-0.3-0.4-0.6-0.9-0.9-1.3c-0.9-1.3-1.9-2.5-2.9-3.7c-0.3-0.3-0.5-0.6-0.8-1
		c-0.1-0.1-0.2-0.2-0.3-0.3c-0.3-0.3-0.5-0.6-0.8-0.9c-0.1-0.1-0.1-0.2-0.2-0.2c-0.3-0.3-0.6-0.6-0.8-0.8c-0.1-0.1-0.2-0.2-0.2-0.2
		c-0.3-0.3-0.6-0.6-0.9-0.9c-0.7-0.7-1.4-1.3-2.2-2c-0.4-0.3-0.7-0.6-1.1-0.9c-0.4-0.3-0.7-0.6-1.1-0.9c0,0-0.1,0-0.1-0.1
		c-0.4-0.3-0.7-0.6-1.1-0.8c-1.1-0.9-2.3-1.7-3.5-2.4c-0.4-0.3-0.8-0.5-1.2-0.7c-0.8-0.5-1.6-1-2.4-1.4c-2-1.1-4.1-2.1-6.2-3
		c-0.4-0.2-0.8-0.4-1.3-0.5c-0.4-0.2-0.9-0.3-1.3-0.5c-1.3-0.5-2.6-0.9-3.9-1.3c-0.4-0.2-0.9-0.3-1.3-0.4c-0.4-0.1-0.9-0.3-1.3-0.4
		c-1.3-0.4-2.6-0.7-3.9-1c-0.8-0.2-1.7-0.4-2.5-0.6c-0.5-0.1-0.9-0.2-1.4-0.3c-0.4-0.1-0.9-0.2-1.3-0.2c-1.7-0.3-3.4-0.6-5.1-0.8
		c-0.4-0.1-0.8-0.1-1.3-0.2c-0.4-0.1-0.8-0.1-1.3-0.2c-0.8-0.1-1.7-0.2-2.5-0.3c-1.8-0.2-3.5-0.3-5.2-0.4c-0.3,0-0.6-0.1-0.9-0.1
		c-1.2-0.1-2.4-0.1-3.6-0.2c-0.1-0.1-13.7-0.2-13.9-0.3c-12.9-7.3-27.1-7.8-36.7-9.4c-14.5-2.4,2.4-14,3.7-15.1
		c8.1-6.7,18.5-11.8,29.4-13.9c18.4-3.6,38.1,1.5,49.5,22.8l0,0C128.6,217.4,143.8,222.5,163.3,225.5z"/>
	<g>
		<g class="st13">
			<path class="st6" d="M149.9,281c-9.4-31.4-30.3-43.6-44.7-49.3c-29.5,4.3-53.9,20.3-60.3,41.8c31.7,5.2,80.4-4.6,92.5,22.3
				c5.6,12.4,10.4,20.2,13.7,19.3C156,313.8,154.1,295.1,149.9,281z"/>
			<path class="st7" d="M151,315.4c-3.3,0.9-8.2-6.9-13.7-19.3c-0.6-1.2-1.2-2.4-1.9-3.5c4.8-1.5,11.7-6.9,14.2-12.4
				c0.1,0.3,0.2,0.6,0.3,1C154,295.3,155.9,314,151,315.4z"/>
			<path class="st3" d="M105.2,231.7c18,7.1,36.4,21.5,44.7,49.3c4.2,14.1,6.1,32.8,1.2,34.2c-3.3,0.9-8.2-6.9-13.7-19.3
				c-12.1-26.9-60.8-17.1-92.5-22.3"/>
			<path class="st3" d="M135.4,292.3c5.2-1.2,12-6.5,14.1-12.7"/>
			<path class="st3" d="M144,287.5c2.4,3.8,6.7,13.7,7.9,27.3"/>
		</g>
		<g class="st14">
			<path class="st6" d="M138.6,284.1c-7.7-32.9-30.8-48.7-45.3-53.2c-9.2,15.4-28.9,26.5-34.2,43.1c27.8,2.3,58.1,3.3,66.1,24.2
				c4.8,12.7,9.3,20.8,12.6,20C142.8,317.2,141.9,298.4,138.6,284.1z"/>
			<path class="st7" d="M137.7,318.5c-3.4,0.7-7.8-7.4-12.6-20c-0.5-1.3-1.1-2.5-1.7-3.6c4.9-1.3,12.1-6.2,14.8-11.6
				c0.1,0.3,0.2,0.6,0.2,1C141.9,298.6,142.7,317.4,137.7,318.5z"/>
			<path class="st3" d="M93.3,230.9c18.7,7.7,38.1,23.2,45.3,53.2c3.4,14.3,4.3,33.1-0.7,34.2c-3.4,0.7-7.8-7.4-12.6-20
				c-9-23.4-45.6-21.9-75.6-25.1"/>
			<path class="st3" d="M123.4,294.6c5.2-0.9,12.3-5.8,14.8-11.9"/>
			<path class="st3" d="M132.3,290.2c2.2,3.9,5.9,14.1,6.4,27.7"/>
		</g>
	</g>
	<g>
		<g class="st15">
			<path class="st6" d="M158.4,226.6c-21-25.6-52-22.6-76.8-12.1c2.5,12.8,8.1,24.7,15.2,35.4c21.8-9.7,42.2-15.7,54.5-4.3
				c10.3,9.5,18.1,15,21.1,12.8C176.9,255.1,167.9,238.2,158.4,226.6z"/>
			<path class="st7" d="M172.4,258.7c-3,2.2-10.9-3.3-21.1-12.8c-1-0.9-2.1-1.8-3.2-2.5c4.3-3.4,9.2-11.1,9.6-17.3
				c0.2,0.3,0.4,0.5,0.7,0.8C167.9,238.5,176.9,255.4,172.4,258.7z"/>
			<path class="st3" d="M81.5,214.4c23.4-10,55.8-13.6,76.9,12.1c9.5,11.7,18.5,28.6,14,31.8c-3,2.2-10.9-3.3-21.1-12.8
				c-16.1-14.9-45.9-0.1-74.6,13.7"/>
			<path class="st3" d="M148,243c4.8-3.1,9.7-10.9,9.5-17.6"/>
			<path class="st3" d="M154.9,235c3.8,2.7,11.9,10.4,18.2,22.7"/>
		</g>
		<g class="st16">
			<path class="st6" d="M156.9,240.8c-18-26.9-47.3-28.1-73.7-20.6c1.4,13,4.7,26,9.8,38.2c22.8-7.7,43.9-11.9,55.1,0.7
				c9.3,10.4,16.6,16.7,19.8,14.8C172.6,271,165.3,253.3,156.9,240.8z"/>
			<path class="st7" d="M167.9,274.1c-3.2,1.9-10.5-4.3-19.8-14.8c-0.9-1-1.9-2-3-2.8c4.6-2.9,10.2-10.2,11.2-16.3
				c0.2,0.3,0.4,0.6,0.6,0.9C165.3,253.5,172.6,271.2,167.9,274.1z"/>
			<path class="st3" d="M82.9,220.2c25.2-7.3,55.7-6.7,74,20.6c8.4,12.5,15.7,30.2,11,33c-3.2,1.9-10.5-4.3-19.8-14.8
				c-14.3-16-44.2-5-73.5,5.9"/>
			<path class="st3" d="M145,256.2c5.1-2.7,10.7-9.9,11.1-16.6"/>
			<path class="st3" d="M152.6,248.8c3.6,3,10.9,11.4,16,24.3"/>
		</g>
		<g class="st13">
			<path class="st6" d="M157.3,256.2c-13.6-30.9-43.9-36-72.8-33c-4.5,13.5-7.5,26.2-9.9,41.8c29.9-5.4,59.9-10.1,70.8,7.6
				c7.3,11.9,13.4,19.3,16.9,18C167.4,288.7,163.3,270,157.3,256.2z"/>
			<path class="st7" d="M162.2,290.9c-3.5,1.3-9.6-6.1-16.9-18c-0.7-1.2-1.6-2.3-2.4-3.3c5.1-2.1,11.9-8.3,13.9-14.1
				c0.1,0.3,0.3,0.6,0.4,0.9C163.2,270.3,167.3,289,162.2,290.9z"/>
			<path class="st3" d="M84.4,223.3c25.5-3.3,58.6,0.6,72.8,33c6,13.8,10.1,32.5,5,34.4c-3.5,1.3-9.6-6.1-16.9-18
				c-10.9-17.7-40.9-13-70.8-7.6"/>
			<path class="st3" d="M142.8,269.3c5.4-1.7,12.2-7.9,13.8-14.4"/>
			<path class="st3" d="M151.6,263.4c3,3.6,8.7,13.2,11.5,26.7"/>
		</g>
	</g>
	<path class="st6" d="M161.4,307c-3.5,1.1-9.2-6.7-15.8-19c-19.5-36.4-111.8,7.8-132-22.4c-8.7-13,0.4-30,17.9-48.5
		c-1.5-1.1-2.5-2.8-0.5-5.3c1.3-1.7,2.8-3.3,4.4-4.9c11.3-0.9,34.9,0.8,50.6,21.4c24.8,1,58.9,7.1,72.5,44.1
		C163.7,286.5,166.6,305.4,161.4,307z"/>
	<path class="st7" d="M161.3,307.3c-3.5,1.1-9.2-6.7-15.8-19c-0.7-1.2-1.4-2.4-2.2-3.4c5.2-1.8,12.4-7.5,14.8-13.2
		c0.1,0.3,0.2,0.6,0.4,1C163.6,286.7,166.6,305.7,161.3,307.3z"/>
	<path class="st1" d="M163.8,303.3c-0.4,2-1.2,3.4-2.4,3.8c-3.5,1.1-9.2-6.7-15.8-19c-19.5-36.4-111.8,7.8-132-22.4
		c-8.7-13,0.4-30,17.8-48.5c-1.5-1.1-2.5-2.8-0.5-5.3c1.3-1.7,2.8-3.3,4.4-4.9c5.9-0.5,15.1-0.2,24.8,3c-5.8,3.5-13.4,8.4-14.5,10.3
		c-3.2-0.3-11.6,8.5-16.1,19.4c-4.5,10.9-7.2,29.4,9.6,29.6c16.9,0.2,74.3-12.2,91.6-3.4C144.3,272.8,151.1,291,163.8,303.3z"/>
	<path class="st12" d="M32.9,208.9c-1.5,1.8-5.8,6.1-1.5,8.2s13,2.7,18.7,3.7c5.7,0.9,16.1,4.8,22.5,7.4c3.6-0.1,10.2-0.1,13.9,0.1
		c-4.5-5.8-10.3-12-22-17c-11.7-4.9-24.1-5.2-29.3-4.7C34.5,207.4,32.9,208.9,32.9,208.9z"/>
	<path class="st1" d="M112.1,203.6c-23.6-10.5-54.2,2.5-54.8,5.3c-8.3,0-12.1,9.2-9.8,11.5c-4.4-0.7-8.6-1.1-12.1-1.7
		c-14.5-2.4,2.4-14,3.7-15.1c8.1-6.7,18.5-11.8,29.4-13.9C84.1,186.7,100.5,189.8,112.1,203.6z"/>
	<path class="st3" d="M72.2,228.1c23.8,0,69.9-0.3,86.3,44.3c5.2,14.1,8.2,33.1,2.9,34.7c-3.5,1.1-9.2-6.7-15.8-19
		c-19.5-36.4-111.8,7.8-132-22.4c-8.7-13,0.4-30,17.9-48.5"/>
	<path class="st3" d="M123.9,227.2c-15.8-56.6-72.4-41.4-93-15.4c-1.6,2.1-1.7,4.1,0.5,5.3c2.6,1.5,10.3,2.1,19.3,3.8"/>
	<g>
		<line class="st3" x1="51.9" y1="208.1" x2="49.6" y2="212.7"/>
		<line class="st3" x1="62.9" y1="211.4" x2="60.5" y2="216"/>
		<path class="st3" d="M35.3,206.9c11-1,33.6,0.5,50.3,20.9"/>
	</g>
	<line class="st17" x1="165.1" y1="49.2" x2="162.8" y2="56.5"/>
	<line class="st17" x1="41" y1="249.1" x2="43.4" y2="256.4"/>
	<line class="st17" x1="46.4" y1="244" x2="48.7" y2="251.3"/>
	<line class="st17" x1="173.7" y1="50.1" x2="171.4" y2="57.4"/>
	<g>
		<path class="st7" d="M375.6,179.7L369.9,314c0,7.3-6.1,13.2-13.7,13.2L201,332.8l-28.5,1c-3.4,0-6.4-1.2-8.8-3.1
			c-3-2.4-4.8-6-4.8-10.1l2.5-52.9l4.1-87.1c0-7.2,6.1-13.1,13.7-13.1c0,0,61.2-0.3,106.9-0.6c45.7-0.3,76-0.4,76-0.4
			C369.5,166.5,375.6,172.4,375.6,179.7z"/>
		<path class="st18" d="M187.7,175c-7.6,0.3-12.8,5.9-13.7,13.1c-4.6,37.3-9.5,79.5-15.2,132.6l2.5-52.9l4.1-87.1
			c0-7.2,6.1-13.1,13.7-13.1c0,0,61.2-0.3,106.9-0.6c45.7-0.3,76-0.4,76-0.4C282.4,170.7,235.6,172.9,187.7,175z"/>
		<path class="st1" d="M375.6,179.7L369.9,314c0,7.3-6.1,13.2-13.7,13.2L201,332.8l-28.5,1c-3.4,0-6.5-1.1-8.8-3.1
			c-5.7-5.1-4.8-8.8-4.6-16c1.3,6.9,6.8,11.5,13.4,11.7l21.8-0.8l155.2-5.7c7.6,0,13.7-5.9,13.7-13.2c0,0,4.5-114.7,4.8-122.6
			s-3.8-15.1-14.6-17.7c7,0,13.1-0.7,16.6,2.5C373.6,172.5,375.6,176.9,375.6,179.7z"/>
		<line class="st19" x1="153.7" y1="322.7" x2="102.9" y2="280.3"/>
		<path class="st19" d="M361.9,166.5c7.6,0,13.7,5.9,13.7,13.2L369.9,314c0,7.3-6.1,13.2-13.7,13.2L201,332.8l-28.5,1
			c-3.4,0-6.5-1.2-8.8-3.1c-3-2.4-4.8-6-4.8-10l6.5-140c0-7.3,6.1-13.1,13.7-13.1c0,0,61.2-0.3,106.9-0.6
			C331.6,166.7,361.9,166.5,361.9,166.5z"/>
		<path class="st19" d="M92.1,273.6c-0.9,2-0.6,4.6,1.4,6.3c19.1,16.1,58.2,49.1,61.4,51.6c4.6,3.6,11,3,17.6,2.2"/>
		<g>
			<g>
				<path d="M257.4,230.2c4.8,0.1,9.6,0.2,14.3,0.4c3.9,0.2,5.3,3,5.4,5.8c0.2,3.8-1.5,6.4-4.7,7.8c-0.2,0.1-0.4,0.1-0.7,0.2
					c3.8,2.4,4.3,7.1,6.5,11c-2.8,0-5.2,0-7.8,0c-1.2-2.6-2.4-5.2-3.5-7.8c-0.6-1.4-1.5-2.5-3.4-2.1c-0.1,3.3-0.2,6.6-0.2,10
					c-2.3,0-4.4,0-6.7,0C256.7,247.1,257.2,238.8,257.4,230.2z M264,235.5c-0.1,1.7-0.1,3.3-0.2,5.2c1.5-0.1,2.9-0.1,4.4-0.3
					c1.3-0.2,2-1.1,2-2.4c0.1-1.3-0.6-2.3-1.9-2.5C266.9,235.4,265.5,235.5,264,235.5z"/>
				<path d="M298,237.4c-2.2,0.2-4.2,0.3-6.3,0.5c-0.2-2.1-1.3-3.2-3.2-3.3c-1.2,0-2.2,0.4-2.7,1.8c0,1.2,0.7,1.6,1.6,1.9
					c1.6,0.5,3.2,0.9,4.7,1.4c0.9,0.3,1.7,0.7,2.5,1.1c5.1,2.7,4.2,9.9,0.4,13c-1.3,1-2.8,1.7-4.4,2c-2.5,0.5-5,0.4-7.4-0.3
					c-3.2-1-5.2-4.1-5.1-8.2c2.1-0.1,4.1-0.3,6.3-0.4c0.1,0.5,0.2,1,0.3,1.4c0.7,2.4,2.9,3.5,5,2.6c0.9-0.4,1.6-1.2,1.7-2.3
					c0.1-1.1-0.4-1.9-1.3-2.3c-0.7-0.4-1.5-0.6-2.2-0.8c-1.5-0.6-3.1-1-4.6-1.7c-2.9-1.4-4.2-3.8-4-6.6c0.3-3.2,2.2-5.7,5.3-6.6
					c2.9-0.9,5.9-0.9,8.8,0.1C296.5,231.6,297.9,233.7,298,237.4z"/>
			</g>
		</g>
	</g>
	
		<ellipse transform="matrix(0.3759 -0.9267 0.9267 0.3759 -0.9759 210.3343)" class="st20" cx="155.7" cy="105.9" rx="23.5" ry="19.7"/>
	
		<ellipse transform="matrix(0.3759 -0.9267 0.9267 0.3759 28.074 319.2413)" class="st20" cx="251" cy="138.8" rx="23.5" ry="19.7"/>
	<g>
		<path class="st0" d="M259.8,114.9L259.8,114.9c8.5,3.1,12.8,12.4,9.8,20.8l-0.4,1c-3.1,8.4-12.4,12.7-20.9,9.6
			c-8.5-3.1-12.8-12.4-9.8-20.8l0.4-1C242,116.2,251.4,111.8,259.8,114.9z"/>
		<path class="st1" d="M269.6,135.7l-0.4,1c-3.1,8.4-12.4,12.7-20.9,9.6c-6.4-2.3-10.5-8.2-10.8-14.6c1.3,5,5,9.2,10.2,11.1
			c8.5,3.1,17.8-1.2,20.9-9.6l0.4-1c0.8-2.1,1.1-4.2,1-6.2C270.8,129.1,270.8,132.5,269.6,135.7z"/>
		<path class="st21" d="M259.8,114.9L259.8,114.9c8.5,3.1,12.8,12.4,9.8,20.8l-0.4,1c-3.1,8.4-12.4,12.7-20.9,9.6
			c-8.5-3.1-12.8-12.4-9.8-20.8l0.4-1C242,116.2,251.4,111.8,259.8,114.9z"/>
		<circle class="st4" cx="256.7" cy="135.5" r="3.3"/>
	</g>
	<g>
		<path class="st0" d="M164.2,83.1L164.2,83.1c8.5,3.1,12.8,12.4,9.8,20.8l-0.4,1c-3.1,8.4-12.4,12.7-20.9,9.6
			c-8.5-3.1-12.8-12.4-9.8-20.8l0.4-1C146.4,84.3,155.7,80,164.2,83.1z"/>
		<path class="st1" d="M174,103.9l-0.4,1c-3.1,8.4-12.4,12.7-20.9,9.6c-6.4-2.3-10.5-8.2-10.8-14.6c1.3,5,5,9.2,10.2,11.1
			c8.5,3.1,17.8-1.2,20.9-9.6l0.4-1c0.7-2,1.1-4.1,1-6.2C175.2,97.3,175.1,100.6,174,103.9z"/>
		<path class="st21" d="M164.2,83.1L164.2,83.1c8.5,3.1,12.8,12.4,9.8,20.8l-0.4,1c-3.1,8.4-12.4,12.7-20.9,9.6
			c-8.5-3.1-12.8-12.4-9.8-20.8l0.4-1C146.4,84.3,155.7,80,164.2,83.1z"/>
		<circle class="st4" cx="160.3" cy="103.2" r="3.3"/>
	</g>
	<path class="st3" d="M118.1,212.4c10.6,4.9,24.8,10,44.5,13.1"/>
	<path class="st2" d="M203.5,76.3c-38.4,2.9-58.3-15.6-85.1,11.2"/>
	<path class="st2" d="M230.3,87.5c12.3,18.4,46.6,9.8,50.2,52.4"/>
	<path class="st5" d="M197,136.8c-7.8,3.4-10.7,11.2-14.3,7.9c-3.6-3.3-2.4-10.6,5.2-13.4C192.6,132.5,195.2,134.8,197,136.8z"/>
	<path class="st22" d="M206.2,124.3c-2.9,7.1-4.1,16-6.1,15.6s-3.9-7.2-13.6-8.9"/>
	<path class="st3" d="M187.9,131.3c-7.6,2.8-8.8,10.1-5.2,13.4c3.6,3.3,6.4-4.5,14.3-7.9"/>
	<path class="st23" d="M193.6,133.8c-4,0.3-6.8,1.7-8.6,5.3"/>
	<path class="st3" d="M143.3,284.5c5.5-1.4,12.7-7.1,14.7-13.5"/>
	<path class="st3" d="M152.4,279.2c2.8,3.8,5.2,7.7,7.6,11.9"/>
	<path class="st24" d="M138.7,103.8c1,7,7,15.2,18.8,15.5"/>
	<path class="st24" d="M135.4,106.5c0.4,14.2,16.5,24.3,30.7,15.5"/>
	<path class="st24" d="M239.6,146.8c4.7,6.6,17.1,8.1,24.9,1.7"/>
	<path class="st24" d="M233.6,145.5c1.4,11.8,17.5,18.8,32.6,6.5"/>
	<g>
		<path class="st25" d="M39.7,171.3c-0.1,0.1-0.1,0-0.1-0.1c0-0.1-0.1-0.5-0.2-1c-0.4-2.7-0.5-5.3-0.5-7.7c0-0.4,0-0.8,0.1-1.3
			c0-0.5,0.1-1,0.1-1.6s0.1-1,0.2-1.5c0.1-0.5,0.1-0.9,0.2-1.2c0.5-2.3,1.2-4.1,2.2-5.5c1-1.4,2.2-2.2,3.6-2.4c0.2,0,0.4,0,0.6,0
			c0.2,0,0.5,0,0.9,0.1c0.4,0,0.7,0.1,1,0.2c0.3,0.1,0.6,0.2,0.9,0.3s0.6,0.3,1,0.5c0.3,0.2,0.7,0.5,1.2,0.8
			c0.5,0.3,0.9,0.6,1.2,0.8c0.3,0.2,0.7,0.4,1,0.5c0.1,0,0.2,0.1,0.4,0.2c0.1,0.1,0.3,0.1,0.4,0.2c0.2,0.2,0.5,0.2,0.7,0.3
			c0.1,0,0.2,0,0.3,0.1c0.1,0,0.1,0.1,0.2,0.2c0.1,0.2,0.2,0.3,0.3,0.4c0.1,0,0.3,0.1,0.6,0.1c0.3,0,0.4,0,0.5,0.1s0.1,0.2,0.1,0.3
			c0,0.1-0.1,0.2-0.2,0.3c-0.1,0-0.3,0-0.6,0c-0.3-0.1-0.6-0.1-0.7,0l-0.2,0.1l0.2,0c0.1,0,0.2,0,0.2,0.1c0,0,0.1,0.1,0.1,0.3
			c0,0.1,0.1,0.2,0.1,0.3c0,0,0.1,0.1,0.2,0.1c0.3,0.1,0.4,0.2,0.3,0.4c0,0.1,0,0.2-0.2,0.2c-0.1,0-0.2,0-0.3,0
			c-0.2,0-0.2,0.1-0.1,0.2c0.1,0.2,0.3,0.6,0.8,1.4c0.1,0.1,0.1,0.2,0.2,0.3c0.1,0.1,0.1,0.2,0.2,0.2c0.1,0.1,0.1,0.1,0.2,0.2
			c0,0,0.1,0.1,0.3,0.3c0.2,0.3,0.5,0.6,0.9,0.8c0.4,0.2,0.8,0.3,1.3,0.3c0.3,0,0.4,0,0.5,0s0.1,0.1,0.2,0.1
			c0.1,0.2,0.1,0.4-0.1,0.6c0,0-0.2,0-0.7,0c-0.6-0.1-0.9,0-0.9,0.2c0,0.2,0,0.4,0.1,0.7c0.1,0.3,0.2,0.6,0.3,0.9
			c0.2,0.4,0.4,0.8,0.6,1.3c0.2,0.5,0.4,1,0.6,1.5c0.2,0.5,0.4,1,0.5,1.5c0.2,0.5,0.3,0.9,0.4,1.3c0.1,0.2,0.2,0.4,0.2,0.6
			c0.1,0.2,0.2,0.4,0.2,0.5c0.1,0.1,0.2,0.2,0.2,0.4c0.1,0.1,0.1,0.2,0.1,0.2c0,0.1,0.1,0.1,0.2,0.1c0.1,0,0.1,0.1,0.2,0.2
			c0,0.2,0,0.3-0.1,0.4c-0.1,0.1-0.1,0.3,0,0.4c0.1,0.1,0.3,0.1,0.4,0.1c0.3-0.1,0.6,0,0.7,0.1c0.1,0.2,0.2,0.3,0.1,0.4
			c-0.1,0.2-0.3,0.3-0.7,0.3c-0.1,0-0.2,0-0.4,0.1c-0.1,0-0.3,0.1-0.4,0.1c-0.2,0.1-0.4,0.1-0.6,0.1c-0.2,0-0.5-0.1-0.9-0.2
			c-0.3-0.1-0.5-0.1-0.7-0.1c0,0-0.2,0-0.3,0c-0.2,0-0.4-0.1-0.8-0.2c-0.3-0.1-0.6-0.1-0.8-0.1c-0.3,0-0.5,0-0.7,0
			c-0.7,0-1.5,0-2.3,0c-0.9,0-1.7,0-2.6,0c-0.8,0-1.6,0-2.3,0c-0.7,0-1.1,0-1.3,0c-0.1,0-0.5,0-0.9,0c-0.5,0-1,0-1.6,0
			c-0.6,0-1.3,0-2,0c-0.7,0-1.3,0-1.9,0c-0.6,0-1.1,0-1.4,0C39.9,171.3,39.7,171.3,39.7,171.3z M55.1,165.6c0.3,0.1,0.4,0.1,0.4,0.1
			c0,0-0.1-0.1-0.2-0.3c-0.2-0.2-0.4-0.4-0.6-0.7c-1.4-1.6-2.7-3-3.9-4c-1.2-1-2.2-1.6-3-1.9c-0.8-0.2-1.3-0.1-1.7,0.4
			c-0.1,0.2-0.2,0.4-0.3,0.7c0,0.2,0,0.3,0.1,0.4c0.1,0.2,0.2,0.3,0.2,0.4c0.1,0.1,0.3,0.1,0.5,0.1c0.5,0.1,0.7,0.2,0.7,0.5
			c0,0.1-0.1,0.2-0.2,0.2c-0.1,0-0.2,0.1-0.2,0.2c-0.1,0.1-0.1,0.2-0.2,0.2c-0.1,0-0.2,0.1-0.2,0.1c-0.1,0.1-0.1,0.1,0,0.1
			c0.1,0,0.2,0.1,0.3,0.2c0.1,0.1,0.2,0.2,0.2,0.2c0.1,0,0.2,0,0.4,0s0.3,0,0.4,0c0.1,0,0.1,0.1,0.2,0.2c0.1,0.1,0.2,0.2,0.1,0.3
			c0,0.1-0.1,0.2-0.2,0.2c-0.1,0-0.2,0-0.4,0c-0.4-0.2-0.7-0.2-1.1-0.1c-0.4,0.1-0.6,0.3-0.6,0.6c0,0,0.1,0.1,0.3,0.1
			c0.2,0,0.7,0.1,1.4,0.3c0.5,0.1,1.1,0.2,1.8,0.3s1.4,0.2,2,0.4c0.7,0.1,1.3,0.2,1.8,0.3c0.5,0.1,0.9,0.2,1.1,0.2
			c0.1,0,0.3,0.1,0.4,0.1C54.9,165.6,55,165.6,55.1,165.6z"/>
		<path class="st25" d="M61.9,145.5c-0.1,0-0.4-0.1-1-0.2c-0.6-0.1-1.3-0.2-2.1-0.3c-2.7-0.5-5-0.9-6.9-1.2
			c-1.9-0.3-3.4-0.6-4.6-0.8c-1.2-0.2-2.3-0.4-3.4-0.6c0.1-1.1,0.3-2.2,0.4-3.1c0.1-0.9,0.3-2,0.4-3.2c0.2-1.2,0.3-2.4,0.5-3.8
			c0.2-1.3,0.3-2.6,0.5-3.9c0.2-1.3,0.3-2.5,0.5-3.7l0.1-0.4l0.6,0.2c0.2,0.1,0.6,0.2,1.2,0.4c0.6,0.2,1.2,0.4,1.9,0.7
			c0.7,0.2,1.3,0.4,1.8,0.6c0.5,0.2,0.9,0.3,1,0.3c0.4,0.1,0.7,0.3,0.8,0.5c0.1,0.1,0.2,0.3,0.4,0.3s0.3,0.1,0.5,0.1
			c0.6-0.1,0.8,0.1,0.7,0.5c0,0.2-0.1,0.3-0.1,0.3c-0.1,0-0.2,0-0.5,0c-0.3,0-0.5-0.1-0.8-0.1c-0.2-0.1-0.4-0.1-0.4,0l0,0.1
			c0,0.1,0,0.1,0,0.2c0,0.1,0,0.2,0,0.3c-0.1,0.1-0.1,0.2-0.2,0.2c0,0,0,0.1-0.1,0.1c0,0-0.1,0.1-0.2,0.1c-0.1,0-0.1,0.1-0.1,0.2
			c0,0.1-0.1,0.2-0.1,0.4c0,0.2-0.1,0.5-0.2,0.8c-0.1,0.3-0.2,0.8-0.3,1.4l-0.3,1.3l0.1,0.3c0.1,0.2,0.2,0.3,0.4,0.4
			c0.3,0.1,0.4,0.2,0.4,0.4c0,0.2-0.2,0.2-0.6,0.2c-0.2-0.1-0.3-0.1-0.3,0c0,0.2,0,0.2,0.3,0.3c0.1,0,0.2,0.1,0.3,0.2
			c0.1,0.2,0,0.4-0.2,0.5c-0.1,0-0.1,0.1-0.1,0.2c0,0.1,0,0.1,0,0.2c0.1,0,0.2,0.1,0.3,0.2c0.1,0.1,0.2,0.2,0.3,0.3
			c0.1,0.1,0.2,0.2,0.4,0.3c0.1,0.1,0.4,0.2,0.8,0.3c0.3,0.1,0.5,0.2,0.7,0.2c0.2,0.1,0.3,0.1,0.4,0.1c0.1,0.1,0.2,0,0.2-0.1
			c0-0.1,0-0.2,0-0.6c0-0.3,0-0.7,0.1-1.1c0-0.4,0.1-0.9,0.1-1.5c0.1,0,0.2,0,0.3,0l0.7,0.2c0.4,0.1,0.7,0.1,0.9,0.2
			c0.2,0.1,0.3,0.1,0.5,0.2c0.5,0.3,1.3,0.5,2.4,0.6c0.2,0,0.4,0.1,0.6,0.2c0.2,0.1,0.3,0.3,0.3,0.4c0,0.2-0.1,0.3-0.2,0.3
			c-0.2,0-0.4,0-0.6-0.2c-0.2-0.1-0.3-0.1-0.5,0c-0.3,0-0.4,0.1-0.3,0.1c0,0,0.2,0.1,0.5,0c0.2,0,0.3,0.2,0.2,0.5
			c-0.1,0.3-0.3,0.4-0.7,0.3c-0.3-0.1-0.4-0.1-0.5,0c-0.1,0.1-0.1,0.3-0.2,0.8c0,0.2,0,0.4-0.1,0.5c0,0.1,0,0.1,0,0.2
			c0.1,0,0.2,0.1,0.3,0.1c0.1,0.1,0.4,0.2,0.7,0.3c0.3,0.1,0.6,0.2,0.8,0.3c0.3,0.1,0.4,0.1,0.5,0.2l0.2,0.1l0.3-0.9
			c0.1-0.3,0.3-0.8,0.5-1.5c0.2-0.7,0.4-1.4,0.6-2.1c0.2-0.7,0.5-1.6,0.9-2.6c0,0,0.2,0,0.5,0.1c0.3,0.1,0.7,0.2,1.1,0.4
			c0.4,0.1,0.8,0.3,1.1,0.4c0.3,0.1,0.5,0.2,0.5,0.3c0,0.1,0,0.4-0.1,1c-0.1,0.6-0.2,1.2-0.3,2c-0.1,0.7-0.2,1.4-0.3,2
			s-0.2,1-0.2,1.2c-0.1,0.5-0.1,0.9-0.2,1.2c0,0.3,0,0.5,0,0.6c0,0.2,0,0.3,0.1,0.4c0,0.1,0.1,0.2,0.2,0.3c0.1,0.1,0.2,0.2,0.2,0.2
			c0,0.1,0,0.1,0,0.2c0,0.1-0.1,0.2-0.1,0.3c-0.2,0.1-0.2,0.3-0.1,0.7c0.1,0.2,0.2,0.3,0.3,0.3c0.2,0,0.3,0.1,0.3,0.4
			c-0.1,0.3-0.3,0.4-0.7,0.4c-0.2,0-0.3,0-0.4,0c-0.1,0-0.1,0.1-0.1,0.1c0,0,0.1,0.1,0.2,0.2c0.2,0.2,0.5,0.2,0.8,0.1
			c0.1,0,0.3,0,0.4,0.1c0.1,0.1,0.2,0.1,0.3,0.2c0.1,0.2,0,0.4-0.2,0.5c-0.1,0.1-0.1,0.1-0.2,0.1c-0.1,0-0.3,0-0.5-0.1
			c-0.2,0-0.3,0-0.5,0c-0.2,0-0.3,0-0.4,0c-0.2,0.1-0.7,0-1.6-0.2c-0.4-0.1-0.7-0.1-1-0.2C62.2,145.5,62,145.5,61.9,145.5z"/>
		<path class="st25" d="M68.6,129.4c-0.1,0.1-0.2,0.2-0.2,0.1c0-0.1-0.2-0.2-0.6-0.6c-0.4-0.3-0.9-0.7-1.4-1.1
			c-0.2-0.2-0.4-0.3-0.6-0.5c-0.2-0.2-0.4-0.3-0.5-0.4c-0.1-0.1-0.2-0.2-0.5-0.4s-0.5-0.4-0.8-0.6c-0.3-0.2-0.6-0.5-0.9-0.7
			s-0.5-0.4-0.7-0.5c-0.6-0.4-1.2-0.9-1.7-1.3c-0.6-0.4-1.1-0.9-1.7-1.3c-0.3-0.2-0.7-0.5-1.1-0.9c-0.4-0.3-0.8-0.6-1.1-0.9
			c-0.3-0.2-0.6-0.5-0.8-0.7c-0.3-0.2-0.4-0.3-0.5-0.4c-0.1-0.1-0.2-0.2-0.5-0.4c-0.3-0.2-0.6-0.4-0.9-0.7c-1.2-1-2.1-1.6-2.7-2.1
			c-0.6-0.4-0.9-0.7-0.9-0.7c0-0.1-0.1-0.1-0.2-0.2c-0.1-0.1-0.2-0.2-0.3-0.2l-0.4-0.3l0.3-0.6c0-0.1,0.1-0.2,0.2-0.5
			c0.1-0.2,0.2-0.5,0.3-0.8c0.1-0.3,0.3-0.6,0.4-1c0.1-0.4,0.3-0.8,0.5-1.2c0.2-0.4,0.3-0.8,0.5-1.2c0.2-0.4,0.3-0.8,0.5-1.2
			c0.2-0.4,0.3-0.8,0.5-1.1c0.1-0.3,0.3-0.6,0.4-0.8c0.2-0.4,0.3-0.8,0.5-1.2c0.1-0.3,0.2-0.6,0.2-0.6c0.1-0.2,0.1-0.3,0.2-0.3
			c0,0,0.2,0,0.6,0.1c0.4,0.1,1.1,0.3,2,0.6c0.9,0.3,2.2,0.6,3.7,1.1c1.5,0.4,3.4,1,5.6,1.6c0.6,0.2,1.2,0.3,1.8,0.5
			c0.6,0.2,1.2,0.4,1.7,0.5c0.5,0.2,1,0.3,1.5,0.4c0.4,0.1,0.8,0.2,1,0.3c0.6,0.2,1.1,0.3,1.5,0.5c0.4,0.1,0.7,0.3,0.9,0.4
			c0.2,0.1,0.4,0.2,0.5,0.3c0.1,0.1,0.2,0.2,0.3,0.4c0.1,0.1,0.1,0.2,0.2,0.2c0.1,0.1,0.2,0.1,0.4,0.2c0.6,0.2,1,0.5,1.1,0.7
			c0.1,0.1,0.1,0.2,0,0.3c-0.1,0.2-0.4,0.1-1.1-0.1L75,112l-0.2,0.2c-0.2,0.1-0.3,0.1-0.5,0c-0.3-0.1-0.4,0-0.3,0.3
			c0.1,0.2,0.1,0.3,0,0.5c-0.1,0.1-0.2,0.2-0.2,0.2c-0.1,0-0.1,0.1,0,0.3c0,0.1,0.2,0.2,0.4,0.3c0.2,0.1,0.3,0.2,0.4,0.3
			c0.1,0.1,0.2,0.2,0.4,0.3c0.2,0.1,0.3,0.1,0.3,0.2c0,0.1,0,0.2,0,0.3c-0.1,0.4-0.4,0.3-0.9-0.1c-0.2-0.2-0.4-0.3-0.5-0.3
			c-0.1,0-0.3,0.1-0.5,0.2c-0.1,0.1-0.2,0.1-0.2,0.2c-0.1,0-0.2,0.1-0.2,0.1c-0.1,0-0.3-0.1-0.7-0.1c-0.4-0.1-0.8-0.1-1.2-0.2
			c-0.4-0.1-0.8-0.1-1.2-0.2c-0.4,0-0.5-0.1-0.6-0.1c-0.1,0-0.2,0-0.4,0c-0.1,0-0.2,0-0.4,0.1c-0.1,0-0.1,0.1-0.2,0.1
			c-0.1,0-0.1,0-0.2,0c-0.3,0-0.5,0.1-0.5,0.3c0,0.1,0,0.1,0,0.2c0,0-0.1,0.1-0.2,0.1c-0.2,0.1-0.3,0.3-0.3,0.8c0,0.5,0.1,0.8,0.2,1
			c0.1,0.1,0.1,0.2,0,0.4c0,0.1-0.1,0.2-0.1,0.2c0,0-0.1,0-0.3,0c-0.2,0-0.3,0-0.3,0.1c-0.1,0.1-0.1,0.3-0.2,0.5c0,0.3,0,0.4,0,0.4
			c0,0,0.1,0.2,0.1,0.4c0,0.3,0,0.5,0,0.6c-0.1,0.3-0.1,0.5-0.1,0.6c0,0.1,0,0.2,0.1,0.4c0,0.1,0.1,0.2,0.1,0.3
			c0,0.1,0.1,0.1,0.2,0.2c0.1,0.1,0.2,0.2,0.3,0.4s0.3,0.3,0.6,0.6c0.6,0.6,1,1,1.3,1.3s0.5,0.5,0.6,0.7c0.1,0.1,0.2,0.2,0.3,0.3
			c0.1,0,0.1,0.1,0.2,0.1c0.2,0.1,0.4,0.2,0.6,0.3c0.2,0.2,0.4,0.3,0.4,0.5c0,0,0.1,0.1,0.2,0.2s0.2,0.2,0.3,0.3
			c0.3,0.2,0.4,0.3,0.4,0.4c0,0.1,0,0.1,0,0.2c0,0.1-0.1,0.1-0.2,0.2c-0.1,0-0.2,0-0.4,0c-0.2,0-0.3,0-0.3,0c-0.1,0-0.1,0,0.1,0.1
			c0.2,0.1,0.3,0.2,0.1,0.4c-0.1,0.1-0.2,0.1-0.4,0c-0.1,0-0.2,0-0.2-0.1c-0.1,0-0.1,0-0.2,0c-0.4,0.2-0.6,0.6-0.7,1.2
			c0,0.1,0,0.2,0,0.3c0,0,0.1,0.1,0.2,0.1c0.3,0.1,0.4,0.2,0.4,0.4c-0.1,0.2-0.3,0.2-0.6,0.1c-0.2-0.1-0.3-0.1-0.3,0
			c0,0,0,0.1,0.1,0.1c0.1,0,0.1,0,0.2,0.2c0,0.1,0,0.2,0,0.3c-0.1,0.1-0.2,0.1-0.4,0C69,129.2,68.8,129.2,68.6,129.4z M64,117.9
			l0.4-2.2c0.1-0.6,0.2-1.2,0.3-1.6c0.1-0.4,0.1-0.7,0.1-0.7c0,0-0.1,0-0.4-0.1c-0.2,0-0.5-0.1-0.8-0.2c-0.3-0.1-0.8-0.1-1.4-0.3
			c-0.6-0.1-1.2-0.2-1.8-0.3c-0.6-0.1-1.1-0.2-1.5-0.3c-0.4-0.1-0.7-0.1-0.7-0.1c0,0,0,0.1,0.1,0.2c0.1,0.1,0.3,0.3,0.5,0.5
			c0.2,0.3,0.4,0.5,0.6,0.6c0.2,0.2,0.3,0.3,0.4,0.4c0.1,0.1,0.3,0.2,0.4,0.3c0.2,0.1,0.4,0.2,0.6,0.4l0.5,0.3
			c0.2,0.1,0.4,0.2,0.5,0.2c0.3,0,0.4,0.1,0.5,0.3c0,0.1,0,0.3,0,0.4c-0.1,0.1-0.1,0.2-0.1,0.2c0,0,0.1,0.1,0.2,0.3
			c0.1,0.2,0.3,0.3,0.3,0.3c0,0,0.2,0.1,0.3,0.3c0.2,0.2,0.3,0.4,0.4,0.5c0,0.1,0.1,0.1,0.1,0.2c0,0.1,0.1,0.1,0.1,0.1L64,117.9z"/>
		<path class="st25" d="M58.2,97.5c-0.1,0-0.1,0-0.1-0.1c0-0.1,0.1-0.5,0.2-1c0.5-2.7,1.2-5.1,2.1-7.4c0.1-0.3,0.3-0.8,0.5-1.2
			c0.2-0.5,0.4-1,0.7-1.4c0.2-0.5,0.5-1,0.7-1.4c0.2-0.4,0.4-0.8,0.6-1.1c1.2-2,2.5-3.5,3.9-4.5c1.4-1,2.8-1.3,4.2-1.1
			c0.2,0,0.4,0.1,0.6,0.2c0.2,0.1,0.5,0.2,0.8,0.4c0.3,0.2,0.6,0.3,0.9,0.5c0.3,0.2,0.5,0.4,0.8,0.6c0.2,0.2,0.5,0.5,0.7,0.8
			c0.3,0.3,0.5,0.7,0.8,1.1c0.3,0.5,0.6,0.9,0.9,1.2c0.3,0.3,0.5,0.6,0.8,0.8c0.1,0.1,0.2,0.2,0.3,0.3c0.1,0.1,0.2,0.2,0.3,0.3
			c0.2,0.2,0.3,0.4,0.6,0.5c0.1,0.1,0.2,0.1,0.2,0.1c0,0,0.1,0.1,0.1,0.2c0,0.2,0.1,0.4,0.2,0.5s0.2,0.2,0.5,0.2
			c0.2,0.1,0.4,0.2,0.5,0.3c0.1,0.1,0.1,0.2,0,0.4c-0.1,0.1-0.2,0.2-0.3,0.2c-0.1,0-0.3-0.1-0.5-0.2c-0.3-0.2-0.5-0.3-0.6-0.2
			l-0.2,0l0.2,0.1c0.1,0.1,0.2,0.1,0.2,0.2c0,0,0,0.1,0,0.3c0,0.2,0,0.3,0,0.3c0,0.1,0.1,0.1,0.2,0.2c0.2,0.2,0.3,0.4,0.2,0.5
			c0,0.1-0.1,0.1-0.2,0.2c-0.1,0-0.2,0-0.3-0.1c-0.1-0.1-0.2,0-0.2,0.2c0,0.2,0.1,0.7,0.3,1.5c0,0.1,0,0.2,0.1,0.3
			c0,0.1,0.1,0.2,0.1,0.3c0,0.1,0.1,0.2,0.1,0.2c0,0,0.1,0.1,0.2,0.4c0.1,0.4,0.3,0.8,0.6,1.1c0.3,0.3,0.7,0.6,1.1,0.7
			c0.2,0.1,0.4,0.2,0.5,0.2c0.1,0,0.1,0.1,0.1,0.2c0.1,0.3,0,0.4-0.3,0.5c0,0-0.2-0.1-0.6-0.2c-0.5-0.3-0.8-0.3-0.9-0.1
			c-0.1,0.1-0.1,0.4-0.2,0.7c0,0.3,0,0.6,0,1c0,0.4,0.1,0.9,0.1,1.4c0,0.5,0,1.1,0.1,1.6c0,0.5,0,1.1,0,1.6c0,0.5,0,1,0,1.4
			c0,0.2,0,0.4,0,0.7c0,0.2,0,0.4,0,0.6c0,0.2,0.1,0.3,0.1,0.4c0,0.1,0,0.2,0,0.3c0,0.1,0,0.1,0.1,0.2c0.1,0,0.1,0.1,0.1,0.3
			c0,0.2-0.1,0.3-0.2,0.3c-0.2,0.1-0.2,0.2-0.1,0.4c0.1,0.1,0.2,0.2,0.4,0.2c0.4,0,0.6,0.2,0.7,0.3c0.1,0.2,0,0.4-0.1,0.4
			c-0.2,0.1-0.4,0.1-0.8,0c-0.1,0-0.2,0-0.4-0.1c-0.1,0-0.3,0-0.4,0c-0.2,0-0.5,0-0.6-0.1c-0.2-0.1-0.4-0.2-0.8-0.5
			c-0.2-0.2-0.5-0.2-0.6-0.3c-0.1,0-0.2,0-0.3-0.1c-0.2-0.1-0.4-0.2-0.7-0.4c-0.2-0.2-0.5-0.3-0.7-0.4c-0.3-0.1-0.5-0.2-0.6-0.3
			c-0.6-0.2-1.4-0.5-2.2-0.8c-0.8-0.3-1.6-0.6-2.4-0.9c-0.8-0.3-1.5-0.5-2.1-0.7c-0.6-0.2-1-0.4-1.2-0.4c-0.1,0-0.4-0.1-0.9-0.3
			c-0.4-0.2-1-0.3-1.5-0.6c-0.6-0.2-1.2-0.4-1.8-0.7c-0.7-0.2-1.3-0.4-1.8-0.6c-0.5-0.2-1-0.4-1.4-0.5
			C58.4,97.5,58.2,97.5,58.2,97.5z M74.7,97.2c0.2,0.2,0.4,0.2,0.4,0.2c0,0,0-0.2-0.1-0.4c-0.1-0.2-0.2-0.5-0.3-0.9
			c-0.8-2-1.6-3.7-2.4-5s-1.5-2.3-2.2-2.8c-0.6-0.5-1.2-0.6-1.7-0.2c-0.2,0.2-0.4,0.3-0.5,0.5c-0.1,0.1-0.1,0.3-0.1,0.4
			c0,0.2,0,0.3,0.1,0.4c0.1,0.1,0.2,0.2,0.5,0.3c0.5,0.2,0.6,0.4,0.5,0.7c-0.1,0.1-0.1,0.1-0.2,0.1c-0.1,0-0.2,0-0.3,0.1
			c-0.1,0.1-0.2,0.1-0.3,0.1c-0.1,0-0.2,0-0.3,0c-0.1,0-0.1,0.1,0,0.1c0.1,0,0.1,0.1,0.2,0.3c0.1,0.1,0.1,0.2,0.2,0.3
			c0,0,0.2,0.1,0.3,0.2c0.2,0.1,0.3,0.1,0.3,0.2c0,0,0.1,0.1,0.2,0.2c0.1,0.1,0.1,0.3,0,0.4c-0.1,0.1-0.1,0.2-0.2,0.2
			s-0.2-0.1-0.3-0.2c-0.3-0.3-0.6-0.5-1-0.5c-0.4,0-0.6,0.1-0.8,0.4c0,0,0,0.1,0.2,0.2c0.2,0.1,0.6,0.4,1.3,0.8
			c0.4,0.2,1,0.5,1.6,0.9c0.6,0.3,1.2,0.7,1.8,1c0.6,0.3,1.1,0.6,1.6,0.9c0.5,0.3,0.8,0.5,0.9,0.6c0.1,0.1,0.2,0.2,0.4,0.2
			C74.4,97.1,74.6,97.2,74.7,97.2z"/>
		<path class="st25" d="M75.8,73.5c-0.3,0-0.5,0-0.8-0.1c-0.2-0.1-0.5-0.4-1-0.8c-0.3-0.3-0.5-0.5-0.6-0.6c-0.1-0.1-0.2-0.2-0.4-0.2
			c-0.4-0.1-0.7-0.3-0.9-0.4c-0.2-0.1-0.5-0.4-0.9-0.7l-0.7-0.5l0.2-0.3c0,0,0.1-0.1,0.3-0.3s0.3-0.4,0.5-0.7
			c0.2-0.3,0.5-0.6,0.7-0.9c0.3-0.3,0.5-0.7,0.9-1c0.7-0.9,1.3-1.6,1.8-2.1c0.5-0.5,0.8-0.9,1-1.2c0.2-0.3,0.5-0.5,0.6-0.7
			c0.7,0.5,1.3,1,1.8,1.4c0.6,0.5,1.2,1,2,1.6c0.8,0.6,1.6,1.3,2.5,2c0.5,0.4,1.2,1,2,1.6c0.8,0.6,1.6,1.3,2.3,1.8
			c0.8,0.6,1.4,1.1,1.9,1.5c0.5,0.4,0.8,0.6,0.8,0.7s0.1,0,0.1-0.1c0.1-0.1,0.2-0.2,0.3-0.5c0.2-0.2,0.4-0.5,0.7-0.9
			c0.3-0.4,0.6-0.9,1.1-1.5c0.8-1.1,1.4-2,1.9-2.6c0.4-0.6,0.8-1,1-1.3c0.2-0.3,0.3-0.4,0.4-0.5c0,0,0.1-0.1,0.1,0
			c0,0,0.1,0,0.2,0.1c0.1,0.1,0.3,0.2,0.4,0.3c0.2,0.1,0.4,0.3,0.7,0.5c0.3,0.2,0.6,0.5,0.9,0.7l1.1,0.8l0,0.3
			c0.1,0.2,0.1,0.3,0.2,0.4c0.1,0.1,0.1,0.2,0.2,0.3c0.1,0.1,0.2,0.2,0.3,0.3c0.1,0.1,0.2,0.2,0.4,0.3c0.2,0.2,0.3,0.3,0.3,0.5
			c0,0.1,0,0.2-0.1,0.3c-0.1,0.1-0.2,0.1-0.3,0c-0.1,0-0.3-0.2-0.5-0.3c-0.1-0.1-0.3-0.2-0.5-0.4c-0.2-0.1-0.3-0.2-0.4-0.2
			c-0.2-0.1-0.2-0.1-0.2,0c0,0.1,0.1,0.2,0.3,0.3c0.1,0.1,0.2,0.1,0.3,0.2c0,0.1,0.1,0.1,0.1,0.2c0,0.2,0,0.3-0.1,0.3
			c0,0-0.2,0-0.4,0c-0.2,0-0.3-0.1-0.4-0.2c-0.1,0-0.2,0-0.3,0.1c-0.1,0.1-0.3,0.2-0.3,0.1c-0.1,0-0.3,0.1-0.4,0.3
			c0,0-0.1,0.1-0.2,0.2c-0.1,0.1-0.2,0.2-0.2,0.2c0,0.1-0.1,0.1-0.2,0.2c-0.1,0.1-0.2,0.2-0.3,0.4c-0.1,0.2-0.2,0.4-0.4,0.7
			c-0.2,0.3-0.4,0.7-0.7,1.1c-0.3,0.6-0.6,1.1-0.9,1.6c-0.2,0.4-0.4,0.7-0.4,0.7c-0.1,0.2,0.1,0.5,0.6,0.8c0.2,0.2,0.3,0.3,0.4,0.3
			c0,0.1,0.1,0.1,0.1,0.2c0,0.3-0.2,0.4-0.5,0.2C94.4,78,94.3,78,94.2,78c-0.1,0-0.2,0-0.4-0.1c-0.3-0.1-0.5,0-0.6,0.3
			c0,0.2-0.1,0.3-0.1,0.4c0,0.1,0,0.2,0.1,0.4c0.2,0.3,0.3,0.5,0.3,0.6c0,0.1,0.1,0.1,0.2,0.1c0.1,0,0.1,0,0.2,0c0.1,0,0.1,0,0.2,0
			c0.1,0,0.2,0.1,0.2,0.2c0,0.1,0,0.2-0.1,0.4c0,0.1-0.1,0.1-0.1,0.1c0,0-0.1,0.1-0.1,0.1c0,0-0.1,0-0.3-0.1c0,0-0.1-0.1-0.2-0.1
			c-0.1,0-0.2-0.1-0.2-0.1c-0.1,0-0.3-0.1-0.4-0.2c-0.1-0.1-0.2-0.1-0.3-0.1c-0.1,0-0.1,0.1,0,0.2c0.1,0.1,0.1,0.2,0.1,0.3
			c0,0.1,0,0.1,0,0.1c0,0,0.1,0.1,0.1,0.1c0.2,0.2,0.3,0.3,0.2,0.5c-0.1,0.2-0.4,0.2-0.7,0c-0.2-0.1-0.3-0.1-0.5-0.1
			c-0.2,0-0.4,0-0.5,0c-0.1,0-0.3-0.1-0.5-0.2c-0.2-0.1-0.4-0.2-0.9-0.5c-0.4-0.2-0.9-0.5-1.6-0.8s-1.3-0.7-2-1.1
			c-0.7-0.4-1.4-0.8-2.2-1.2c-0.7-0.4-1.4-0.8-2.1-1.1c-0.6-0.4-1.2-0.6-1.6-0.9c-1-0.6-1.7-0.9-2.2-1.2c-0.4-0.2-0.7-0.3-0.8-0.3
			c-0.1,0-0.3-0.1-0.4-0.1C76.7,73.6,76.2,73.5,75.8,73.5z"/>
		<path class="st25" d="M105.6,60.3c0.2,0.2,0.3,0.3,0.4,0.4s0.1,0.2,0.2,0.3c0,0.1,0.1,0.2,0.2,0.3c0.1,0.1,0.2,0.2,0.4,0.3
			c0.2,0.2,0.3,0.3,0.4,0.3c0,0.1,0.1,0.1,0.1,0.2c0,0.1,0,0.2-0.1,0.2c-0.1,0-0.2,0-0.2-0.1c-0.1-0.1-0.2-0.2-0.4-0.2
			c-0.1,0-0.1,0-0.2-0.1c-0.1,0-0.2-0.1-0.2-0.1c-0.1-0.1-0.2-0.1-0.3-0.1c-0.1,0.1-0.1,0.1-0.2,0.2c0,0.1-0.1,0.2-0.2,0.4
			c-0.1,0.3-0.1,0.5,0,0.6l0.2,0.4c0,0.1,0.1,0.2,0.4,0.3c0.2,0.1,0.3,0.2,0.3,0.3c0,0.1,0,0.2-0.1,0.3c-0.1,0.1-0.1,0.2-0.2,0.2
			c0,0,0,0-0.1-0.1c0,0-0.1,0-0.2-0.1c-0.1-0.1-0.3-0.2-0.4-0.2c-0.1,0-0.1,0-0.2-0.1c-0.1,0-0.2-0.1-0.2-0.1
			c-0.1-0.1-0.2-0.2-0.2-0.1c0,0,0,0.1,0,0.3c0.1,0.2,0.1,0.3,0.2,0.4c0.2,0.2,0.2,0.3,0.1,0.5c-0.1,0.2-0.4,0.1-0.7-0.1
			c-0.1-0.1-0.4-0.2-0.7-0.2c-0.2,0-0.3,0-0.4-0.1c-0.1,0-0.2-0.1-0.3-0.2c-1.3-0.9-2.4-1.7-3.5-2.4s-2.2-1.5-3.4-2.3
			c-1.3-0.9-2.3-1.6-3-2.1c-0.7-0.5-1.3-0.9-1.6-1.1c-0.4-0.2-0.6-0.4-0.7-0.5c-0.1-0.1-0.2-0.1-0.3-0.1c-0.1,0-0.1,0-0.2-0.1
			c-0.1,0-0.1-0.1-0.2-0.1c-0.2-0.1-0.4-0.3-0.6-0.3c-0.2-0.1-0.4-0.1-0.6-0.1c-0.3,0-0.5-0.1-0.7-0.2c-0.2-0.2-0.5-0.5-0.9-0.9
			c-0.3-0.3-0.4-0.5-0.5-0.6c-0.1-0.1-0.2-0.2-0.4-0.3c-0.4-0.2-0.7-0.4-0.9-0.5c-0.2-0.2-0.5-0.4-0.8-0.7L84,51.7l0.2-0.3
			c0.1-0.1,0.3-0.4,0.9-0.9c0.5-0.5,1.1-1.1,1.7-1.7c0.6-0.6,1.3-1.2,1.9-1.8c0.6-0.6,1.1-1,1.4-1.3l0.2-0.2l0.5,0.5
			c0.1,0.2,0.5,0.5,1.1,1.1c0.6,0.6,1.2,1.2,1.9,1.9c1.5,1.4,2.9,2.8,4.2,4c1.3,1.3,2.5,2.4,3.5,3.4c1,1,1.9,1.8,2.6,2.5
			C104.9,59.7,105.4,60.1,105.6,60.3z"/>
		<path class="st25" d="M97.8,42.2c-0.2-0.4-0.4-0.7-0.5-0.7c-0.1-0.1-0.2-0.2-0.4-0.3c-0.3-0.2-0.5-0.4-0.8-0.7
			c-0.3-0.3-0.6-0.6-0.8-0.9L95,39.1l0.3-0.3c0.1,0,0.3-0.2,0.6-0.5c0.4-0.3,0.8-0.6,1.3-1c0.5-0.4,1.1-0.8,1.6-1.2s1.1-0.8,1.6-1.2
			s1.1-0.8,1.8-1.2c0.4,0.2,0.8,0.3,1.1,0.5c0.3,0.1,0.7,0.3,1,0.5c0.4,0.2,0.8,0.3,1.1,0.5c0.3,0.1,0.7,0.3,1.1,0.5
			c0.5,0.2,0.9,0.4,1.3,0.6c0.4,0.2,0.8,0.3,1.2,0.5c0.4,0.2,0.7,0.3,0.9,0.4c0.2,0.1,0.5,0.2,0.9,0.4c0.4,0.2,0.7,0.3,1.1,0.5
			c0.4,0.2,0.7,0.3,1.1,0.5c0.4,0.2,0.7,0.3,0.9,0.4c0.2,0.1,0.4,0.2,0.5,0.3c0.1,0.1,0.2,0.1,0.2,0.1c0,0,0-0.1-0.2-0.2
			c-0.1-0.1-0.3-0.3-0.4-0.6c-0.2-0.2-0.3-0.4-0.5-0.7c-0.2-0.2-0.3-0.4-0.4-0.5c-0.1-0.2-0.3-0.4-0.5-0.7c-0.2-0.3-0.5-0.6-0.7-0.8
			c-0.2-0.3-0.4-0.5-0.6-0.8c-0.2-0.2-0.3-0.4-0.4-0.4c-0.6-0.7-1.1-1.1-1.5-1.2c-0.2,0-0.4-0.2-0.6-0.4c-0.2-0.2-0.3-0.5-0.5-1
			l-0.3-0.8l-0.5-0.5c-0.1-0.1-0.2-0.3-0.3-0.3c-0.1-0.1-0.1-0.2-0.2-0.3c-0.1-0.1-0.2-0.2-0.3-0.4c-0.1-0.2-0.2-0.4-0.4-0.7
			c0-0.1,0-0.2,0.1-0.3c0,0,0.2-0.2,0.6-0.4s0.8-0.5,1.3-0.7c0.5-0.3,0.9-0.5,1.3-0.7c0.4-0.2,0.6-0.3,0.7-0.4c0,0,0.2-0.1,0.5-0.3
			c0.3-0.2,0.6-0.3,0.9-0.5c0.3-0.2,0.6-0.4,1-0.6c0.3-0.2,0.6-0.3,0.7-0.4c0.2-0.1,0.3-0.2,0.4-0.2c0.1-0.1,0.2-0.1,0.2-0.1
			c0.1,0,0.2,0.1,0.2,0.3c0.1,0.2,0.3,0.6,0.7,1.3c0.1,0.1,0.2,0.3,0.3,0.5c0.1,0.2,0.3,0.5,0.4,0.7c0.4,0.7,0.8,1.5,1.2,2.3
			c0.4,0.8,0.9,1.6,1.3,2.4c0.2,0.4,0.4,0.8,0.6,1.2c0.2,0.4,0.3,0.6,0.4,0.7c0.1,0.2,0.2,0.4,0.3,0.6c0.1,0.2,0.2,0.4,0.3,0.6
			c0.1,0.3,0.3,0.6,0.5,1c0.2,0.4,0.5,0.9,0.8,1.5c0.4,0.7,0.7,1.4,1.1,2c0.3,0.6,0.6,1,0.6,1.2c0.1,0.2,0.2,0.4,0.2,0.6
			c0,0.1,0.1,0.3,0.1,0.4c0,0.1,0,0.2,0.1,0.3c0,0.1,0.1,0.2,0.2,0.4c0.2,0.3,0.3,0.4,0.2,0.6c-0.1,0.3-0.2,0.3-0.4,0
			c-0.1-0.1-0.2-0.2-0.3-0.1c-0.1,0.1-0.1,0.2-0.1,0.3c0,0.1,0,0.2,0,0.4c-0.1,0.3,0.1,0.6,0.5,1c0.5,0.4,0.6,0.7,0.4,0.9
			c-0.1,0.2-0.2,0.2-0.3,0.2c-0.1,0-0.3-0.2-0.6-0.5c-0.2-0.2-0.3-0.4-0.4-0.4s-0.2-0.1-0.3-0.1c-0.2,0-0.4-0.1-0.6-0.3
			c-0.2-0.1-0.4-0.2-0.5-0.2c-0.1,0-0.2,0.1-0.3,0.2c-0.1,0.1-0.1,0.2,0,0.4c0,0.1,0,0.1,0,0.2c0,0.1,0,0.1,0,0.2
			c0,0.1-0.1,0.1-0.2,0.2c-0.1,0-0.3,0-0.5-0.2c-0.1-0.1-0.4-0.3-0.8-0.4c-0.4-0.1-1.1-0.3-2-0.6c-0.3-0.1-0.6-0.2-1.1-0.3
			c-0.5-0.1-0.9-0.2-1.3-0.4c-1-0.3-2-0.5-2.9-0.8c-0.9-0.2-1.7-0.4-2.3-0.6c-0.6-0.1-0.9-0.2-0.9-0.2c0,0,0.2,0.2,0.5,0.6
			c0.3,0.4,0.7,0.9,1.1,1.4c0.4,0.6,0.9,1.2,1.5,1.9c0.5,0.7,1,1.3,1.5,1.9c0.5,0.6,0.9,1.1,1.2,1.6c0.3,0.4,0.6,0.7,0.7,0.8
			c0.2,0.2,0.3,0.4,0.4,0.5c0.1,0.1,0.1,0.2,0.1,0.3c0,0.1,0.1,0.2,0.1,0.3c0.1,0.1,0.2,0.2,0.3,0.4c0.2,0.2,0.3,0.3,0.3,0.4
			c0,0.1,0.1,0.1,0,0.2c0,0.3-0.2,0.3-0.5,0.1c-0.1-0.1-0.3-0.1-0.3-0.1c-0.1,0-0.2,0-0.2-0.1c-0.2-0.2-0.3-0.3-0.4-0.2
			s-0.2,0.2-0.4,0.5c-0.1,0.2-0.1,0.3-0.2,0.4c0,0.1,0,0.2,0.1,0.5c0.1,0.2,0.1,0.3,0.1,0.4s0.1,0.1,0.3,0.2
			c0.2,0.1,0.3,0.2,0.3,0.3c0,0.1,0,0.2-0.1,0.3c-0.1,0.1-0.2,0.2-0.3,0.2c0,0,0,0,0-0.1c0,0-0.1,0-0.1-0.1c0,0-0.1-0.1-0.2-0.2
			c-0.1-0.1-0.1-0.1-0.2-0.1c0,0-0.1-0.1-0.2-0.1c-0.1-0.1-0.1-0.1-0.2-0.2c-0.1-0.1-0.2-0.1-0.2-0.1s-0.1,0.1,0,0.2
			c0,0.1,0,0.2,0,0.3c0,0.1,0,0.2,0.1,0.3c0.2,0.2,0.2,0.4,0.1,0.5c-0.1,0.1-0.2,0.1-0.3,0.1c-0.1,0-0.2-0.1-0.4-0.2
			c-0.2-0.2-0.5-0.3-0.7-0.3c-0.1,0-0.2,0-0.3-0.1c-0.1,0-0.2-0.1-0.2-0.1c-0.2-0.1-0.8-0.7-2-1.8c-1.2-1.1-2.9-2.6-5-4.6
			c-0.8-0.7-1.4-1.4-2-1.8c-0.5-0.5-1-0.9-1.3-1.2c-0.3-0.3-0.6-0.5-0.7-0.6c-0.2-0.1-0.3-0.2-0.3-0.2c-0.2,0-0.3-0.1-0.4-0.2
			c-0.1-0.1-0.3-0.3-0.5-0.4c-0.2-0.1-0.4-0.2-0.5-0.2c-0.3,0-0.5-0.1-0.7-0.3C98.4,43.1,98.1,42.8,97.8,42.2z"/>
		<path class="st25" d="M130.7,35.9c0-0.1-0.2-0.3-0.6-0.8c-0.4-0.5-0.8-1.1-1.2-1.7c-1.6-2.2-2.9-4.2-4-5.7c-1.1-1.6-2-2.8-2.7-3.8
			c-0.7-1-1.3-1.9-1.9-2.8c0.9-0.7,1.7-1.3,2.5-1.9c0.7-0.6,1.6-1.2,2.6-1.9c1-0.7,2-1.5,3-2.3c1-0.8,2.1-1.6,3.2-2.4
			c1.1-0.8,2-1.6,3-2.3l0.3-0.2l0.3,0.6c0.1,0.2,0.3,0.6,0.5,1.1c0.3,0.6,0.6,1.2,0.9,1.8c0.3,0.6,0.6,1.2,0.8,1.7
			c0.2,0.5,0.4,0.8,0.5,0.9c0.2,0.4,0.3,0.7,0.2,0.9c0,0.2,0,0.3,0.1,0.5c0.1,0.2,0.2,0.3,0.3,0.4c0.5,0.4,0.5,0.7,0.2,0.9
			c-0.2,0.1-0.3,0.1-0.3,0.1c-0.1,0-0.2-0.1-0.3-0.3c-0.2-0.2-0.3-0.4-0.5-0.7c-0.1-0.2-0.2-0.3-0.3-0.3l-0.1,0
			c-0.1,0-0.1,0.1-0.1,0.1c-0.1,0.1-0.1,0.2-0.3,0.2c-0.1,0-0.2,0-0.3,0c0,0-0.1,0-0.1,0s-0.1,0-0.2,0c-0.1,0-0.1,0-0.2,0
			c-0.1,0-0.2,0.1-0.4,0.2c-0.2,0.1-0.4,0.2-0.7,0.4c-0.3,0.2-0.7,0.4-1.2,0.8l-1.1,0.7l-0.1,0.3c-0.1,0.2-0.1,0.4,0,0.6
			c0.2,0.3,0.1,0.5,0,0.6c-0.2,0.1-0.3,0-0.5-0.3c-0.1-0.2-0.2-0.3-0.2-0.2c-0.1,0.1-0.1,0.2,0,0.4c0.1,0.1,0.1,0.2,0.1,0.3
			c-0.1,0.2-0.3,0.3-0.5,0.2c-0.1,0-0.1,0-0.2,0c-0.1,0-0.1,0.1-0.1,0.1c0.1,0.1,0.1,0.2,0.1,0.4c0,0.1,0,0.3,0,0.4
			c0,0.2,0,0.3,0.1,0.4s0.2,0.4,0.3,0.7c0.1,0.2,0.2,0.4,0.3,0.6c0.1,0.2,0.1,0.3,0.1,0.4c0,0.1,0.1,0.1,0.2,0.1
			c0,0,0.2-0.2,0.4-0.4c0.2-0.2,0.5-0.5,0.8-0.7c0.3-0.3,0.7-0.6,1.1-1c0,0.1,0.1,0.2,0.2,0.3l0.4,0.6c0.2,0.3,0.4,0.6,0.5,0.8
			c0.1,0.2,0.2,0.3,0.2,0.5c0.1,0.6,0.5,1.3,1.3,2.2c0.1,0.1,0.2,0.3,0.3,0.6c0,0.2,0,0.4,0,0.5c-0.1,0.1-0.3,0.2-0.4,0.1
			c-0.1-0.1-0.2-0.3-0.3-0.6c0-0.2-0.2-0.3-0.3-0.4c-0.2-0.2-0.3-0.2-0.3-0.2c0,0,0.1,0.2,0.3,0.3c0.2,0.2,0.1,0.3-0.2,0.5
			c-0.3,0.2-0.5,0.1-0.7-0.3c-0.1-0.2-0.2-0.3-0.3-0.3c-0.1,0-0.3,0.2-0.7,0.4c-0.2,0.2-0.3,0.3-0.4,0.3c-0.1,0.1-0.1,0.1-0.2,0.1
			c0,0.1,0.1,0.2,0.2,0.3c0.1,0.1,0.2,0.4,0.3,0.7c0.1,0.3,0.3,0.5,0.4,0.8c0.1,0.2,0.2,0.4,0.2,0.4l0.1,0.2l0.8-0.5
			c0.3-0.2,0.8-0.4,1.4-0.7c0.6-0.3,1.3-0.7,1.9-1c0.6-0.3,1.5-0.7,2.5-1.2c0,0,0.1,0.2,0.3,0.5c0.1,0.3,0.3,0.7,0.5,1.1
			c0.2,0.4,0.3,0.7,0.5,1.1c0.1,0.3,0.2,0.5,0.2,0.5c0,0-0.3,0.2-0.8,0.6c-0.5,0.4-1,0.7-1.6,1.2c-0.6,0.4-1.1,0.8-1.6,1.2
			s-0.8,0.6-1,0.7c-0.4,0.3-0.7,0.5-0.9,0.7c-0.2,0.2-0.4,0.3-0.5,0.4c-0.1,0.1-0.2,0.2-0.2,0.3c0,0.1,0,0.2,0,0.3
			c0,0.1,0,0.2-0.1,0.3c0,0.1-0.1,0.1-0.1,0.2c-0.1,0.1-0.2,0.1-0.3,0.1c-0.2-0.1-0.4,0.1-0.6,0.5c-0.1,0.2-0.1,0.4,0,0.5
			c0.2,0.2,0.1,0.3-0.1,0.5c-0.3,0.2-0.5,0.1-0.7-0.2c-0.1-0.1-0.2-0.2-0.3-0.2c-0.1,0-0.1,0-0.1,0.1c0,0,0,0.1,0,0.3
			c0,0.3,0.2,0.5,0.5,0.7c0.1,0.1,0.2,0.2,0.2,0.3s0.1,0.3,0,0.4c-0.1,0.2-0.3,0.2-0.5,0.2c-0.1,0-0.2,0-0.3-0.1
			c-0.1-0.1-0.2-0.2-0.3-0.4c-0.1-0.1-0.2-0.3-0.3-0.4c-0.1-0.1-0.2-0.2-0.3-0.3c-0.2-0.1-0.5-0.5-1-1.3c-0.2-0.3-0.4-0.6-0.6-0.9
			C130.9,36.1,130.8,35.9,130.7,35.9z"/>
	</g>
	<g>
		<path class="st3" d="M211.4,76.2c8.8,1.1,19-11.4,16.5-27.7"/>
		<path class="st3" d="M230.3,77.5c1.7-4.6,3.6-8.2,8.2-10.7"/>
	</g>
	<g>
		<g>
			<path class="st26" d="M148.1,54.1c-4.9,7.9-7.6,22.1,0.6,22.1S154.6,62.1,148.1,54.1z"/>
			<path class="st3" d="M144.3,63.2c-1.7,6.6-1.1,13,4.4,13c8.2,0,6-14.2-0.6-22.1"/>
			<ellipse class="st0" cx="147" cy="69.1" rx="1.7" ry="4"/>
		</g>
		<g>
			<path class="st26" d="M248.4,56c-3.9,6.2-6,17.6,0.4,17.6S253.6,62.4,248.4,56z"/>
			<path class="st3" d="M245.3,63.3c-1.3,5.2-0.9,10.3,3.5,10.3c6.5,0,4.8-11.2-0.4-17.6"/>
			<ellipse class="st0" cx="247.5" cy="68" rx="1.4" ry="3.1"/>
		</g>
		<g>
			<path class="st26" d="M218.2,62.8c-3.6,5.9-5.7,16.6,0.4,16.6C224.7,79.4,223.1,68.8,218.2,62.8z"/>
			<path class="st3" d="M215.4,69.7c-1.3,4.9-0.8,9.7,3.3,9.7c6.1,0,4.5-10.6-0.4-16.6"/>
			<ellipse class="st0" cx="217.4" cy="74.1" rx="1.3" ry="3"/>
		</g>
		<g>
			<path class="st26" d="M197.5,37.4c-4.9,7.9-7.6,22.1,0.6,22.1S204,45.4,197.5,37.4z"/>
			<path class="st3" d="M193.7,46.6c-1.7,6.6-1.1,13,4.4,13c8.2,0,6-14.2-0.6-22.1"/>
			<ellipse class="st0" cx="196.3" cy="52.5" rx="1.7" ry="4"/>
		</g>
		<g>
			<path class="st26" d="M259.1,100.8c2.3,1.2,5.2,3.6,8,5.6c3.2,2.2,6.4,7.4,9.2,5.8c2.1-1.3,2.4-4.5,0-6.9
				C273.4,102.4,267.1,100.4,259.1,100.8z"/>
			<path class="st3" d="M259.1,100.8c2.3,1.2,5.2,3.6,8,5.6c3.2,2.2,6.4,7.4,9.2,5.8c2-1.2,2.5-4.2,0.3-6.6
				C273.9,102.6,267.4,100.4,259.1,100.8z"/>
			
				<ellipse transform="matrix(0.566 -0.8244 0.8244 0.566 31.0157 271.4626)" class="st0" cx="273.3" cy="106.3" rx="1.1" ry="2.3"/>
		</g>
	</g>
</g>
</svg>
